<svg width="98" height="53" viewBox="0 0 98 53" fill="none" xmlns="http://www.w3.org/2000/svg">
<g clip-path="url(#clip0_27_225)">
<mask id="mask0_27_225" style="mask-type:luminance" maskUnits="userSpaceOnUse" x="-1342" y="-157" width="1440" height="8343">
<path d="M98 -157H-1342V8186H98V-157Z" fill="white"/>
</mask>
<g mask="url(#mask0_27_225)">
<path d="M2 -18H98V51H26C12.7452 51 2 40.2548 2 27V-18Z" fill="#0A0731"/>
<path d="M139 -17C139 -8.16345 131.837 -1 123 -1H50C41.1634 -1 34 6.16344 34 15V19C34 27.8366 26.8366 35 18 35H-1262C-1270.84 35 -1278 27.8366 -1278 19V15C-1278 6.16344 -1285.16 -1 -1294 -1H-1367C-1375.84 -1 -1383 -8.16344 -1383 -17V-149C-1383 -157.837 -1375.84 -165 -1367 -165H123C131.837 -165 139 -157.837 139 -149V-17Z" fill="#F5F7F8"/>
<mask id="mask1_27_225" style="mask-type:luminance" maskUnits="userSpaceOnUse" x="-1384" y="-166" width="1524" height="202">
<path d="M140 -166H-1384V36H140V-166Z" fill="white"/>
</mask>
<g mask="url(#mask1_27_225)">
<path d="M123 -1V-2H50V-1V0H123V-1ZM34 15H33V19H34H35V15H34ZM18 35V34H-1262V35V36H18V35ZM-1278 19H-1277V15H-1278H-1279V19H-1278ZM-1294 -1V-2H-1367V-1V0H-1294V-1ZM-1383 -17H-1382V-149H-1383H-1384V-17H-1383ZM-1367 -165V-164H123V-165V-166H-1367V-165ZM139 -149H138V-17H139H140V-149H139ZM123 -165V-164C131.284 -164 138 -157.284 138 -149H139H140C140 -158.389 132.389 -166 123 -166V-165ZM-1383 -149H-1382C-1382 -157.284 -1375.28 -164 -1367 -164V-165V-166C-1376.39 -166 -1384 -158.389 -1384 -149H-1383ZM-1367 -1V-2C-1375.28 -2 -1382 -8.71573 -1382 -17H-1383H-1384C-1384 -7.61116 -1376.39 0 -1367 0V-1ZM-1278 15H-1277C-1277 5.61116 -1284.61 -2 -1294 -2V-1V0C-1285.72 0 -1279 6.71573 -1279 15H-1278ZM-1262 35V34C-1270.28 34 -1277 27.2843 -1277 19H-1278H-1279C-1279 28.3888 -1271.39 36 -1262 36V35ZM34 19H33C33 27.2843 26.2843 34 18 34V35V36C27.3888 36 35 28.3888 35 19H34ZM50 -1V-2C40.6112 -2 33 5.61116 33 15H34H35C35 6.71573 41.7157 0 50 0V-1ZM123 -1V0C132.389 0 140 -7.61116 140 -17H139H138C138 -8.71573 131.284 -2 123 -2V-1Z" fill="#DDDFE4"/>
</g>
</g>
</g>
<defs>
<clipPath id="clip0_27_225">
<rect width="98" height="53" fill="white"/>
</clipPath>
</defs>
</svg>
