<svg width="1440" height="197" viewBox="0 0 1440 197" fill="none" xmlns="http://www.w3.org/2000/svg">
<mask id="path-1-outside-1_1_151" maskUnits="userSpaceOnUse" x="-13" y="-4" width="1524" height="201" fill="black">
<rect fill="white" x="-13" y="-4" width="1524" height="201"/>
<path d="M1510 145C1510 153.837 1502.84 161 1494 161H1362.98C1357.72 161 1354 168.74 1354 174V178C1354 187.941 1345.94 196 1336 196H60C50.0589 196 42 187.941 42 178V174C42 168.74 38.2823 161 33.0227 161H4C-4.83656 161 -12 153.837 -12 145V13C-12 4.16345 -4.83656 -3 4 -3H1494C1502.84 -3 1510 4.16344 1510 13V145Z"/>
</mask>
<path d="M1510 145C1510 153.837 1502.84 161 1494 161H1362.98C1357.72 161 1354 168.74 1354 174V178C1354 187.941 1345.94 196 1336 196H60C50.0589 196 42 187.941 42 178V174C42 168.74 38.2823 161 33.0227 161H4C-4.83656 161 -12 153.837 -12 145V13C-12 4.16345 -4.83656 -3 4 -3H1494C1502.84 -3 1510 4.16344 1510 13V145Z" fill="#F5F7F8"/>
<path d="M1494 161V160H1362.98V161V162H1494V161ZM1354 174H1353V178H1354H1355V174H1354ZM1354 178H1353C1353 187.389 1345.39 195 1336 195V196V197C1346.49 197 1355 188.493 1355 178H1354ZM1336 196V195H60V196V197H1336V196ZM60 196V195C50.6112 195 43 187.389 43 178H42H41C41 188.493 49.5066 197 60 197V196ZM42 178H43V174H42H41V178H42ZM33.0227 161V160H4V161V162H33.0227V161ZM-12 145H-11V13H-12H-13V145H-12ZM4 -3V-2H1494V-3V-4H4V-3ZM1510 13H1509V145H1510H1511V13H1510ZM4 161V160C-4.28427 160 -11 153.284 -11 145H-12H-13C-13 154.389 -5.38884 162 4 162V161ZM42 174H43C43 171.171 42.0114 167.742 40.3366 165.006C38.6814 162.301 36.1732 160 33.0227 160V161V162C35.1318 162 37.1123 163.569 38.6308 166.05C40.1298 168.499 41 171.57 41 174H42ZM1362.98 161V160C1359.83 160 1357.32 162.301 1355.66 165.006C1353.99 167.742 1353 171.171 1353 174H1354H1355C1355 171.57 1355.87 168.499 1357.37 166.05C1358.89 163.569 1360.87 162 1362.98 162V161ZM-12 13H-11C-11 4.71573 -4.28427 -2 4 -2V-3V-4C-5.38884 -4 -13 3.61116 -13 13H-12ZM1494 -3V-2C1502.28 -2 1509 4.71573 1509 13H1510H1511C1511 3.61116 1503.39 -4 1494 -4V-3ZM1494 161V162C1503.39 162 1511 154.389 1511 145H1510H1509C1509 153.284 1502.28 160 1494 160V161Z" fill="#DDDFE4" mask="url(#path-1-outside-1_1_151)"/>
</svg>
