<svg width="20" height="20" viewBox="0 0 20 20" fill="none" xmlns="http://www.w3.org/2000/svg">
<g clip-path="url(#clip0_352_417)">
<path d="M13.3332 13.3333C14.714 13.3333 15.8332 14.4525 15.8332 15.8333C15.8332 17.2141 14.714 18.3333 13.3332 18.3333C11.9523 18.3333 10.8332 17.2141 10.8332 15.8333C10.8332 14.4525 11.9523 13.3333 13.3332 13.3333ZM4.99984 9.99996C6.8415 9.99996 8.33317 11.4916 8.33317 13.3333C8.33317 15.175 6.8415 16.6666 4.99984 16.6666C3.15817 16.6666 1.6665 15.175 1.6665 13.3333C1.6665 11.4916 3.15817 9.99996 4.99984 9.99996ZM12.0832 1.66663C14.6148 1.66663 16.6665 3.71829 16.6665 6.24996C16.6665 8.78163 14.6148 10.8333 12.0832 10.8333C9.5515 10.8333 7.49984 8.78163 7.49984 6.24996C7.49984 3.71829 9.5515 1.66663 12.0832 1.66663Z" fill="#0A0731"/>
</g>
<defs>
<clipPath id="clip0_352_417">
<rect width="20" height="20" fill="white"/>
</clipPath>
</defs>
</svg>
