<svg width="20" height="20" viewBox="0 0 20 20" fill="none" xmlns="http://www.w3.org/2000/svg">
<path d="M15.8333 16.6667H4.16663V17.5C4.16663 17.721 4.07883 17.933 3.92255 18.0893C3.76627 18.2456 3.55431 18.3334 3.33329 18.3334H2.49996C2.27895 18.3334 2.06698 18.2456 1.9107 18.0893C1.75442 17.933 1.66663 17.721 1.66663 17.5V10L3.76079 4.41503C3.8799 4.09727 4.09317 3.82344 4.37209 3.63015C4.65101 3.43686 4.98228 3.33332 5.32163 3.33336H14.6783C15.0176 3.33332 15.3489 3.43686 15.6278 3.63015C15.9067 3.82344 16.12 4.09727 16.2391 4.41503L18.3333 10V17.5C18.3333 17.721 18.2455 17.933 18.0892 18.0893C17.9329 18.2456 17.721 18.3334 17.5 18.3334H16.6666C16.4456 18.3334 16.2336 18.2456 16.0774 18.0893C15.9211 17.933 15.8333 17.721 15.8333 17.5V16.6667ZM3.44663 10H16.5533L14.6783 5.00003H5.32163L3.44663 10ZM5.41663 14.1667C5.74815 14.1667 6.06609 14.035 6.30051 13.8006C6.53493 13.5662 6.66663 13.2482 6.66663 12.9167C6.66663 12.5852 6.53493 12.2672 6.30051 12.0328C6.06609 11.7984 5.74815 11.6667 5.41663 11.6667C5.08511 11.6667 4.76716 11.7984 4.53274 12.0328C4.29832 12.2672 4.16663 12.5852 4.16663 12.9167C4.16663 13.2482 4.29832 13.5662 4.53274 13.8006C4.76716 14.035 5.08511 14.1667 5.41663 14.1667ZM14.5833 14.1667C14.9148 14.1667 15.2328 14.035 15.4672 13.8006C15.7016 13.5662 15.8333 13.2482 15.8333 12.9167C15.8333 12.5852 15.7016 12.2672 15.4672 12.0328C15.2328 11.7984 14.9148 11.6667 14.5833 11.6667C14.2518 11.6667 13.9338 11.7984 13.6994 12.0328C13.465 12.2672 13.3333 12.5852 13.3333 12.9167C13.3333 13.2482 13.465 13.5662 13.6994 13.8006C13.9338 14.035 14.2518 14.1667 14.5833 14.1667Z" fill="#0A0731"/>
</svg>
