<svg width="20" height="20" viewBox="0 0 20 20" fill="none" xmlns="http://www.w3.org/2000/svg">
<g clip-path="url(#clip0_352_501)">
<path d="M16.6668 16.6666C16.6668 16.8877 16.579 17.0996 16.4228 17.2559C16.2665 17.4122 16.0545 17.5 15.8335 17.5H4.16683C3.94582 17.5 3.73385 17.4122 3.57757 17.2559C3.42129 17.0996 3.3335 16.8877 3.3335 16.6666V9.16664H0.833496L9.43933 1.34331C9.59276 1.20371 9.79273 1.12634 10.0002 1.12634C10.2076 1.12634 10.4076 1.20371 10.561 1.34331L19.1668 9.16664H16.6668V16.6666ZM10.0002 14.1666L12.7993 11.3675C12.9734 11.1934 13.1116 10.9867 13.2058 10.7592C13.3 10.5317 13.3485 10.2879 13.3485 10.0416C13.3485 9.79541 13.3 9.55159 13.2058 9.3241C13.1116 9.09662 12.9734 8.88992 12.7993 8.71581C12.6252 8.5417 12.4185 8.40358 12.191 8.30936C11.9635 8.21513 11.7197 8.16663 11.4735 8.16663C11.2273 8.16663 10.9834 8.21513 10.756 8.30936C10.5285 8.40358 10.3218 8.5417 10.1477 8.71581L10.0002 8.86331L9.85266 8.71581C9.67855 8.5417 9.47185 8.40358 9.24437 8.30936C9.01688 8.21513 8.77306 8.16663 8.52683 8.16663C8.2806 8.16663 8.03678 8.21513 7.80929 8.30936C7.58181 8.40358 7.37511 8.5417 7.201 8.71581C7.02689 8.88992 6.88877 9.09662 6.79455 9.3241C6.70032 9.55159 6.65182 9.79541 6.65182 10.0416C6.65182 10.2879 6.70032 10.5317 6.79455 10.7592C6.88877 10.9867 7.02689 11.1934 7.201 11.3675L10.0002 14.1666Z" fill="#0A0731"/>
</g>
<defs>
<clipPath id="clip0_352_501">
<rect width="20" height="20" fill="white"/>
</clipPath>
</defs>
</svg>
