<svg width="672" height="152" viewBox="0 0 672 152" fill="none" xmlns="http://www.w3.org/2000/svg">
<mask id="mask0_352_234" style="mask-type:alpha" maskUnits="userSpaceOnUse" x="0" y="-63" width="672" height="215">
<rect y="-63" width="672" height="215" fill="#D9D9D9"/>
</mask>
<g mask="url(#mask0_352_234)">
<path d="M686.127 -156.912C569.418 -156.866 452.71 -156.871 335.999 -156.871C219.288 -156.871 102.582 -156.866 -14.1266 -156.912C-15.6982 -156.912 -16.0508 -156.54 -16.0508 -154.886C-16.0076 -29.613 -16.0076 95.6621 -16.0508 220.935C-16.0508 222.589 -15.6982 222.961 -14.1266 222.961C219.29 222.918 452.71 222.918 686.127 222.961C687.699 222.961 688.051 222.589 688.051 220.935C688.008 95.6621 688.008 -29.613 688.051 -154.886C688.051 -156.54 687.696 -156.912 686.127 -156.912ZM639.49 -145.694C639.847 -148.926 640.721 -150.344 643.787 -150.957C646.459 -151.492 649.157 -151.852 651.888 -151.852C654.89 -151.852 657.893 -151.852 660.895 -151.852C665.425 -151.727 669.961 -152.105 674.489 -151.488C679.406 -150.815 681.897 -148.582 682.331 -143.383C683.177 -133.271 683.191 -123.129 682.345 -113.015C682.013 -109.031 680.173 -108.074 676.727 -109.776C673.293 -111.472 670.313 -113.936 667.268 -116.265C659.76 -122.01 652.252 -127.76 645.013 -133.884C641.387 -136.952 638.908 -140.407 639.49 -145.692V-145.694ZM682.781 64.218C682.759 66.3261 682.392 68.4593 681.947 70.5241C681.385 73.1222 680.12 73.455 678.308 71.5223C675.337 68.3567 673.299 64.4686 671.105 60.7287C664.984 50.2975 658.973 39.7933 653.335 29.0613C651.711 25.9709 650.21 22.8167 649.384 19.3753C648.411 15.3095 649.248 12.333 652.605 10.2067C659.735 5.69186 667.306 2.11147 675.346 -0.229111C678.203 -1.06097 680.22 0.244919 681.255 3.17351C682.388 6.38242 682.713 9.7782 682.772 13.1307C682.922 21.7159 682.822 30.3079 682.822 38.8954C682.822 47.4828 682.877 55.7786 682.784 64.2202L682.781 64.218ZM682.392 161.581C682.376 163.407 682.199 165.253 681.885 167.049C681.171 171.147 676.495 175.582 672.542 176.078C670.786 176.299 669.442 175.484 668.223 174.285C665.971 172.072 663.947 169.649 662.098 167.06C653.296 154.733 644.151 142.668 636.058 129.789C635.014 128.127 634.164 126.359 633.57 124.467C632.897 122.325 633.172 120.301 634.837 118.824C641.314 113.085 647.953 107.91 657.224 108.707C662.353 109.149 667.541 108.897 672.697 109.252C678.537 109.653 681.401 112.543 682.038 118.635C682.859 126.475 682.438 134.335 682.417 142.187C682.417 148.65 682.454 155.116 682.395 161.579L682.392 161.581ZM78.5756 148.352C83.3132 142.086 88.1327 135.901 93.3751 130.092C97.7397 125.258 100.182 125.563 102.891 131.53C107.401 141.471 111.438 151.636 114.834 162.06C116.774 168.015 116.033 174.109 114.873 180.115C114.509 181.997 113.081 183.201 111.504 184.128C108.937 185.639 106.216 186.783 103.442 187.777C96.648 190.211 89.9567 193.005 82.922 194.619C78.4733 195.64 76.3672 194.113 75.512 189.361C74.5886 184.237 74.2179 179.039 73.8517 173.847C73.6402 170.853 73.1535 167.867 73.4378 164.72C72.7827 158.53 74.9184 153.192 78.5802 148.349L78.5756 148.352ZM528.632 -32.8287C529.146 -28.2774 529.102 -23.7353 528.679 -19.1817C528.279 -14.8834 526.623 -13.5525 522.686 -14.8857C520.503 -15.6241 518.385 -16.6246 516.309 -17.6616C510.066 -20.7816 503.868 -23.9951 497.864 -27.6074C497.561 -27.7897 497.261 -27.9789 496.965 -28.1749C491.848 -31.5843 491.256 -34.3192 494.559 -39.5998C498.132 -45.3133 502.01 -50.799 506.108 -56.1047C509.852 -60.9499 512.074 -61.3829 517.314 -58.3587C519.639 -57.0163 521.918 -55.5805 524.153 -54.0831C526.191 -52.7203 527.417 -50.7375 527.849 -48.1941C528.279 -45.6598 528.679 -43.1323 528.643 -40.5456C528.607 -37.9725 528.636 -35.3995 528.636 -32.8287H528.632ZM627.065 -90.0785C626.936 -87.2502 626.217 -84.5222 624.532 -82.2682C620.001 -76.2128 615.366 -70.2576 609.773 -65.2004C606.116 -61.8935 602.133 -61.0137 597.514 -62.4815C590.666 -64.658 584.195 -67.7301 577.922 -71.2832C574.613 -73.1565 574.074 -75.3194 575.976 -78.7311C577.815 -82.0357 580.147 -84.9757 582.485 -87.8952C587.295 -93.9005 591.94 -100.056 597.052 -105.79C600.07 -109.175 603.603 -111.698 607.842 -113.081C612.441 -114.581 617.081 -115.948 621.857 -116.607C625.883 -117.16 626.906 -116.345 627.347 -112.076C627.632 -109.321 627.4 -106.506 627.4 -103.719C627.741 -99.1583 627.275 -94.6207 627.068 -90.0762L627.065 -90.0785ZM557.662 73.0379C555.006 62.0825 552.226 51.159 550.12 40.0645C549.579 37.218 549.906 34.5196 551.073 31.9078C552.103 29.5968 552.931 29.296 554.96 30.725C558.16 32.9812 560.987 35.7366 563.821 38.4578C571.195 45.5434 578.639 52.5538 585.744 59.9447C587.732 62.0141 589.647 64.1473 591.18 66.6337C592.958 69.5168 593.247 72.5137 591.88 75.6429C589.397 81.3268 586.536 86.7965 583.299 92.0429C581.493 94.9715 579.091 96.7469 576.137 96.2159C573.271 96.1521 571.008 95.7213 568.727 95.3999C565.591 94.9555 563.767 93.0115 562.604 90.0921C560.407 84.5813 559.063 78.7971 557.664 73.0356L557.662 73.0379ZM551.778 99.3268C545.715 102.317 539.535 105.034 533.217 107.381C529.578 108.732 525.923 108.272 522.293 107.388C520.708 107 519.777 105.813 519.698 104.069C519.627 102.533 519.684 100.988 519.684 99.4475C520.116 91.0287 520.774 82.6236 521.849 74.2617C522.504 69.1612 524.597 64.7467 527.704 60.8336C531.375 56.2116 535.257 51.788 539.228 47.4532C540.147 46.4505 541.12 45.4887 542.16 44.6318C544.941 42.3391 546.736 42.7812 548.185 46.2066C550.066 50.6507 551.089 55.3912 552.253 60.0746C554.405 68.7328 556.602 77.3795 558.124 86.1949C559.281 92.893 557.655 96.4278 551.78 99.3245L551.778 99.3268ZM580.129 50.9584C573.662 44.7959 567.269 38.549 561.763 31.3859C560.312 29.4966 559.07 27.4545 558.162 25.2074C556.402 20.8498 557.28 17.6295 561.171 15.2639C566.889 11.786 573.007 9.43636 579.549 8.22389C590.252 6.24339 600.955 4.26746 611.718 2.66985C612.887 2.49664 614.083 2.51031 614.938 2.45561C620.888 2.17757 625.403 4.88736 629.374 8.62045C632.117 11.1981 632.619 14.8331 632.356 18.5457C631.989 23.6645 630.429 28.4482 628.469 33.0952C625.355 40.4771 622.25 47.8657 618.343 54.8374C616.589 57.9665 614.181 60.3117 610.99 61.7657C608.363 62.9622 605.709 64.0675 602.964 64.929C599.979 65.8657 597.214 65.4669 594.58 63.6391C589.306 59.9789 584.782 55.3866 580.129 50.9539V50.9584ZM573.765 -20.4854C574.035 -23.635 575.109 -26.5134 576.719 -29.1161C580.72 -35.5932 585.189 -41.7102 590.227 -47.3371C591.319 -48.5542 592.608 -49.6253 593.943 -50.5392C597.264 -52.8137 600.391 -52.2212 602.743 -48.8641C605.131 -45.4547 606.571 -41.5347 607.826 -37.5509C610.203 -30.0186 612.25 -22.3884 613.922 -14.6464C614.295 -12.9234 614.558 -11.1959 614.57 -9.41599C614.595 -4.83281 613.251 -2.70872 609.091 -1.18858C604.783 0.38623 600.255 0.930923 595.792 1.73088C591.189 2.55589 586.554 3.18945 581.93 3.8709C581.104 3.99168 580.258 3.98486 579.421 3.96663C575.314 3.87775 573.581 2.15022 573.383 -2.20277C573.28 -4.47726 573.365 -6.75859 573.365 -9.03764C573.205 -12.8642 573.437 -16.6748 573.765 -20.4831V-20.4854ZM625.996 1.24998C622.33 -0.495773 619.887 -3.2238 618.568 -7.20758C615.648 -16.0229 613.512 -25.0822 611.074 -34.0457C609.386 -40.2516 607.54 -46.4187 606.637 -52.8411C606.261 -55.5121 606.694 -57.8208 608.611 -59.6714C609.739 -60.7608 610.926 -61.7909 612.161 -62.7435C613.765 -63.9811 615.605 -64.1839 617.304 -63.1583C624.454 -58.835 631.382 -54.1606 637.259 -47.9867C639.322 -45.8193 639.761 -42.9819 639.713 -40.0191C639.211 -32.2339 637.603 -24.6309 636.154 -17.0075C635.21 -12.0437 634.189 -7.08907 632.997 -2.18456C631.698 3.16211 630.693 3.48573 625.999 1.24998H625.996ZM639.01 -51.1523C632.233 -55.152 625.914 -59.856 620.094 -65.2642C617.761 -67.4316 617.752 -68.9289 619.567 -71.6091C621.641 -74.6721 624.088 -77.3956 626.699 -79.9549C628.435 -81.6574 630.511 -81.6756 632.592 -80.9896C634.25 -80.4427 635.892 -79.7658 637.441 -78.9362C643.787 -75.5427 650.189 -72.2472 656.148 -68.1221C659.3 -65.9388 659.414 -64.0267 656.724 -61.2234C653.744 -58.1216 650.651 -55.1475 647.348 -52.4286C645.909 -51.2412 644.376 -50.2156 642.34 -50.2794C641.203 -50.1928 640.052 -50.5392 639.01 -51.1546V-51.1523ZM593.266 -105.337C588.212 -97.6609 582.599 -90.4409 576.014 -84.1256C574.879 -83.0385 573.61 -82.1178 572.202 -81.4341C569.1 -79.9276 566.507 -80.5863 564.431 -83.4419C562.008 -86.7739 560.737 -90.687 559.609 -94.6138C557.369 -102.408 555.508 -110.31 554.237 -118.355C554.157 -118.861 554.096 -119.373 554.089 -119.884C554.048 -123.549 555.383 -124.959 558.854 -124.955C561.554 -124.987 564.058 -124.009 566.603 -123.264C573.992 -121.094 581.286 -118.603 588.46 -115.736C589.306 -115.399 590.143 -115.018 590.943 -114.574C595.292 -112.16 596.09 -109.633 593.263 -105.339L593.266 -105.337ZM565.925 -72.4158C567.658 -72.1241 569.323 -71.8757 570.872 -71.1624C577.201 -68.2543 583.611 -65.524 589.702 -62.0735C593.57 -59.8811 594.139 -57.7706 591.682 -53.8963C587.454 -47.2277 582.653 -41.0173 577.67 -34.9619C577.352 -34.5744 576.99 -34.2235 576.637 -33.8679C573.54 -30.7456 571.538 -30.9234 569.332 -34.8365C564.697 -43.0639 560.889 -51.738 557.375 -60.542C555.765 -64.5805 556.3 -65.9639 559.545 -68.7147C560.63 -69.6354 561.717 -70.5607 562.857 -71.4062C563.782 -72.0922 564.833 -72.4933 565.925 -72.4113V-72.4158ZM557.3 -54.3771C561.044 -46.9839 564.467 -39.4265 567.731 -31.7872C569.83 -26.8735 570.776 -21.7434 570.638 -16.3694C570.478 -10.282 570.958 -4.17416 570.096 1.8904C569.794 4.01219 568.952 5.87419 567.233 7.07753C563.143 9.94002 558.683 12.0231 554.032 13.6412C551.73 14.4411 549.604 13.7005 547.652 12.4219C543.083 9.42723 538.76 6.07019 534.663 2.39636C532.944 0.853439 532.432 -1.25241 532.268 -3.51323C531.654 -11.9389 531.413 -20.3782 531.406 -28.8244C531.406 -29.5605 531.406 -30.2944 531.406 -31.0282C531.568 -36.2313 530.99 -41.4526 531.816 -46.6466C532.312 -49.7712 533.801 -52.0662 536.333 -53.6957C540.033 -56.0773 543.893 -58.1353 547.871 -59.9357C551.164 -61.4285 553.234 -60.7836 555.335 -57.7547C556.072 -56.6904 556.714 -55.5417 557.303 -54.3771H557.3ZM533.97 7.50598C538.4 9.93091 542.421 12.9985 545.53 17.1532C549.661 22.6731 549.763 28.1519 546.031 34.5082C543.408 38.9751 539.913 42.6969 536.512 46.4801C532.919 50.4775 529.594 54.7508 525.584 58.3266C523.621 60.0769 521.508 61.4216 518.733 61.3144C517.528 61.3919 516.309 61.0615 515.147 60.5532C506.954 56.9728 498.998 52.8933 491.386 48.0891C487.506 45.6414 486.253 42.0063 486.764 37.4003C487.306 32.5186 487.729 27.63 488.625 22.7962C489.403 18.6118 491.568 15.8314 495.407 14.3318C503.09 11.3325 511.146 9.86481 519.052 7.78859C522.104 6.98636 525.202 6.49409 528.327 6.17503C530.328 5.9722 532.246 6.56018 533.972 7.50598H533.97ZM470.177 53.258C466.313 52.809 462.503 51.8769 458.653 51.2638C454.654 50.628 451.7 48.4492 449.56 44.9098C444.083 35.8506 439.339 26.3697 435.213 16.5652C433.077 11.4875 434.446 8.83923 439.548 7.46497C447.37 5.35912 455.259 3.5564 463.297 2.60831C465.665 2.32799 467.91 3.05501 469.959 4.13527C474.144 6.33911 478.01 9.11501 481.752 12.0709C484.688 14.391 485.491 17.5908 485.259 19.5622C484.695 28.6556 483.651 35.9736 482.418 43.2552C481.793 46.9518 479.511 49.7574 477.014 52.2278C475.09 54.1331 472.465 53.5246 470.175 53.258H470.177ZM474.376 75.6087C474.36 79.0455 473.841 82.4777 473.741 85.9168C473.646 89.1553 473.214 92.346 472.743 95.5253C472.313 98.4334 469.988 99.9831 466.229 100.111C461.673 100.263 457.238 99.1558 452.751 98.5929C451.716 98.463 450.692 98.2419 449.669 98.0254C443.735 96.7697 442.491 95.6142 441.481 89.4812C440.471 83.346 440.039 77.1288 439.65 70.9297C439.241 66.987 440.737 63.9126 443.442 61.3463C444.27 60.5601 445.12 59.7647 445.803 58.8462C449.225 54.238 453.57 52.8295 458.978 54.0693C462.365 54.8465 465.87 55.047 469.261 55.904C472.772 56.7928 474.03 58.4793 474.633 62.2215C475.358 66.7249 474.392 71.1486 474.374 75.6132L474.376 75.6087ZM476.095 86.8125C476.496 77.792 476.878 68.7715 477.856 59.7943C478.258 56.1045 480.162 53.217 482.702 50.7829C483.612 49.9123 484.756 49.5522 486.016 49.9602C486.482 50.1129 486.98 50.1744 487.426 50.3727C496.688 54.5092 505.799 58.9852 514.301 64.6715C518.347 67.3767 519.216 71.9052 518.89 76.5362C518.279 85.2422 517.628 93.9527 516.473 102.609C515.693 108.45 512.179 111.005 506.709 109.425C499.096 107.226 491.663 104.446 484.349 101.344C477.346 98.3741 476.018 96.0859 476.093 88.1343C476.098 87.6922 476.093 87.2523 476.093 86.8102L476.095 86.8125ZM528.939 0.0899506C528.368 1.62376 527.024 2.16162 525.698 2.64021C519.423 4.90787 512.956 6.43939 506.506 8.01421C501.223 9.30415 496.005 11.0362 489.703 11.1274C487.813 11.3599 485.373 10.5622 483.137 9.07397C479.718 6.79721 476.364 4.41104 472.943 2.1411C469.549 -0.112885 468.954 -3.45171 469.474 -7.26912C469.731 -9.15617 469.984 -11.0478 470.293 -12.9257C470.73 -15.5785 472.024 -17.7186 474.048 -19.3321C476.773 -21.5041 479.552 -23.6008 482.282 -25.7636C485.693 -28.4643 489.38 -28.5988 493.178 -26.9715C495.953 -25.7819 498.685 -24.4623 501.366 -23.0584C508.487 -19.3344 515.581 -15.5535 522.661 -11.7429C524.021 -11.0113 525.329 -10.1293 526.544 -9.15388C528.816 -7.32837 529.973 -2.69733 528.936 0.0899506H528.939ZM507 -62.3151C506.59 -61.0479 505.963 -59.9016 505.244 -58.819C499.89 -50.7398 494.47 -42.7084 488.486 -35.1305C484.558 -30.1554 479.514 -26.5431 474.346 -23.1701C471.74 -21.4699 470.143 -22.0146 468.86 -24.9865C467.71 -27.653 466.745 -30.4311 465.935 -33.2344C463.365 -42.1569 460.839 -51.0953 458.805 -60.1773C457.884 -64.2933 458.676 -67.8965 461.728 -70.8C463.438 -72.425 465.139 -74.0613 466.893 -75.6339C468.492 -77.0674 470.391 -77.7238 472.772 -77.7534C476.998 -77.1608 481.408 -76.0464 485.823 -74.9866C489.969 -73.9907 494.043 -72.6506 498.191 -71.666C501.775 -70.8137 504.145 -68.2839 506.47 -65.622C507.293 -64.6785 507.393 -63.5298 507 -62.3151ZM465.083 -78.6559C459.879 -72.1469 454.015 -66.8937 445.464 -66.0846C442.566 -65.8111 439.723 -64.936 436.807 -64.5827C432.818 -64.0996 430.998 -65.173 429.613 -69.1933C427.892 -74.1867 427.262 -79.4536 426.279 -84.6247C425.515 -88.6495 424.93 -92.7131 424.341 -96.7721C424.164 -97.9937 424.114 -99.2699 424.223 -100.498C424.551 -104.236 426.829 -106.018 431.294 -106.458C436.305 -106.95 441.326 -106.861 446.344 -106.982C449.901 -107.032 453.458 -107.135 457.013 -106.871C461.168 -106.561 463.079 -104.997 464.207 -100.813C465.656 -95.4297 466.329 -89.8894 466.904 -84.3535C467.116 -82.3138 466.418 -80.3219 465.083 -78.6536V-78.6559ZM440.082 -61.8137C442.946 -62.3903 445.8 -63.0148 448.734 -63.2563C452.219 -63.5435 454.256 -61.7476 455.657 -58.7392C457.757 -54.2358 458.967 -49.3974 460.306 -44.616C462.594 -36.4592 465.06 -28.3458 466.679 -20.0045C467.614 -15.1888 466.982 -10.3572 465.972 -5.61224C465.447 -3.14175 463.638 -1.87459 461.462 -1.15442C456.538 0.477386 451.468 1.48473 446.428 2.59235C441.456 3.68629 436.443 4.57513 431.442 5.51637C424.732 6.78125 422.592 4.95801 422.506 -2.22101C422.415 -9.70998 422.538 -17.2035 422.071 -24.4942C422.071 -32.1017 422.042 -39.5177 422.092 -46.936C422.106 -48.8368 422.294 -50.7489 422.554 -52.6337C422.872 -54.9355 424.009 -56.5833 426.043 -57.7706C430.432 -60.3323 435.306 -60.8565 440.076 -61.816L440.082 -61.8137ZM430.553 13.5227C436.177 23.6827 441.326 34.1139 446.137 44.7229C448.441 49.8052 447.931 52.1846 444.163 56.1547C442.98 57.4013 441.768 58.6183 440.524 59.7966C438.675 61.5492 436.537 61.7543 434.264 60.9042C433.414 60.5851 432.561 60.2319 431.767 59.7806C422.558 54.5274 413.631 48.7796 404.768 42.9065C400.708 40.215 398.72 36.5502 399 31.8463C398.761 27.0717 400.576 23.5482 403.587 20.6333C408.248 16.1208 413.476 12.488 419.26 9.77136C423.752 7.66096 428.08 9.05576 430.555 13.5227H430.553ZM270.439 105.252C270.369 108.71 269.232 109.655 265.984 109.421C263.869 109.268 261.819 108.723 259.929 107.784C252.231 103.956 244.641 99.8965 237.129 95.6689C230.983 92.2116 228.14 86.8193 228.09 79.7337C228.013 68.5664 227.631 57.3922 228.449 46.2362C228.497 45.5798 228.611 44.928 228.736 44.2808C229.689 39.3649 231.534 38.1775 235.98 39.8503C238.009 40.6138 239.969 41.6234 241.878 42.6832C248.237 46.2134 254.564 49.8098 260.78 53.6226C267.173 57.5426 270.326 63.2106 270.594 71.0961C270.812 77.4889 270.753 83.8771 270.462 90.2653C270.462 95.2609 270.54 100.257 270.435 105.25L270.439 105.252ZM268.957 54.0283C266.755 53.5087 264.678 52.6198 262.702 51.5464C252.965 46.259 243.128 41.1471 234.16 34.4421C231.834 32.7032 229.496 30.9369 227.849 28.3912C227.137 27.2905 226.596 26.1076 226.25 24.82C225.509 22.0692 225.948 20.8111 228.411 19.6966C230.392 18.801 232.448 18.0535 234.52 17.4199C245.373 14.113 256.309 11.1228 267.285 8.30594C269.261 7.79771 271.281 7.6564 273.312 7.74301C280.238 8.03017 280.54 8.22389 281.952 15.3938C283.267 22.0714 284.523 28.7605 285.198 35.5589C285.621 39.8161 284.548 43.3669 281.495 46.2613C279.216 48.4218 277.138 50.8148 274.677 52.7725C272.937 54.1559 271.063 54.5251 268.952 54.026L268.957 54.0283ZM43.6272 57.7044C44.189 54.2152 45.8356 51.5464 48.9584 50.0468C55.5132 46.9017 62.2795 44.3628 69.2392 42.4348C72.9874 41.3955 76.1943 42.339 78.8577 45.5343C81.7621 49.0189 84.5346 52.5993 87.1933 56.2891C90.2069 60.4689 90.2592 65.1113 89.3381 69.9475C87.912 77.4342 86.3836 84.8958 84.4959 92.2708C82.8947 98.5268 80.2655 100.699 74.1701 100.612C66.6282 100.507 59.1363 99.6846 51.699 98.4174C45.9334 97.4351 43.6386 94.6137 43.2383 88.4967C43.0859 86.1539 42.9062 83.8087 42.838 81.4613C42.7698 79.1116 42.8221 76.7573 42.8221 73.259C42.7857 68.8239 42.7379 63.238 43.6272 57.7044ZM165.296 43.6791C174.335 36.9012 183.375 30.0572 193.715 25.5994C199.317 23.1836 205.48 23.334 211.398 22.3882C213.466 22.0577 215.549 21.8139 217.63 21.6065C219.236 21.4447 221.062 21.2327 222.002 22.9101C223.034 24.7516 223.102 26.8278 221.94 28.7764C220.855 30.5974 219.488 32.179 218.049 33.6695C210.036 41.9698 202.062 50.3203 193.665 58.1921C190.642 61.0273 187.526 63.8647 181.656 63.5593C177.883 63.124 172.854 61.9343 167.905 60.3641C166.431 59.8969 165.378 58.7573 164.855 57.2304C163.954 54.5981 163.413 51.8678 163.076 49.0919C162.801 46.8265 163.634 44.9258 165.296 43.6791ZM155.657 39.9939C148.934 35.9235 142.457 31.4474 136.464 26.2444C133.762 23.8969 132.968 20.5262 132.39 17.1008C132.317 15.5852 133.093 14.5893 134.098 13.7073C138.14 10.1543 142.814 7.61539 147.247 4.69591C149.967 2.90457 152.778 1.26138 155.589 -0.368134C159.728 -2.77026 163.795 -2.68138 167.502 0.538925C173.807 6.01549 179.775 11.8954 185.215 18.3155C188.197 21.8344 188.058 24.2821 184.544 27.0853C178.09 32.2383 171.257 36.8123 163.884 40.4315C161.05 41.8217 158.262 41.571 155.657 39.9939ZM216.454 18.7486C209.984 20.2208 203.438 21.2965 196.781 21.1484C192.728 21.0595 189.662 18.6209 186.878 15.9567C181.249 10.5736 175.804 4.97853 170.286 -0.5345C169.931 -0.887756 169.59 -1.25925 169.27 -1.64439C165.546 -6.13641 165.255 -8.44966 167.743 -13.8054C168.601 -15.6515 169.508 -17.4747 170.336 -19.3367C171.937 -22.9376 174.56 -24.6697 178.363 -24.3757C179.127 -24.3164 179.898 -24.3666 180.667 -24.3666C186.325 -24.3871 191.927 -23.6122 197.529 -22.9422C200.479 -22.5889 203.115 -21.2602 205.392 -19.1247C208.787 -15.9363 211.833 -12.3924 214.949 -8.92369C217.394 -6.20023 218.069 -2.58337 218.811 0.930923C219.55 4.43611 220.207 7.96181 220.853 11.4875C221.619 15.6696 220.439 17.8415 216.457 18.7486H216.454ZM168.94 -23.4755C165.783 -15.6332 162.949 -7.60185 155.318 -2.99133C149.576 0.479675 144.076 4.38824 138.226 7.67464C132.081 11.1251 130.12 10.3525 127.937 3.45155C126.395 -1.42105 125.069 -6.35748 124.296 -11.4489C123.804 -14.6829 124.851 -17.2103 127.17 -19.225C129.877 -21.5724 132.932 -23.3592 136.045 -25.0138C142.582 -28.4871 149.148 -31.8943 155.71 -35.3129C156.333 -35.6365 156.995 -35.8895 157.654 -36.1242C161.623 -37.5463 163.058 -37.0518 165.453 -33.4531C168.405 -29.0181 169.213 -27.1652 169.131 -24.7198C169.099 -24.4851 169.126 -23.9335 168.942 -23.4777L168.94 -23.4755ZM130.744 26.3765C130.487 27.6072 130.052 28.7673 129.449 29.8498C126.422 35.3059 123.177 40.6206 119.781 45.8306C117.955 48.6315 115.555 50.6986 112.539 51.9384C107.993 53.8095 103.464 55.733 98.7291 57.048C95.5768 57.9232 92.8179 57.4583 90.4867 54.8875C86.7203 50.7328 83.3223 46.2613 80.129 41.6211C78.2322 38.8635 77.9138 35.8255 79.2147 32.6439C80.2632 30.0823 81.3231 27.5229 82.2852 24.9225C83.7317 21.0139 86.561 19.1087 90.3479 18.4614C96.275 17.4472 102.263 17.0461 108.245 16.7042C111.932 16.4946 115.612 15.9339 119.465 16.2006C120.647 16.2006 121.973 16.1755 123.297 16.2051C128.16 16.3145 131.801 21.2965 130.741 26.3743L130.744 26.3765ZM86.6043 98.422C88.3283 87.6648 89.9886 76.8667 93.4593 66.5016C94.46 63.516 96.4661 61.3851 99.234 60.1544C103.221 58.379 107.288 56.8156 111.502 55.7376C114.85 54.8807 117.015 55.7399 118.453 58.9693C123.29 69.8358 127.148 81.0921 129.759 92.779C130.805 97.4648 129.461 100.093 125.451 102.438C120.92 105.088 116.058 106.952 111.268 108.981C108.939 109.968 106.576 110.872 104.21 111.757C101.324 112.835 98.5926 112.365 95.9907 110.733C93.8255 109.375 91.8536 107.736 89.8498 106.139C87.4139 104.197 86.2517 101.702 86.6065 98.4288L86.6043 98.422ZM122.162 59.6712C120.595 54.1878 121.091 49.1397 124.157 44.3423C126.374 40.8713 128.314 37.2021 130.739 33.8769C133.195 30.5108 134.944 29.9547 138.447 32.0605C144.629 35.7754 150.499 40.0121 156.151 44.5748C158.039 46.0995 159.185 48.1575 159.872 50.5527C161.523 56.2982 161.982 61.948 159.995 67.8029C157.272 75.8206 154.677 83.8839 151.798 91.8423C150.101 96.5326 147.285 99.2083 142.254 98.2625C137.244 99.2083 134.489 96.4346 132.872 91.8765C129.095 81.2174 125.276 70.5765 122.16 59.6712H122.162ZM154.823 92.64C157.27 84.6041 159.631 76.5294 163.09 68.8877C164.898 64.8948 166.588 63.9809 170.762 64.6783C173.443 65.125 176.1 65.7404 178.772 66.2486C183.839 67.2149 188.027 69.7834 191.427 73.8333C195.86 79.1116 200.447 84.2508 204.591 89.7912C208.135 94.5294 208.007 97.2528 203.8 101.396C198.243 106.864 192.287 111.846 186.205 116.65C183.428 118.842 180.548 119.312 176.991 118.284C167.971 115.674 161.757 109.092 155.496 102.49C154.377 101.31 153.881 99.3404 153.89 97.4192C154.143 96.0814 154.315 94.3037 154.82 92.64H154.823ZM194.122 72.5228C191.306 68.6279 191.329 65.8885 193.94 61.8477C194.254 61.3623 194.563 60.8678 194.932 60.4302C201.163 53.0711 207.789 46.1268 215.172 40.0509C221.053 35.2102 223.969 36.3679 224.874 44.1668C225.804 52.18 225.766 60.2797 225.559 68.3567C225.067 73.7695 225.429 79.2118 224.858 84.6337C224.46 88.4101 222.97 90.7416 219.434 92.0634C214.996 93.7203 211.428 93.326 208.116 89.4767C203.338 83.9249 198.434 78.4917 194.12 72.5228H194.122ZM223.419 9.09221C222.397 5.04689 221.463 0.981064 221.271 -3.21924C221.055 -5.91991 221.958 -8.2719 223.239 -10.5236C226.591 -16.4241 231.008 -21.4653 235.116 -26.7482C238.432 -31.0123 241.78 -35.2627 245.507 -39.1417C249.661 -43.4605 252.337 -43.0981 254.669 -37.4347C259.083 -26.714 262.845 -15.7153 265.511 -4.35876C266.976 1.88356 265.254 5.03551 259.393 7.17097C250.418 10.4414 241.225 12.9393 231.911 14.8582C226.662 15.9385 224.788 14.5255 223.419 9.0945V9.09221ZM256.593 -56.6266C257.539 -58.5752 259.311 -59.0857 261.167 -59.1996C264.647 -59.4138 268.117 -59.897 271.615 -59.5574C273.637 -59.5574 275.666 -59.6668 277.681 -59.5301C280.483 -59.3432 282.628 -57.8846 283.711 -55.1247C286.874 -47.0568 290.509 -39.0186 290.618 -30.1303C290.736 -20.5104 289.299 -10.9771 287.613 -1.51677C287.149 1.09274 285.269 2.38269 283.349 3.6111C278.932 6.43712 271.927 4.38597 270.019 -0.548172C264.337 -15.2435 259.431 -30.2374 255.008 -45.4045C253.829 -49.4407 254.867 -53.0804 256.591 -56.6266H256.593ZM284.611 11.5422C284.541 6.35051 288.341 3.41052 292.976 3.9142C298.312 4.49536 303.659 4.9808 308.981 5.67592C314.924 6.45079 320.915 6.96358 326.765 8.35381C331.976 9.59132 333.195 11.5969 332.521 17.0917C332.387 18.1833 332.258 19.275 332.064 20.3553C331.227 25.041 330.34 29.7154 329.158 34.3236C328.293 37.692 326.606 40.4634 324.093 42.7493C321.82 44.8164 319.548 46.8744 317.11 48.7227C315.052 50.2838 312.796 50.7396 310.362 49.9534C304.674 48.1187 299.252 45.5912 294.004 42.6718C291.432 41.2405 289.763 38.884 288.964 35.9144C286.715 27.5617 285.662 18.9787 284.611 11.5399V11.5422ZM344.316 -1.20911C341.287 1.94739 338.048 4.91927 333.574 5.61665C330.85 6.04056 328.136 5.58475 325.439 5.28619C316.637 4.31532 307.819 3.43559 299.104 1.7605C297.88 1.52574 296.681 1.06767 295.515 0.591354C293.024 -0.422836 291.762 -2.44891 291.748 -5.20201C291.719 -11.6882 292.531 -18.0923 293.886 -24.4008C294.616 -27.7965 296.531 -29.2392 299.777 -29.7269C304.403 -30.422 308.97 -29.654 313.53 -29.1777C321.504 -28.3435 329.492 -27.5778 337.398 -26.1351C337.673 -26.085 337.944 -26.0189 338.217 -25.9528C344.492 -24.419 345.815 -22.712 345.915 -15.9842C345.938 -14.5142 345.918 -13.0442 345.918 -11.5742H346.006C346.006 -10.9862 346.027 -10.3983 346.002 -9.81026C345.886 -6.83836 346.589 -3.57704 344.314 -1.20683L344.316 -1.20911ZM315.234 64.7444C315.25 62.6978 315.473 60.6421 315.725 58.6092C316.087 55.6829 317.238 53.1691 319.348 51.1248C321.561 48.9825 323.883 46.9951 326.276 45.0899C328.348 43.4421 330.515 43.3236 332.69 44.7548C338.085 48.3033 343.195 52.2575 347.689 57.0253C350.164 59.6507 350.762 63.083 350.899 66.5608C351.056 70.5173 350.935 74.4874 350.935 78.4529C351.044 84.4673 351.283 90.5 350.098 96.4438C349.912 97.3759 349.705 98.308 349.438 99.2174C347.933 104.348 344.831 106.604 339.795 105.776C333.227 104.698 326.899 102.611 320.801 99.8259C318.218 98.6453 316.598 96.4939 316.037 93.5357C315.584 91.1586 315.206 88.7725 315.206 86.3384C315.211 79.1412 315.175 71.9439 315.234 64.7467V64.7444ZM348.097 52.0318C343.898 49.1215 339.893 45.9194 336.092 42.4621C333.963 40.5249 332.676 38.0179 332.831 34.2826C333.263 28.8881 334.807 23.0765 335.926 17.1806C336.172 15.8884 336.559 14.6235 336.818 13.3335C337.973 7.58804 342.229 4.85773 346.591 2.29608C348.208 1.34572 350.039 1.6944 351.674 2.37811C362.973 7.09576 374.075 12.2897 384.164 19.4984C391.094 24.4507 391.165 29.5421 384.696 35.2352C378.78 40.4429 372.003 44.2945 365.462 48.5107C362.837 50.2018 360.101 51.6467 357.265 52.9047C354.04 54.3383 350.974 54.0283 348.094 52.0318H348.097ZM349.541 -17.9465C349.272 -22.8852 349.504 -27.7646 350.926 -32.5438C351.968 -36.049 352.916 -36.9811 356.328 -36.3339C365.12 -34.6702 373.763 -32.3638 382.101 -28.9361C385.106 -27.7008 387.478 -25.5426 389.277 -22.7325C395.136 -13.5775 400.092 -3.87105 404.725 6.00865C407.363 11.6311 406.756 13.0076 402.136 17.0415C398.747 20.002 395.309 20.5194 391.269 18.8215C384.257 15.8724 377.573 12.2099 370.82 8.69792C365.63 5.99953 360.415 3.35811 355.443 0.199341C351.399 -2.36914 349.448 -5.97234 349.534 -10.8974C349.577 -13.2471 349.541 -15.5991 349.541 -17.9488V-17.9465ZM353.601 83.5238C353.842 76.8598 353.571 71.2693 354.538 65.7358C355.311 61.3076 357.428 57.7158 360.763 55.1109C370.199 47.7449 380.425 41.6736 390.639 35.6227C395.168 32.9402 396.03 33.6171 397.01 39.0299C397.758 43.1595 397.167 47.2367 396.855 51.3117C396.33 58.1762 395.611 65.027 394.911 71.8756C394.387 76.9738 393.905 82.0812 392.67 87.07C391.574 91.4959 389.024 94.698 385.094 96.4779C377.332 99.9922 369.339 102.857 361.092 104.817C356.268 105.963 354.094 103.75 353.748 98.0551C353.432 92.8428 353.093 87.6421 353.601 83.5238ZM396.453 85.3015C396.962 74.5352 397.838 63.7963 399.509 53.1554C400.503 46.8311 403.016 45.5935 408.409 48.5358C415.537 52.4239 422.326 56.9227 429.052 61.5264C433.782 64.7649 436.982 69.0176 437.521 75.1939C438.006 80.7365 439.009 86.229 438.952 91.8264C438.925 94.6615 437.828 96.8905 435.42 98.0984C429.879 100.877 424.23 103.361 418.173 104.689C415.674 105.239 413.472 104.366 411.314 103.372C408.054 101.872 404.954 100.029 401.834 98.2283C398.174 96.1156 396.227 93.073 396.443 88.6061C396.496 87.5076 396.45 86.4045 396.45 85.3015H396.453ZM419.64 0.810135C419.315 5.21782 416.681 8.3333 412.574 9.20616C410.802 9.58221 409.671 8.60677 408.7 7.21883C405.127 2.11603 402.414 -3.52917 399.468 -9.02626C397.176 -13.3063 394.917 -17.6092 392.945 -22.0784C390.735 -27.0969 391.319 -31.5296 394.706 -35.755C399.928 -42.2731 405.477 -48.4607 411.225 -54.4637C412.84 -56.1502 414.632 -56.6266 416.756 -55.7924C418.946 -54.9309 419.09 -52.9117 419.26 -50.913C419.986 -42.4896 419.533 -34.0343 420.009 -23.3592C420.09 -16.7955 420.286 -7.9893 419.638 0.807846L419.64 0.810135ZM406.089 -53.0234C401.731 -47.2802 396.912 -41.9631 391.954 -36.7965C388.647 -33.3506 384.642 -32.0698 380.059 -33.1409C372.849 -34.8251 365.659 -36.6324 358.654 -39.0893C353.203 -41.0014 352.495 -42.3665 352.509 -49.3063C352.022 -53.9327 353.876 -58.1809 358.047 -61.4946C362.441 -64.9884 366.633 -68.7602 371.152 -72.0877C374.798 -74.7724 378.603 -75.4766 382.802 -73.6625C390.435 -70.367 397.701 -66.308 404.752 -61.8433C408.461 -59.4959 408.803 -56.6015 406.087 -53.0234H406.089ZM375.997 -87.5852C375.451 -81.3247 372.462 -76.5934 367.7 -72.9378C364.09 -70.1687 360.569 -67.2743 357.008 -64.4323C353.339 -61.5037 349.452 -60.9271 345.229 -63.0717C339.695 -65.8818 334.148 -68.6714 328.951 -72.1355C324.841 -74.8772 323.801 -77.6235 325.325 -82.4505C327.854 -90.4682 330.77 -98.3378 334.296 -105.945C336.504 -110.711 340.077 -113.571 344.962 -114.669C353.289 -116.541 361.695 -117.922 370.17 -118.706C375.851 -119.232 377.807 -116.723 377.727 -108.391C377.227 -102.353 376.64 -94.9671 375.997 -87.5852ZM331.659 -67.0737C335.005 -64.9565 338.499 -63.0786 342.008 -61.2667C347.105 -58.6344 350.639 -55.1292 349.188 -49.1285C349.479 -43.2052 348.642 -38.0933 347.157 -33.0748C346.348 -30.34 345.076 -29.2415 342.329 -29.0546C337.002 -28.6945 331.744 -29.5514 326.476 -30.1098C319.544 -30.8459 312.62 -31.7256 305.711 -32.6737C303.37 -32.9951 301.048 -33.5922 298.778 -34.2827C295.81 -35.183 293.643 -37.2204 292.365 -40.1946C290.143 -45.3589 288.475 -50.7352 287.029 -56.189C286.071 -59.799 286.872 -62.8438 289.704 -65.2505C291.985 -67.1877 294.218 -69.1864 296.461 -71.176C299.092 -73.5098 302.085 -74.3325 305.545 -74.4009C314.956 -74.5878 323.606 -72.1743 331.664 -67.076L331.659 -67.0737ZM294.073 -73.5257C291.391 -70.7157 288.428 -68.2725 285.396 -65.9228C282.319 -63.5389 278.636 -63.3338 275.013 -63.1196C272.787 -62.9874 270.549 -63.0945 267.683 -63.0945C265.124 -63.3224 261.863 -62.5339 258.738 -63.5275C253.895 -65.0659 250.709 -68.897 247.714 -72.8853C246.999 -73.8357 247.109 -75.1439 247.307 -76.3062C247.525 -77.6007 247.716 -78.9522 248.223 -80.1327C252.394 -89.8324 256.688 -99.4682 261.981 -108.568C264.34 -112.623 267.69 -114.027 272.134 -113.261C276.464 -112.516 280.806 -111.864 285.089 -110.834C288.989 -109.897 291.828 -107.805 292.826 -103.47C294.53 -96.0587 296.243 -88.6518 296.888 -81.0284C297.143 -78.0246 296.072 -75.6202 294.075 -73.528L294.073 -73.5257ZM252.952 -62.2649C254.319 -60.7494 254.275 -59.0652 253.72 -57.1485C252.174 -51.8109 249.131 -47.4488 245.803 -43.2622C238.548 -34.1369 231.643 -24.697 223.746 -16.1529C223.455 -15.8361 223.157 -15.5261 222.854 -15.2207C219.231 -11.5401 217.419 -11.4967 213.773 -15.0407C212.595 -16.187 211.467 -17.3904 210.295 -18.5481C206.592 -22.2106 204.329 -26.4929 204.787 -32.072C205.483 -39.9576 206.154 -47.8454 206.881 -55.7263C207.354 -60.8337 207.666 -65.9661 208.746 -70.9914C210.138 -77.4753 216.939 -81.9674 222.98 -80.0279C229.448 -77.9494 235.878 -75.5997 241.85 -72.2358C246.174 -69.8018 249.583 -66.0049 252.952 -62.2672V-62.2649ZM216.484 -87.5807C216.331 -85.1808 215.303 -83.5217 213.484 -82.0995C209.324 -78.8496 204.723 -77.4138 199.571 -77.6212C196.712 -77.7352 193.847 -77.6417 190.324 -77.6417C185.895 -77.6873 180.808 -77.5665 175.718 -78.0406C170.707 -78.5078 168.692 -80.5794 168.801 -85.8919C168.969 -94.0623 170.111 -102.123 171.735 -110.086C173.12 -116.88 175.736 -118.968 183.439 -119.565C189.837 -120.062 196.255 -120.228 202.667 -120.52C204.414 -120.6 206.138 -120.372 207.875 -120.16C211.457 -119.724 213.593 -117.762 214.375 -114.07C215.151 -110.408 215.472 -106.677 215.786 -102.957C216.218 -97.8455 216.814 -92.7382 216.484 -87.5761V-87.5807ZM173.775 -75.0368C177.391 -75.2601 181.031 -75.0846 183.237 -75.0846C189.177 -74.5217 193.747 -75.1462 198.236 -74.2778C202.858 -73.3844 204.505 -71.2535 204.666 -66.2829C204.825 -61.3488 204.245 -56.4556 203.788 -51.5671C203.235 -45.6575 202.74 -39.7342 201.739 -33.8793C201.491 -32.4253 201.048 -31.0328 200.411 -29.7178C199.444 -27.7259 197.891 -26.559 195.762 -26.477C188.977 -26.2103 182.247 -26.8918 175.554 -27.9697C172.913 -28.3959 171.182 -30.2739 169.561 -32.4207C164.973 -38.499 162.935 -45.5823 161.855 -53.0804C161.166 -57.8618 159.933 -62.5475 159.66 -67.4088C159.528 -69.7721 160.497 -71.1533 162.278 -72.4546C165.815 -75.0322 169.85 -74.7975 173.775 -75.039V-75.0368ZM159.865 -46.9862C160.088 -43.4309 158.471 -40.7917 155.823 -39.0049C146.582 -32.7694 136.75 -27.6963 126.645 -23.2225C123.108 -21.6568 119.977 -22.3382 117.502 -25.6497C114.006 -30.3286 110.481 -35.0075 107.822 -40.2652C105.366 -45.1242 104.872 -50.6258 104.069 -55.9748C103.828 -57.5815 104.404 -59.2817 105.636 -60.371C112.346 -66.3103 119.713 -71.1738 127.869 -74.5696C131.182 -75.9484 134.642 -74.7769 137.981 -74.1046C141.74 -73.348 145.461 -72.3748 149.2 -71.4974C153.408 -70.5083 156.087 -67.9489 157.047 -63.3999C158.193 -57.9621 159.378 -52.5379 159.869 -46.9839L159.865 -46.9862ZM108.798 -33.0748C116.638 -24.084 121.532 -13.5502 123.768 -1.60338C124.239 0.912689 124.882 3.3923 125.335 5.91064C125.951 9.32924 124.65 11.3827 121.45 12.3171C117.113 13.5819 112.626 13.5728 108.197 13.9945C102.789 14.5095 97.3508 14.685 92.2152 14.9881C84.3867 14.9904 78.5779 10.1337 76.9017 2.42827C76.5332 0.74176 77.0518 -0.757858 77.7614 -2.21645C79.6491 -6.10907 82.3056 -9.42509 84.9576 -12.7366C90.166 -19.2455 94.849 -26.224 100.64 -32.2111C101.088 -32.6737 101.522 -33.1569 102.004 -33.5762C104.774 -35.9852 106.389 -35.8416 108.8 -33.0748H108.798ZM100.107 -35.8165C92.8998 -25.9984 85.7104 -16.1574 77.6295 -7.09363C76.8198 -6.18657 75.9009 -5.38661 74.998 -4.57756C73.3263 -3.07794 71.4181 -2.75432 69.3097 -3.33775C67.4038 -3.86421 65.6502 -4.769 63.8784 -5.62592C59.7732 -7.61098 58.7406 -9.74188 59.2728 -14.5894C59.8005 -19.4096 60.7693 -24.1387 61.7633 -28.8631C63.7966 -38.5309 65.8549 -48.1918 67.9223 -57.8504C68.1975 -59.1358 68.5433 -60.4098 68.9344 -61.6633C70.2581 -65.9251 70.8586 -66.3627 75.0685 -66.3148C79.4763 -66.251 83.5111 -64.5166 87.6232 -63.1583C90.6163 -62.1715 93.5753 -61.0616 96.5229 -59.9312C98.4471 -59.1951 99.889 -57.8048 100.603 -55.7651C101.765 -52.4491 102.379 -48.9849 102.828 -45.4911C103.294 -41.8515 102.163 -38.6152 100.107 -35.812V-35.8165ZM61.322 -2.88876C64.2992 -1.81078 67.1422 -0.416 69.942 1.07678C71.3794 1.84253 72.5712 2.94789 73.556 4.34723C75.719 7.41939 77.6295 10.6648 79.5923 13.8759C80.941 16.0844 81.007 18.4751 80.2905 20.8635C79.0464 24.9977 77.4361 28.9883 75.5711 32.8559C74.3543 35.3788 72.4188 37.2157 69.9898 38.2937C62.4046 41.6599 54.6512 44.5429 46.7067 46.8379C45.7765 47.1068 44.7917 47.1729 43.8319 47.3324C41.8554 47.4487 40.3066 46.651 38.9533 45.1901C34.309 40.1762 30.1628 34.7566 26.7079 28.765C24.636 25.1709 24.6974 23.742 27.5108 20.5171C31.4319 16.0251 35.8465 12.0595 40.1223 7.95268C43.8342 4.39053 47.5255 0.821518 51.8946 -1.89738C54.9492 -3.79811 58.0264 -4.07843 61.3197 -2.88649L61.322 -2.88876ZM44.0798 0.238083C38.2096 6.08614 32.5145 12.1461 26.012 17.2626C22.5344 19.9975 18.7862 20.4761 14.7287 19.2431C9.5021 17.6546 4.43474 15.5716 -0.725876 13.7802C-6.10711 11.9137 -8.39743 8.09171 -8.3019 2.35077C-8.27461 0.734924 -8.29735 -0.88092 -8.29735 -2.49904C-9.07065 -10.4689 -6.54379 -17.3562 -2.1451 -23.6828C1.22783 -28.535 4.02989 -33.8201 7.885 -38.3121C10.6348 -41.5187 12.9933 -41.954 16.5732 -39.7616C20.7172 -37.2227 23.9627 -33.5215 27.4949 -30.2123C32.8602 -25.1825 38.0026 -19.8882 42.9676 -14.4162C44.8872 -12.299 46.759 -10.1065 47.1139 -6.95915C47.4573 -3.8961 45.9152 -1.58743 44.0821 0.238083H44.0798ZM-8.30417 27.0853C-8.25869 24.7356 -7.97211 22.395 -7.31709 20.1388C-6.69845 18.0056 -5.40204 16.7521 -3.75765 16.9185C-3.00255 16.9663 -2.85926 16.955 -2.72507 16.9869C5.31266 18.9537 13.2139 21.4378 20.376 25.8091C23.6944 27.8351 25.4229 31.6115 27.0423 35.2238C27.8474 37.0197 26.9991 38.5809 26.0302 39.9164C24.5518 41.9539 22.9802 43.9458 21.2653 45.7645C14.2829 53.1668 7.26637 60.5373 -0.202763 67.4063C-1.31494 68.4296 -2.49081 69.3435 -3.82816 69.9931C-5.68407 70.891 -6.68253 70.4717 -7.37167 68.4137C-8.02442 66.4628 -8.27006 64.414 -8.30645 62.3537C-8.52024 50.5983 -8.52707 38.843 -8.30417 27.0876V27.0853ZM-8.35649 94.3151C-7.91525 90.9923 -6.76668 90.2675 -3.86227 91.66C-3.54613 91.8127 -3.22544 91.9677 -2.93659 92.1683C4.70767 97.4329 12.2109 102.909 19.2252 109.081C21.9317 111.463 21.6997 112.281 19.1228 114.79C15.7635 118.063 11.5058 118.56 7.37099 119.444C4.03217 120.157 0.647861 120.659 -2.7228 121.192C-6.2049 121.744 -7.89251 120.255 -8.34284 116.509C-8.79999 112.707 -8.74086 108.894 -8.72949 105.081C-8.70674 101.49 -8.83638 97.8978 -8.35876 94.3151H-8.35649ZM20.6194 106.235C13.4459 102.187 6.79784 97.3007 0.877577 91.4549C-4.79705 85.853 -5.17688 80.2101 -0.919199 73.2817C3.22021 66.5449 8.9244 61.2939 14.2874 55.7353C17.7172 52.18 21.2471 48.7204 24.8748 45.3884C29.4236 41.2086 31.234 41.5368 35.2733 46.2727C38.2346 49.7437 39.6038 53.6477 39.647 58.2879C39.6993 63.6482 40.1246 69.004 39.9813 73.2954C39.9677 81.2014 40.1178 88.0386 39.1762 94.8256C38.81 97.4739 37.6342 99.7028 35.6236 101.355C33.8086 102.846 31.9231 104.24 30.0649 105.672C27.0354 108.003 23.8581 108.065 20.6216 106.237L20.6194 106.235ZM31.6639 109.692C34.1361 107.657 36.572 105.58 39.2945 103.896C41.7986 102.346 44.5392 102.009 47.4937 101.768C54.558 102.406 61.7837 103.03 69.0027 103.723C71.9162 104.003 74.8183 104.425 77.7227 104.792C83.9227 105.578 88.7376 109.165 93.1659 113.427C95.2106 115.394 95.7064 117.851 94.6738 120.659C93.3683 124.203 91.3509 127.275 89.1334 130.21C84.9212 135.789 80.6362 141.307 75.9441 146.453C75.0321 147.454 74.0041 148.356 72.9442 149.186C70.224 151.312 67.1604 151.709 63.9967 150.674C56.6641 148.274 49.4519 145.514 42.5651 141.906C39.1785 140.133 36.8563 137.296 35.4325 133.597C33.2332 127.879 31.0475 122.161 29.6169 116.16C28.9937 113.541 29.6328 111.358 31.6616 109.687L31.6639 109.692ZM104.754 125.488C103.505 120.31 104.986 116.408 109.341 113.824C117.502 108.981 126.101 105.15 135.16 102.536C137.287 101.923 139.475 102.408 141.59 102.233C146.874 101.351 151.202 103.181 154.904 107.096C156.87 109.175 159.105 110.966 161.1 113.015C164.098 116.091 164.343 118.127 162.292 122.044C159.249 127.851 155.048 132.854 151.754 138.46C145.32 149.411 135.22 154.995 124.573 159.856C121.059 161.461 118.537 160.583 116.786 157.087C111.736 147.002 107.429 136.566 104.756 125.486L104.754 125.488ZM151.882 142.991C155.955 136.049 160.481 129.44 165.349 123.09C167.703 120.018 169.695 119.389 173.241 120.483C173.575 120.586 173.905 120.713 174.244 120.793C179.716 122.065 183.203 125.481 184.754 131.206C185.4 133.597 186.407 135.883 187.31 138.189C188.502 141.227 189.148 144.345 188.87 147.656C188.222 157.174 186.578 166.545 185.02 175.935C184.34 180.037 180.366 182.282 176.73 178.968C168.605 171.564 160.538 164.097 153.055 155.975C149.228 151.82 148.993 147.905 151.88 142.991H151.882ZM187.026 127.088C186.08 124.203 186.726 121.771 188.559 119.537C190.349 117.356 192.428 115.503 194.522 113.676C199.251 109.548 204.07 105.535 208.755 101.357C212.654 97.8818 217.269 96.1384 222.065 94.698C224.49 93.971 226.814 94.3151 229.011 95.3362C237.065 99.0738 244.971 103.133 252.506 107.932C255.906 110.098 256.277 112.623 253.882 116.023C251.371 119.588 248.205 122.489 245.119 125.47C240.285 130.14 235.577 134.942 230.44 139.267C226.08 142.939 221.342 144.926 217.617 144.434C209.59 144.01 203.461 143.757 197.399 142.588C194.263 141.984 192.084 140.186 190.779 137.134C189.373 133.848 188.143 130.495 187.026 127.088ZM233.965 140.651C242.139 131.79 250.841 123.53 259.818 115.583C262.099 113.564 264.726 113.341 267.515 113.844C269.755 114.248 270.756 115.886 271.347 117.997C272.809 123.229 273.398 128.635 274.16 133.996C274.952 139.575 275.907 145.145 275.98 152.196C275.416 159.929 273.824 168.854 271.688 177.676C270.74 181.589 268.281 183.882 264.576 184.949C260.202 186.207 255.822 187.412 251.353 188.219C248.18 188.791 245.555 187.841 243.697 184.96C243.072 183.989 242.401 183.034 241.898 181.993C237.827 173.54 234.172 164.891 230.933 156.043C228.8 150.211 229.878 145.081 233.967 140.648L233.965 140.651ZM273.69 100.32C273.132 94.306 273.419 88.2893 273.28 82.2749C273.444 75.6087 272.88 68.9128 274.092 62.2921C274.608 59.4821 275.718 56.9956 277.668 54.9718C280.001 52.5492 282.312 50.0969 284.72 47.7609C287.118 45.434 289.899 44.7662 293.047 45.9627C298.037 47.8612 302.934 49.9853 307.619 52.613C310.592 54.2813 311.899 57.1119 312.348 60.478C312.677 62.9508 312.875 65.4304 312.8 67.9351C312.575 75.4879 313.187 83.0543 312.407 90.6026C311.945 95.0649 310.057 98.4493 306.05 100.165C298.285 103.491 290.234 105.916 282.009 107.522C276.526 108.593 274.238 106.21 273.692 100.318L273.69 100.32ZM282.057 111.522C290.984 108.108 300.129 105.441 309.398 103.256C310.676 102.955 312.036 103.03 313.357 102.93C315.675 102.955 317.952 103.244 320.194 103.86C325.73 105.382 331.275 106.889 336.572 109.213C340.448 110.916 341.237 112.862 339.761 117.033C339.372 118.131 338.906 119.209 338.38 120.242C334.129 128.606 329.46 136.706 324.522 144.643C321.331 149.774 316.871 152.297 311.14 152.139C303.33 151.925 295.522 151.444 287.775 150.337C282.43 149.571 279.978 147.15 278.852 141.608C277.483 134.857 276.471 128.038 276.107 121.135C275.832 115.909 277.34 113.327 282.055 111.522H282.057ZM326.772 148.149C330.65 139.908 335.048 131.99 340.098 124.481C341.069 123.036 342.238 121.759 343.532 120.638C346.468 118.086 349.282 118.304 351.811 121.269C354.324 124.212 355.927 127.756 357.299 131.357C362.025 143.766 366.053 156.435 369.69 169.244C370.338 171.525 370.288 173.886 370.338 176.236C370.19 184.96 369.615 185.783 361.636 188.121C356.532 189.616 351.435 191.138 346.207 192.107C341.931 192.898 339.119 191.834 337.041 187.793C332.587 179.13 328.653 170.192 325.803 160.795C324.516 156.547 324.845 152.242 326.772 148.151V148.149ZM369.485 157.591C365.416 148.224 362.607 138.351 359.569 128.578C358.57 125.367 357.697 122.12 357.231 118.763C356.648 114.567 358.031 111.385 361.62 109.421C367.788 106.041 374.552 104.361 381.107 102.087C384.751 100.822 388.397 99.5341 392.293 99.4544C393.767 99.4567 395.249 99.5091 396.623 100.104C401.604 102.258 406.396 104.81 410.89 107.942C412.517 109.074 413.613 110.736 414.031 112.739C415.071 117.703 415.385 122.762 415.351 127.824C415.326 131.678 413.26 134.581 410.749 137.161C405.041 143.028 398.6 147.975 392.413 153.24C389.104 156.057 385.783 158.872 382.21 161.326C375.694 165.807 372.731 165.066 369.483 157.591H369.485ZM379.718 167.897C388.847 159.811 398.036 151.802 407.679 144.397C409.373 143.096 411.134 141.909 413.056 141.006C416.056 139.595 418.849 139.816 421.496 141.997C424.833 144.744 427.357 148.279 430.061 151.629C433.405 155.768 436.591 160.045 439.91 164.209C443.974 169.307 444.956 175.347 444.934 181.73C444.927 184.071 443.603 185.302 441.759 186.17C438.042 187.92 434.098 188.873 430.168 189.885C419.065 192.738 407.934 195.453 396.714 197.791C390.701 199.044 385.547 197.966 381.059 193.522C379.995 192.467 378.876 191.457 377.698 190.546C374.693 188.221 373.022 185.322 373.938 181.17C373.131 175.509 375.767 171.397 379.713 167.901L379.718 167.897ZM442.298 161.49C434.99 153.88 428.633 145.402 422.435 136.806C419.122 132.209 418.628 126.643 418.325 121.117C418.18 118.482 418.246 115.834 418.264 113.19C418.278 111.367 419.033 109.733 420.498 108.931C427.999 104.822 435.734 101.382 442.894 100.633C449.069 101.011 453.774 101.629 458.4 102.732C462.351 103.673 463.429 105.168 463.256 109.382C463.004 115.497 461.405 121.386 460.325 127.361C459.685 130.892 458.855 134.385 458.253 137.923C456.806 146.435 453.053 153.837 448.42 160.816C446.419 163.831 444.768 164.056 442.302 161.49H442.298ZM461.428 136.706C462.619 126.213 464.948 115.936 467.368 105.692C468.315 101.69 472.995 100.66 475.959 101.549C484.545 104.12 492.955 107.249 501.271 110.665C501.853 110.904 502.401 111.239 502.954 111.549C506.693 113.637 507.689 115.435 507.175 119.909C506.697 124.055 505.899 128.148 504.955 132.214C503.963 136.487 501.38 138.83 497.443 139.844C491.072 141.485 484.57 142.296 478.101 143.331C474.935 143.837 471.765 144.365 469.404 144.336C462.312 144.712 460.693 143.178 461.428 136.703V136.706ZM510.834 117.258C511.642 113.607 516.448 110.984 520.623 111.568C521.59 111.702 522.552 111.916 523.523 111.996C527.46 112.317 530.428 114.195 532.794 117.582C536.933 123.505 541.093 129.403 544.753 135.671C546.727 139.051 547.329 141.941 547.177 147.579C546.799 154.984 544.721 163.238 543.099 171.577C542.303 175.675 541.609 179.812 540.254 183.759C538.48 188.93 536.219 190.149 531.229 188.545C526.021 186.87 520.969 184.739 515.909 182.617C510.809 180.482 508.419 176.534 508.014 171.003C507.409 162.73 506.902 154.448 506.725 146.15C506.513 136.277 508.728 126.767 510.83 117.258H510.834ZM546.947 132.624C543.431 127.872 540.088 122.99 537.07 117.869C536.631 117.124 536.235 116.335 535.917 115.526C534.848 112.814 535.243 111.431 537.522 109.674C537.69 109.544 537.857 109.4 538.041 109.304C545.867 105.257 553.757 101.289 562.256 99.1125C567.426 97.7884 572.657 99.0237 577.738 100.364C579.653 100.87 581.184 102.251 582.398 103.94C587.846 111.511 592.542 119.574 596.597 128.05C597.032 128.959 597.364 129.948 597.591 130.94C598.326 134.137 597.287 136.149 594.38 137.401C591.885 138.474 589.228 138.659 586.597 138.912C583.961 139.165 581.311 139.292 578.664 139.367C576.014 139.443 573.362 139.383 569.466 139.383C566.534 139.228 562.359 139.55 558.174 139.055C553.527 138.506 549.799 136.48 546.945 132.621L546.947 132.624ZM586.715 102.985C586.388 102.262 586.144 101.476 585.992 100.692C585.837 99.9079 585.844 99.0874 585.819 98.7616C585.799 96.7947 585.971 95.327 586.565 93.9778C589.538 87.2409 592.993 80.7821 596.825 74.5535C598.099 72.4841 599.902 70.9958 602.033 69.9133C605.242 68.2815 608.554 66.9369 611.92 65.713C615.414 64.4436 618.25 65.4418 620.524 68.3225C622.528 70.8614 624.511 73.4344 626.313 76.1374C631.398 83.7722 636.556 91.3615 641.067 99.3997C641.562 100.282 642.015 101.205 642.363 102.157C643.587 105.501 643.211 107.262 640.537 109.521C635.199 114.031 629.492 118.006 623.722 121.867C619.075 124.978 614.574 128.355 609.603 130.903C606.412 132.539 604.196 132.202 602.045 129.187C596.172 120.957 590.93 112.297 586.713 102.982L586.715 102.985ZM606.637 137.804C612.12 133.494 617.827 129.549 624.056 126.509C624.611 126.238 625.264 126.185 625.639 126.09C628.237 126.313 630.111 127.525 631.742 129.219C636.782 134.452 640.928 140.461 645.126 146.417C650.987 154.735 656.801 163.09 662.598 171.457C663.872 173.293 664.993 175.242 665.764 177.396C666.456 179.328 665.958 180.796 664.425 182.025C660.968 184.798 658.871 185.031 655.043 182.594C645.772 176.694 637.268 169.629 628.521 162.94C622.419 158.274 616.58 153.261 611.013 147.902C609.207 146.166 607.442 144.381 606.17 142.152C605.286 140.6 605.149 138.973 606.641 137.802L606.637 137.804ZM682.324 100.161C682.154 102.381 680.675 103.595 678.628 104.092C675.728 104.796 672.792 104.427 669.872 104.512C665.396 104.874 660.954 104.167 656.494 104.013C650.085 103.789 645.654 99.8191 642.122 94.5955C636.866 86.8239 631.639 79.0318 626.772 70.9708C622.694 64.2202 622.041 57.4059 625.073 50.0536C628.323 42.1749 631.462 34.2438 635.692 26.8779C639.547 20.1661 642.395 19.8676 647.537 25.3943C650.585 28.6716 653.003 32.4571 655.268 36.3269C663.569 50.5117 671.8 64.7376 679.379 79.3759C682.802 85.9875 682.872 93.0092 682.322 100.159L682.324 100.161ZM682.461 -17.4747C681.926 -12.1235 679.913 -7.80696 675.339 -5.2795C665.575 0.119583 655.509 4.81898 644.983 8.35606C643.7 8.78682 642.386 8.86203 641.053 8.80962C637.468 8.66832 635.124 6.25023 635.321 2.50575C635.667 -4.02831 637.125 -10.3937 638.308 -16.791C639.768 -24.7016 641.048 -32.6578 643.25 -40.402C644.465 -44.6707 646.641 -48.2533 649.812 -51.1933C653.109 -54.2495 656.319 -57.4037 659.835 -60.1978C662.555 -62.3584 665.539 -62.739 668.753 -62.0348C671.07 -61.5265 673.406 -61.0776 675.692 -60.444C680.673 -59.0629 681.847 -57.2829 682.445 -51.8086C683.068 -46.0859 682.629 -40.3633 682.863 -34.6474C682.64 -28.927 683.034 -23.2043 682.461 -17.477V-17.4747ZM640.944 -132.754C642.176 -132.444 643.307 -131.847 644.355 -131.108C654.986 -123.64 665.309 -115.734 675.169 -107.165C680.118 -102.862 682.597 -97.392 682.451 -90.605C682.386 -87.5214 682.44 -84.4333 682.44 -81.3475C682.495 -76.7985 682.79 -72.2267 682.074 -67.7142C681.578 -64.5896 680.341 -63.76 677.409 -64.2272C668.985 -65.5627 660.993 -68.1905 653.548 -72.6574C648.638 -75.6042 643.63 -78.371 638.617 -81.1173C633.195 -84.0869 630.463 -88.5447 630.686 -95.1334C630.943 -102.759 630.356 -110.426 631.598 -117.999C632.422 -123.02 634.905 -127.321 637.396 -131.578C638.192 -132.936 639.556 -133.105 640.944 -132.758V-132.754ZM554.15 -144.263C554.658 -148.27 556.397 -150.086 560.337 -150.941C563.073 -151.535 565.864 -151.807 568.647 -151.829C577.09 -151.9 585.533 -151.855 593.975 -151.855C602.347 -151.855 610.724 -151.959 619.094 -151.809C623.194 -151.734 627.322 -151.488 631.344 -150.498C634.632 -149.689 635.349 -148.55 635.615 -145.001C636.254 -136.455 632.117 -129.816 627.868 -123.227C627.12 -122.07 625.839 -121.37 624.591 -120.93C617.708 -118.503 610.724 -116.452 603.487 -115.604C599.893 -115.182 596.402 -116.089 592.983 -117.154C582.019 -120.568 571.047 -123.97 560.366 -128.31C559.266 -128.756 558.19 -129.31 557.164 -129.928C554.817 -131.341 553.502 -133.335 553.561 -136.368C553.611 -139.021 553.814 -141.651 554.146 -144.263H554.15ZM554.337 -105.763C556.363 -97.0706 558.663 -88.4444 560.223 -79.6336C560.362 -78.8428 560.43 -78.0383 560.53 -77.2406C560.612 -74.9957 559.759 -73.2637 558.165 -71.8256C555.347 -69.2867 552.435 -66.9074 549.101 -65.1411C544.489 -62.698 539.888 -60.2252 535.309 -57.7137C531.832 -55.8084 528.406 -55.6716 524.94 -57.7296C519.002 -61.2576 512.699 -64.1497 507.839 -69.4781C505.954 -71.5452 505.449 -73.6215 506.161 -76.2652C507.346 -80.6706 509.249 -84.7683 511.007 -88.923C513.7 -95.2953 516.15 -101.791 519.443 -107.869C521.165 -111.048 523.348 -113.794 526.403 -115.629C531.438 -118.653 536.599 -121.438 542.051 -123.533C546.363 -125.19 548.344 -124.273 550.243 -119.857C552.178 -115.353 553.225 -110.538 554.339 -105.763H554.337ZM472.361 -151.068C474.073 -151.392 475.8 -151.761 477.528 -151.818C487.435 -152.149 497.345 -152.515 506.383 -152.249C517.105 -152.381 526.949 -152.342 536.783 -151.829C539.492 -151.688 542.21 -151.358 544.88 -150.859C548.401 -150.2 549.824 -147.944 549.408 -144.204C549.165 -142.018 548.926 -139.83 548.74 -137.638C548.369 -133.305 546.515 -129.985 542.862 -127.831C537.374 -124.597 531.72 -121.725 525.82 -119.43C522.573 -118.168 519.259 -118.316 515.952 -119.36C512.256 -120.527 508.797 -122.282 505.349 -124.05C495.498 -129.098 485.63 -134.105 476.07 -139.755C473.075 -141.526 470.81 -143.809 470.339 -147.638C470.116 -149.462 470.537 -150.724 472.361 -151.068ZM475.552 -136.213C477.462 -135.755 479.295 -135.04 481.067 -134.174C489.987 -129.814 498.81 -125.247 507.434 -120.265C509.333 -119.168 511.105 -117.897 512.763 -116.404C515.606 -113.842 516.352 -110.604 515.272 -107.055C512.477 -97.8752 508.701 -89.1213 504.241 -80.7116C502.092 -76.6594 498.76 -75.2783 494.318 -76.2105C488.711 -77.3865 483.162 -78.763 477.644 -80.3105C472.897 -81.6415 469.902 -84.5586 469.086 -89.9076C468.135 -96.1248 466.809 -102.281 466.404 -108.808C467.127 -116.707 467.932 -124.798 469.861 -132.701C470.641 -135.899 472.497 -136.947 475.554 -136.216L475.552 -136.213ZM391.456 -148.235C392.088 -150.175 394.099 -150.535 395.802 -150.877C398.886 -151.494 402.023 -151.825 405.159 -151.834C421.28 -151.877 437.401 -151.893 453.522 -151.807C456.363 -151.791 459.228 -151.579 462.046 -150.995C464.134 -150.565 465.321 -149.311 465.879 -147.162C466.834 -143.47 466.818 -139.778 466.233 -136.038C465.34 -130.322 464.703 -124.551 463.575 -118.888C462.278 -112.384 459.938 -110.713 453.545 -110.214C448.525 -109.822 443.508 -109.879 437.46 -109.77C435.834 -109.77 433.182 -109.804 430.532 -109.763C424.53 -109.672 419.153 -111.502 414.316 -115.267C407.411 -120.638 400.713 -126.277 394.046 -131.972C388.936 -136.339 389.381 -141.879 391.456 -148.235ZM389.791 -130.755C391.208 -129.973 392.613 -129.13 393.91 -128.148C399.575 -123.859 404.891 -119.082 410.502 -114.729C417.366 -109.403 420.718 -102.16 422.146 -93.6019C423.461 -85.7278 424.873 -77.8719 426.222 -70.0046C426.356 -69.2161 426.365 -68.3979 426.395 -67.5911C426.588 -62.3721 423.613 -59.7101 418.619 -60.5579C414.163 -61.3146 410.042 -63.1082 405.966 -65.0294C400.108 -67.7916 394.472 -71.0279 388.74 -74.0613C382.012 -77.6258 378.216 -82.6875 379.52 -89.3583C380 -100.154 380.707 -109.286 381.79 -118.389C382.288 -122.587 384.155 -126.188 386.175 -129.718C387.032 -131.215 388.347 -131.548 389.791 -130.75V-130.755ZM308.824 -148.09C308.966 -149.721 310.028 -150.521 311.381 -150.932C313.401 -151.542 315.491 -151.8 317.581 -151.848C327.422 -152.069 337.259 -152.493 347.105 -152.244C356.88 -152.456 366.651 -152.178 376.417 -151.834C378.712 -151.754 381.005 -151.431 383.227 -150.754C385.228 -150.145 386.272 -148.796 386.127 -146.533C385.67 -139.452 383.918 -132.806 380.211 -126.801C378.958 -124.77 377.145 -123.633 374.987 -123.029C368.905 -121.329 362.653 -120.62 356.462 -119.579C352.336 -118.883 348.165 -118.482 344.005 -118.006C338.985 -117.432 334.58 -118.831 330.629 -121.88C324.265 -126.792 318.238 -132.15 312.236 -137.54C309.038 -140.411 308.47 -144.044 308.822 -148.087L308.824 -148.09ZM312.193 -133.506C318.122 -129.208 323.656 -124.362 328.944 -119.221C332.071 -116.181 332.949 -112.37 331.723 -108.145C329.21 -99.4887 325.983 -91.1064 322.209 -82.9884C319.526 -77.2133 318.268 -76.7187 312.077 -77.0811C310.057 -77.1905 308.044 -77.3454 306.029 -77.5665C303.041 -77.8924 301.121 -79.4034 300.134 -82.3548C298.478 -87.2981 297.769 -92.4692 296.793 -97.5743C296.163 -100.877 295.501 -104.172 295.453 -107.586C295.412 -110.595 295.924 -113.441 297.002 -116.176C299.065 -121.406 301.399 -126.507 304.028 -131.446C306.275 -135.669 308.386 -136.266 312.193 -133.506ZM250.268 -151.41C254.78 -152.112 259.318 -151.841 263.846 -151.934C267.542 -152.009 271.242 -151.95 274.94 -151.95V-151.857C281.639 -151.857 288.337 -151.896 295.037 -151.836C297.261 -151.816 299.486 -151.565 301.665 -151.03C303.457 -150.59 304.337 -149.407 304.469 -147.442C304.737 -143.431 304.442 -139.591 302.752 -135.851C300.416 -130.68 298.187 -125.456 295.676 -120.374C292.528 -114.004 290.736 -112.919 283.999 -113.879C279.931 -114.458 275.907 -115.39 271.868 -116.187C266.696 -117.208 262.925 -120.467 259.809 -124.697C255.319 -130.792 251.012 -137.029 247.063 -143.531C246.988 -143.654 246.915 -143.78 246.843 -143.905C244.127 -148.575 245.082 -150.608 250.268 -151.412V-151.41ZM239.296 -149.197C243.82 -144.454 247.045 -138.643 250.875 -133.328C253.063 -130.29 255.067 -127.104 257.061 -123.92C260.016 -119.205 260.762 -114.186 258.599 -108.878C254.969 -99.9673 251.009 -91.2158 246.203 -82.9405C243.172 -77.7192 241.254 -77.1221 235.718 -79.0593C232.746 -80.0985 229.891 -81.507 226.937 -82.6055C222.061 -84.4151 219.841 -88.2644 219.297 -93.3968C218.49 -101.041 217.744 -108.692 217.501 -116.386C217.278 -120.786 218.026 -124.991 219.657 -129.048C222.102 -135.129 224.422 -141.271 227.228 -147.18C229.582 -152.137 235.557 -153.122 239.298 -149.197H239.296ZM155.946 -150.984C160.515 -152.251 165.228 -152.062 169.881 -152.237C175.667 -152.454 181.465 -152.29 187.26 -152.29C195.841 -152.26 204.427 -152.474 213.002 -151.864C215.299 -151.7 217.594 -151.458 219.789 -150.674C222.259 -149.792 223.293 -148.169 222.554 -145.594C220.796 -139.468 218.506 -133.538 215.21 -128.132C212.742 -124.084 208.578 -123.467 204.521 -123.138C197.431 -122.566 190.317 -122.423 183.212 -122.106C175.868 -121.778 170.038 -124.337 165.442 -130.381C161.955 -134.967 158.211 -139.336 154.957 -144.119C154.591 -144.657 154.224 -145.197 153.911 -145.767C152.387 -148.548 152.999 -150.166 155.946 -150.982V-150.984ZM129.663 -146.667C130.462 -150.113 131.569 -150.653 135.031 -151.086C137.423 -151.385 139.759 -151.141 142.12 -150.959C144.495 -150.774 146.396 -149.468 147.92 -147.741C154.193 -140.635 160.099 -133.205 165.505 -125.338C169.003 -120.246 169.167 -114.464 168.549 -108.644C167.657 -100.273 166.538 -91.9245 165.335 -83.59C164.621 -78.6536 161.992 -75.9301 157.738 -74.4282C155.68 -73.7012 153.704 -74.3576 151.75 -74.7109C147.633 -75.4538 143.546 -76.3974 139.468 -77.3546C131.785 -79.1618 129.861 -81.0899 128.847 -89.2945C127.416 -100.858 126.768 -112.507 126.202 -122.195C126.074 -131.876 127.951 -139.27 129.663 -146.67V-146.667ZM125.558 -82.5873C124.989 -79.449 123.484 -77.0104 121.064 -75.1735C116.531 -71.7321 111.739 -68.7215 106.903 -65.7861C103.151 -63.5093 99.234 -62.8461 95.0491 -64.3617C91.9536 -65.483 88.7854 -66.3923 85.7059 -67.5592C81.4959 -69.1545 80.2246 -71.1578 81.0524 -75.8139C82.6695 -84.9051 84.8279 -93.8731 87.7187 -102.618C89.1925 -107.073 92.2766 -110.121 96.1545 -112.295C102.314 -115.747 108.57 -118.991 115.018 -121.81C115.082 -121.837 115.148 -121.862 115.214 -121.89C120.386 -124.032 122.522 -122.942 123.515 -117.197C124.236 -113.024 124.614 -108.771 124.955 -104.539C125.399 -99.0603 125.656 -93.5632 125.995 -88.0729C125.858 -86.2337 125.888 -84.4173 125.558 -82.5873ZM70.8063 -150.71C73.0761 -151.508 75.4506 -151.798 77.816 -151.827C84.0296 -151.907 90.2433 -151.855 96.457 -151.855C104.063 -151.937 111.677 -152.237 119.267 -151.449C119.683 -151.406 120.106 -151.422 120.52 -151.36C125.212 -150.649 126.52 -149.04 125.833 -144.131C125.346 -140.655 124.594 -137.196 123.661 -133.818C122.863 -130.926 121.096 -128.636 118.582 -127.049C111.259 -122.423 103.551 -118.628 95.6177 -115.337C91.5624 -113.655 87.9916 -114.458 85.0099 -117.995C82.8197 -120.593 80.9706 -123.437 79.1761 -126.325C76.2717 -130.999 73.44 -135.723 70.6016 -140.441C69.6281 -142.059 68.8344 -143.778 68.3022 -145.619C67.5311 -148.288 68.2612 -149.819 70.8017 -150.713L70.8063 -150.71ZM48.3102 -138.951C48.3602 -141.788 48.5103 -144.669 49.4019 -147.419C50.1365 -149.685 51.5648 -150.731 53.8711 -151.041C58.247 -151.627 61.5199 -149.913 63.9444 -146.253C70.4469 -136.428 76.8493 -126.534 82.342 -116.023C85.0076 -110.92 85.3351 -105.644 84.1092 -100.031C82.3943 -92.1616 80.5998 -84.3125 78.3687 -76.5933C76.4536 -69.975 76.3194 -69.7995 69.0709 -70.8547C63.5555 -71.6569 58.4881 -74.4921 53.4935 -77.1198C51.226 -78.3118 50.1388 -80.5452 49.5042 -83.0522C48.524 -86.9197 48.4421 -90.9104 48.3284 -94.8463C48.1169 -102.192 48.267 -109.546 48.267 -116.898C48.267 -124.251 48.1828 -131.603 48.3102 -138.951ZM51.6422 -73.0973C54.6216 -72.0512 57.5511 -70.8707 60.3872 -69.4417C64.4152 -67.411 65.1612 -66.1416 65.118 -59.8058C64.9793 -55.4141 63.5418 -49.6504 62.4046 -43.8388C60.9718 -36.5094 59.3774 -29.2164 57.2145 -22.0761C56.7027 -20.3873 56.0363 -18.776 55.1061 -17.2992C53.3093 -14.4481 51.3147 -13.7735 48.2488 -14.9951C45.9243 -15.9227 44.0184 -17.5408 42.1557 -19.2068C33.3242 -27.106 24.7406 -35.2787 17.0167 -44.4063C14.7332 -47.1047 14.0259 -50.129 14.9174 -53.5931C14.9538 -53.7345 15.0107 -53.8735 15.0266 -54.017C15.7999 -61.1801 19.5413 -65.4465 26.1166 -67.5068C31.9186 -69.3232 37.4795 -71.9806 43.3907 -73.4802C46.1654 -74.1844 48.9311 -74.0476 51.6422 -73.0973ZM44.007 -137.086C44.6097 -135.432 44.8849 -133.686 44.9918 -131.924C45.4831 -123.929 45.4808 -115.923 45.4217 -105.991C45.2306 -101.317 45.6742 -94.7095 45.0669 -88.1026C44.5074 -82.0175 42.2989 -77.5323 36.4833 -75.3399C32.0846 -73.6807 27.7132 -71.9532 23.2622 -70.4581C18.6634 -68.9129 14.483 -69.6764 10.5984 -72.6757C6.93885 -75.4994 3.21793 -78.2388 -0.161824 -81.4341C-4.50138 -85.5341 -4.81297 -88.3305 -1.63791 -93.5472C0.82299 -97.5903 3.91617 -101.093 6.98207 -104.61C15.5247 -114.407 24.1856 -124.089 33.1877 -133.426C35.1778 -135.491 37.2225 -137.512 39.7516 -138.846C41.8896 -139.972 43.1518 -139.438 44.0047 -137.091L44.007 -137.086ZM-7.59684 -138.636C-6.64841 -147.88 -4.04422 -150.872 4.80774 -151.296C13.7871 -151.725 22.7982 -152.003 31.7799 -151C38.8191 -150.214 40.1929 -147.292 36.4174 -141.004C33.265 -135.758 29.1597 -131.32 25.1932 -126.789C17.2487 -117.719 9.4134 -108.53 0.679703 -100.268C-0.516631 -99.1355 -1.80622 -98.1281 -3.2823 -97.4239C-4.93351 -96.6353 -6.13212 -97.1162 -6.80762 -98.9007C-7.64687 -101.121 -7.82883 -103.477 -7.86294 -105.82C-7.93572 -110.74 -7.88569 -115.663 -7.88569 -120.586C-7.78789 -126.6 -8.21093 -132.631 -7.59456 -138.638L-7.59684 -138.636ZM-8.65216 -70.5994C-8.64306 -73.0471 -8.56801 -75.5974 -7.80153 -77.9995C-7.02141 -80.4404 -5.83645 -80.9874 -3.65985 -79.7795C-1.24216 -78.4394 0.893497 -76.648 2.99504 -74.8339C6.12007 -72.1378 9.50438 -69.7721 12.3155 -66.6772C13.5846 -65.2801 14.3307 -63.6962 14.2056 -61.6883C13.2094 -56.0682 12.0972 -50.48 9.24737 -45.4729C5.55147 -38.9799 1.29834 -32.8811 -2.79103 -26.6661C-3.22772 -26.0029 -3.69852 -25.3557 -4.21935 -24.7677C-5.0063 -23.8811 -5.69316 -22.3656 -6.96683 -22.7462C-8.36331 -23.1632 -8.24732 -24.8474 -8.33147 -26.1374C-9.27989 -40.9512 -8.71357 -55.7788 -8.65443 -70.5994H-8.65216ZM-8.76133 151.23C-8.8796 148.001 -9.30946 144.787 -9.23441 141.542C-9.06383 137.875 -8.93646 134.203 -8.70902 130.541C-8.46111 126.559 -6.85766 124.428 -3.16631 123.555C0.706997 122.641 4.62806 121.942 8.54685 121.269C9.58625 121.092 10.9009 120.736 11.6651 121.887C12.4156 123.018 11.6764 124.15 11.2215 125.199C9.53167 129.093 7.1572 132.562 4.94875 136.127C1.55762 141.601 -1.69704 147.175 -5.55443 152.315C-6.1253 153.076 -6.72347 154.3 -7.82428 153.926C-8.92736 153.552 -8.72266 152.23 -8.75906 151.23H-8.76133ZM-7.93572 163.375C-7.57182 160.554 -6.70755 157.914 -5.33153 155.528C1.66452 143.415 8.74245 131.357 16.9485 120.084C18.113 118.487 19.6368 117.304 21.1584 116.146C22.6527 115.011 24.0924 115.273 25.1227 116.923C25.8846 118.147 26.6397 119.41 27.1651 120.757C29.8898 127.749 32.8192 134.702 33.8495 142.25C34.3226 145.719 34.2112 149.279 34.3044 151.462C33.9064 162.188 33.8996 171.589 32.8875 180.944C32.2893 186.475 29.8011 189.425 24.6405 189.596C15.7158 189.892 6.77964 189.814 -2.07459 188.328C-6.59838 187.569 -8.23139 185.593 -8.28371 180.753C-8.34739 174.959 -8.68173 169.157 -7.938 163.373L-7.93572 163.375ZM49.0448 214.592C44.562 215.916 39.9222 215.862 35.337 216.076C30.3879 216.308 25.4229 216.128 20.4647 216.128C14.0509 215.969 7.61662 216.554 1.21419 215.727C-0.0299072 215.565 -1.28538 215.431 -2.50446 215.139C-5.9297 214.319 -7.17835 212.557 -7.55362 208.86C-7.93345 205.111 -7.9198 201.396 -7.52406 197.654C-7.20337 194.644 -6.02978 193.19 -3.17995 192.602C-1.80394 192.319 -0.425655 192.157 0.979923 192.194C10.5324 192.433 20.0917 192.467 29.5805 193.901C32.4758 194.338 35.1232 195.455 37.525 197.121C42.2535 200.403 46.7545 204.008 50.7142 208.302C53.6323 211.468 53.1228 213.387 49.0448 214.592ZM56.075 208.363C50.1206 204.339 44.5824 199.746 39.5742 194.5C37.0246 191.831 36.2945 188.237 36.1353 184.568C36.0239 182.002 36.1149 179.424 36.1149 176.851C36.2741 168.56 36.2786 160.255 37.3476 152.012C37.4226 151.433 37.5364 150.854 37.6796 150.289C38.5735 146.747 40.1701 145.514 43.5339 146.483C50.8894 148.598 57.9832 151.522 64.7086 155.309C69.0254 157.741 69.9102 162.313 70.5424 166.908C71.691 175.274 72.0959 183.711 72.6144 192.134C72.8896 196.599 71.5773 200.51 68.0406 203.404C66.1165 204.979 64.3765 206.802 62.3319 208.231C60.2576 209.681 58.2038 209.804 56.0773 208.366L56.075 208.363ZM140.746 215.253C137.296 215.857 133.805 216.033 130.327 216.094C123.627 216.215 116.924 216.128 110.222 216.128C100.453 216.11 90.6754 216.386 80.9205 215.656C76.7561 215.344 72.5553 215.155 68.5023 213.927C64.9315 212.846 64.5494 211.107 67.1763 208.411C71.9457 203.518 77.352 199.783 83.7544 197.622C91.128 195.134 98.4334 192.422 105.777 189.835C112.15 187.592 118.023 188.132 123.511 192.727C129.024 197.342 134.872 201.517 140.221 206.362C141.909 207.892 143.091 209.708 143.109 212.224C143.123 214.029 142.375 214.97 140.749 215.253H140.746ZM138.144 200.74C132.847 196.549 127.537 192.383 122.456 187.898C119.64 185.413 117.991 182.469 118.662 178.674C118.46 176.026 118.914 173.633 119.169 171.231C119.46 168.48 120.652 166.203 122.947 164.683C128.326 161.116 133.91 157.937 139.775 155.357C142.88 153.992 145.982 154.37 148.72 156.479C157.029 162.876 164.402 170.381 171.469 178.209C174.414 181.473 173.964 184.832 170.582 187.69C164.755 192.613 158.539 196.964 152.278 201.244C147.422 204.562 142.805 204.423 138.147 200.736L138.144 200.74ZM221.56 211.454C221.135 213.359 220.309 214.439 218.551 214.914C214.225 216.078 209.802 215.754 205.419 215.841C198.23 215.98 191.036 215.878 183.844 215.878C174.064 216.315 164.293 215.868 154.518 215.684C153.478 215.663 152.441 215.433 151.402 215.326C149.887 215.171 148.445 214.863 147.883 213.097C147.292 211.235 147.447 209.437 148.698 207.915C149.378 207.087 150.16 206.319 150.999 205.674C157.941 200.353 164.964 195.17 172.265 190.384C180.564 184.942 188.845 184.848 197.217 189.851C204.625 194.277 211.924 198.905 218.792 204.238C221.137 206.057 222.279 208.236 221.56 211.454ZM219.968 201.052C217.778 199.922 215.61 198.716 213.536 197.369C207.661 193.55 201.853 189.614 196.037 185.694C190.292 181.822 188.011 176.623 189.093 169.62C189.819 164.916 190.351 160.175 191.163 155.487C192.468 147.941 194.072 146.642 202.681 146.749C206.686 146.979 211.974 147.33 217.218 148.144C221.158 148.757 224.335 150.729 226.307 154.468C231.731 164.765 236.237 175.504 239.947 186.605C240.956 189.625 240.34 192.339 237.806 194.486C235.022 196.843 232.043 198.867 228.977 200.77C226.032 202.598 222.986 202.611 219.968 201.055V201.052ZM294.421 215.217C290.77 215.882 287.068 216.062 283.376 216.101C275.072 216.187 266.766 216.128 256.44 216.128C249.745 215.944 241.016 216.504 232.305 215.716C231.888 215.677 231.465 215.702 231.049 215.659C225.802 215.123 224.23 211.456 227.21 206.739C228.124 205.291 229.425 204.302 230.763 203.37C234.251 200.934 237.775 198.554 241.268 196.125C247.318 191.916 254.389 190.942 261.194 189.128C262.274 188.841 263.382 188.675 264.476 188.445C268.581 187.585 272.354 188.239 275.757 190.972C282.478 196.369 288.783 202.269 294.896 208.402C295.399 208.908 295.835 209.489 296.279 210.055C298.544 212.942 297.98 214.567 294.416 215.217H294.421ZM302.877 210.501C299.049 208.291 295.794 205.282 292.508 202.324C288.635 198.839 284.816 195.295 281.093 191.626C276.489 187.091 274.458 181.84 275.834 175.192C276.74 170.821 277.294 166.372 278.343 162.026C279.692 156.444 280.986 155.182 286.372 154.421C287.404 154.275 288.457 154.286 289.283 154.238C297.023 154.749 304.56 155.004 312.031 156.089C316.637 156.759 320.317 159.063 322.551 163.53C326.588 171.602 330.217 179.878 333.033 188.502C335.005 194.534 334.134 197.078 329.324 200.911C324.811 204.507 320.074 207.744 315.061 210.533C310.969 212.81 306.948 212.849 302.877 210.499V210.501ZM386.345 212.206C386.338 214.253 384.432 214.989 382.692 215.192C379.37 215.581 376.033 216.033 372.696 216.094C365.3 216.229 357.901 216.135 350.503 216.135C341.087 216.062 331.659 216.518 322.255 215.718C321.077 215.618 319.885 215.501 318.745 215.196C317.21 214.786 316.992 213.849 318.102 212.694C318.693 212.078 319.369 211.534 320.058 211.041C326.983 206.11 333.474 200.362 341.408 197.251C349.325 194.149 357.579 192.203 365.869 190.532C368.989 189.903 371.95 190.694 374.548 192.807C377.53 195.232 380.58 197.556 383.327 200.289C386.673 203.618 386.357 208.01 386.343 212.201L386.345 212.206ZM462.886 210.941C462.742 212.967 461.948 214.241 460.086 214.802C456.351 215.93 452.494 216.007 448.673 216.083C441.274 216.233 433.871 216.126 422.858 216.126C417.334 215.928 408.179 216.598 399.052 215.723C398.288 215.65 397.522 215.59 396.766 215.456C391.251 214.485 389.302 211.265 390.664 205.455C391.065 203.746 392.35 203.003 393.66 202.299C396.673 200.681 399.953 199.922 403.205 199.092C415.066 196.066 426.945 193.133 438.918 190.614C444.918 189.352 450.281 190.07 454.927 194.518C455.184 194.764 455.464 195.004 455.771 195.17C461.973 198.516 463.361 204.229 462.888 210.937L462.886 210.941ZM459.092 193.545C456.961 191.767 454.755 190.09 452.582 188.367C450.765 186.924 449.694 184.96 449.326 182.647C448.818 179.467 448.42 176.265 448.077 173.061C447.813 170.604 448.225 168.213 449.287 166C451.084 162.265 453.212 158.728 455.275 155.152C458.284 149.935 463.243 148.561 468.417 147.67C477.078 146.177 485.72 144.518 494.486 143.821C500.231 143.365 502.872 145.357 503.54 151.412C504.184 157.251 504.275 163.12 504.8 169.086C504.628 171.094 504.543 173.23 504.245 175.329C503.702 179.142 501.423 181.632 498.291 183.317C489.33 188.137 479.948 191.893 470.496 195.475C466.349 197.048 462.567 196.446 459.092 193.545ZM550.593 213.081C550.441 214.111 549.536 214.581 548.614 214.834C546.993 215.278 545.364 215.615 543.677 215.709C531.402 216.381 519.116 216.046 503.772 216.162C497.34 216.329 487.854 215.946 478.367 215.645C475.879 215.568 473.35 215.381 470.937 214.535C468.951 213.838 467.71 212.546 467.705 210.216C467.705 210.143 467.703 210.068 467.691 209.998C466.488 201.533 468.005 200.248 474.826 197.034C483.546 192.925 492.3 188.868 501.407 185.751C505.733 184.269 510.045 184.267 514.355 185.767C521.711 188.328 528.995 191.102 536.062 194.445C541.448 196.993 545.533 201.399 549.586 205.747C551.508 207.807 550.966 210.547 550.593 213.081ZM550.354 201.061C549.063 199.826 547.739 198.627 546.42 197.424C543.684 194.933 542.774 191.704 543.317 188.08C544.905 177.489 546.736 166.939 549.279 156.554C551.958 145.603 555.053 143.105 565.893 142.825C569.314 142.736 572.737 142.811 576.157 142.811C581.448 142.822 586.777 142.348 592.003 143.673C596.763 144.878 598.262 147.262 597.348 152.285C597.005 154.174 596.381 155.977 595.617 157.707C592.026 165.843 588.005 173.747 583.936 181.626C580.704 187.886 576.126 192.599 570.057 195.838C566.136 197.93 562.32 200.243 558.319 202.169C555.46 203.546 552.774 203.379 550.354 201.061ZM621.873 214.487C621.657 215.442 620.704 215.508 619.992 215.606C618.129 215.864 616.246 216.108 614.37 216.121C606.136 216.176 597.903 216.144 589.67 216.144C589.67 216.146 589.67 216.151 589.67 216.153C582.135 216.153 574.597 216.192 567.062 216.131C564.556 216.11 562.045 215.93 559.552 215.645C557.996 215.467 556.065 215.422 555.556 213.446C554.958 211.13 555.126 208.765 556.764 206.811C557.037 206.486 557.387 206.217 557.737 205.984C563.764 201.994 569.873 198.137 576.517 195.391C579.378 194.208 582.421 194.443 585.351 195.446C592.474 197.88 599.115 201.501 605.891 204.783C609.944 206.748 613.894 208.947 617.881 211.06C618.816 211.554 619.733 212.09 620.617 212.675C621.247 213.093 622.096 213.5 621.871 214.485L621.873 214.487ZM638.838 215.187C633.279 215.736 628.71 213.482 624.131 211.278C613.983 206.397 603.78 201.631 593.955 196.038C592.915 195.446 591.903 194.778 590.946 194.051C586.576 190.724 585.514 187.677 587.523 182.426C590.993 173.348 595.358 164.717 600.403 156.504C603.168 152.003 606.425 151.234 611.065 153.425C615.559 155.544 619.442 158.698 623.399 161.698C632.112 168.307 640.903 174.816 649.107 182.138C650.389 183.283 651.54 184.55 652.582 185.942C654.642 188.698 655.186 191.635 654.017 195.011C652.363 199.781 650.262 204.332 648.292 208.954C646.37 213.464 643.575 216.229 638.838 215.185V215.187ZM682.784 207.68C682.627 212.666 680.723 215.032 675.699 215.449C668.409 216.053 661.065 216.178 653.769 215.285C651.065 214.955 650.289 213.642 651.062 210.827C651.64 208.721 652.439 206.668 653.285 204.658C655.009 200.565 656.821 196.512 658.62 192.453C659.924 189.509 661.952 187.298 664.566 185.536C669.092 182.485 673.661 179.518 678.296 176.657C681.471 174.697 682.552 175.317 682.82 179.283C682.966 181.407 683.134 183.533 683.186 185.66C683.25 188.301 683.202 190.947 683.202 193.454C683.443 198.301 682.931 202.985 682.786 207.682L682.784 207.68Z" fill="url(#paint0_radial_352_234)"/>
</g>
<defs>
<radialGradient id="paint0_radial_352_234" cx="0" cy="0" r="1" gradientUnits="userSpaceOnUse" gradientTransform="translate(336 49.6105) rotate(90) scale(180.841 335.192)">
<stop stop-color="white" stop-opacity="0.1"/>
<stop offset="1" stop-color="white" stop-opacity="0"/>
</radialGradient>
</defs>
</svg>
