<svg width="20" height="21" viewBox="0 0 20 21" fill="none" xmlns="http://www.w3.org/2000/svg">
<g clip-path="url(#clip0_1_295)">
<path d="M14.1667 7.16667H16.6667L19.1667 10.5467V15.5H17.4709C17.3718 16.1952 17.0252 16.8314 16.4948 17.2916C15.9643 17.7518 15.2856 18.0052 14.5834 18.0052C13.8811 18.0052 13.2024 17.7518 12.672 17.2916C12.1415 16.8314 11.7949 16.1952 11.6959 15.5H7.47087C7.37181 16.1952 7.02522 16.8314 6.49477 17.2916C5.96433 17.7518 5.28564 18.0052 4.58337 18.0052C3.88111 18.0052 3.20242 17.7518 2.67198 17.2916C2.14153 16.8314 1.79494 16.1952 1.69587 15.5H0.833374V5.50001C0.833374 5.27899 0.921171 5.06703 1.07745 4.91075C1.23373 4.75447 1.44569 4.66667 1.66671 4.66667H13.3334C13.5544 4.66667 13.7664 4.75447 13.9226 4.91075C14.0789 5.06703 14.1667 5.27899 14.1667 5.50001V7.16667ZM14.1667 8.83334V11.3333H17.5V11.0958L15.8267 8.83334H14.1667Z" fill="#46DDF3"/>
</g>
<defs>
<clipPath id="clip0_1_295">
<rect width="20" height="20" fill="white" transform="translate(0 0.5)"/>
</clipPath>
</defs>
</svg>
