<svg width="316" height="89" viewBox="0 0 316 89" fill="none" xmlns="http://www.w3.org/2000/svg">
<path d="M251.541 77.6041C250.511 72.3232 253.958 67.2072 259.238 66.1772L296.731 58.8649C302.012 57.835 307.128 61.2811 308.158 66.562C309.188 71.8429 305.742 76.9589 300.461 77.9889L262.968 85.3012C257.687 86.3311 252.571 82.885 251.541 77.6041Z" fill="#E9EBEE"/>
<path d="M316 51.5739C316 56.8836 309.994 60.5871 304.782 61.6035L268.412 68.6963C263.862 69.5837 260.06 72.1367 257.516 75.5991C253.127 81.571 247.564 89 240.153 89H12C5.37259 89 0 83.6274 0 77V12C0 5.37259 5.37258 0 12 0H304C310.627 0 316 5.37258 316 12V51.5739Z" fill="white"/>
<mask id="mask0_60_670" style="mask-type:alpha" maskUnits="userSpaceOnUse" x="236" y="4" width="76" height="60">
<path d="M236 4H304C308.418 4 312 7.58172 312 12V64H236V4Z" fill="white"/>
</mask>
<g mask="url(#mask0_60_670)">
<rect x="228" y="-53.2972" width="129" height="118" rx="16" transform="rotate(-11.04 228 -53.2972)" fill="#F3F3F5"/>
</g>
</svg>
