<svg width="264" height="434" viewBox="0 0 264 434" fill="none" xmlns="http://www.w3.org/2000/svg">
<g filter="url(#filter0_d_5_525)">
<rect x="-167.643" y="75.1803" width="272.491" height="324" rx="24" transform="rotate(-11.04 -167.643 75.1803)" fill="url(#paint0_linear_5_525)"/>
</g>
<mask id="mask0_5_525" style="mask-type:alpha" maskUnits="userSpaceOnUse" x="-384" y="0" width="648" height="425">
<rect x="-383.276" y="115.051" width="597.725" height="315.043" transform="rotate(-11.04 -383.276 115.051)" fill="#D9D9D9"/>
</mask>
<g mask="url(#mask0_5_525)">
<path d="M213.532 -13.0263C111.652 6.89233 9.76389 26.7672 -92.1259 46.6464C-194.016 66.5256 -295.901 86.408 -397.796 106.247C-399.168 106.515 -399.413 106.899 -399.131 108.343C-377.756 217.701 -356.418 327.067 -335.118 436.439C-334.836 437.883 -334.465 438.147 -333.093 437.88C-129.325 398.084 74.4527 358.326 278.236 318.606C279.608 318.339 279.852 317.954 279.57 316.51C258.195 207.153 236.857 97.7865 215.557 -11.5852C215.276 -13.0297 214.903 -13.2936 213.532 -13.0263ZM174.729 4.71028C174.49 1.82815 175.011 0.441844 177.583 -0.615583C179.825 -1.53833 182.119 -2.31216 184.503 -2.77742C187.124 -3.28877 189.745 -3.80014 192.366 -4.31151C196.343 -4.97376 200.238 -6.0765 204.296 -6.30862C208.703 -6.55922 211.258 -5.03358 212.523 -0.569219C214.984 8.11469 216.723 16.9663 217.707 25.9404C218.096 29.4748 216.653 30.6239 213.355 29.7245C210.068 28.8292 207.047 27.1859 203.991 25.6712C196.458 21.9341 188.925 18.1931 181.561 14.08C177.874 12.0194 175.121 9.42541 174.729 4.71227L174.729 4.71028ZM248.276 180.592C248.616 182.436 248.659 184.361 248.622 186.24C248.574 188.603 247.527 189.109 245.615 187.731C242.483 185.473 240.041 182.426 237.488 179.535C230.368 171.471 223.331 163.324 216.581 154.916C214.637 152.494 212.789 149.996 211.482 147.133C209.94 143.749 210.164 141.008 212.732 138.58C218.188 133.424 224.188 129.008 230.808 125.596C233.161 124.383 235.144 125.179 236.546 127.56C238.082 130.168 238.944 133.077 239.567 135.994C241.16 143.463 242.536 150.981 243.999 158.478C245.462 165.975 246.922 173.208 248.279 180.594L248.276 180.592ZM264.521 265.658C264.818 267.254 264.977 268.896 265.009 270.517C265.084 274.216 261.757 278.884 258.39 279.992C256.895 280.484 255.583 280 254.314 279.161C251.972 277.613 249.792 275.843 247.737 273.897C237.953 264.635 227.914 255.659 218.655 245.794C217.461 244.522 216.417 243.123 215.577 241.572C214.624 239.817 214.52 238.003 215.721 236.43C220.399 230.317 225.313 224.668 233.542 223.785C238.095 223.297 242.581 222.193 247.143 221.625C252.31 220.98 255.302 223.016 256.896 228.225C258.948 234.93 259.92 241.864 261.239 248.722C262.34 254.364 263.473 260.003 264.522 265.655L264.521 265.658ZM-264.871 356.955C-261.802 350.679 -258.648 344.458 -255.061 338.493C-252.074 333.53 -249.89 333.38 -246.509 338.128C-240.878 346.039 -235.622 354.225 -230.882 362.747C-228.174 367.615 -227.783 373.062 -227.773 378.502C-227.77 380.208 -228.812 381.501 -230.03 382.58C-232.015 384.336 -234.194 385.798 -236.448 387.138C-241.964 390.42 -247.33 393.999 -253.196 396.606C-256.906 398.255 -259.005 397.281 -260.561 393.278C-262.239 388.963 -263.448 384.488 -264.652 380.018C-265.347 377.439 -266.281 374.916 -266.569 372.12C-268.195 366.827 -267.239 361.804 -264.867 356.952L-264.871 356.955ZM97.1723 122.125C98.3962 126.011 99.1322 129.984 99.5384 134.031C99.9211 137.852 98.7023 139.296 95.0382 138.803C93.0062 138.53 90.9872 138.017 88.9978 137.465C83.016 135.805 77.0579 134.055 71.2008 131.924C70.9056 131.817 70.6113 131.703 70.3198 131.582C65.2715 129.477 64.2895 127.19 66.2731 122.018C68.4192 116.421 70.8703 110.972 73.5446 105.642C75.9875 100.774 77.8537 100.018 82.9436 101.765C85.2015 102.541 87.4356 103.407 89.6424 104.333C91.6536 105.176 93.0616 106.698 93.872 108.845C94.679 110.984 95.4589 113.122 95.8678 115.387C96.2743 117.639 96.7384 119.88 97.1763 122.125L97.1723 122.125ZM173.355 55.3797C173.723 57.871 173.56 60.375 172.473 62.6298C169.549 68.6879 166.517 74.6764 162.496 80.044C159.866 83.5539 156.539 85.0002 152.257 84.5057C145.907 83.772 139.735 82.1921 133.654 80.1587C130.446 79.0869 129.607 77.2906 130.686 73.9882C131.729 70.7898 133.263 67.8261 134.807 64.8791C137.984 58.8171 140.99 52.652 144.477 46.7752C146.535 43.3066 149.189 40.5024 152.655 38.5726C156.414 36.4801 160.232 34.496 164.289 33.1075C167.709 31.9383 168.742 32.4763 169.854 36.1277C170.572 38.4848 170.848 40.9815 171.323 43.4148C172.398 47.338 172.764 51.3787 173.357 55.3813L173.355 55.3797ZM140.548 209.603C136.363 200.492 132.076 191.429 128.348 182.102C127.39 179.709 127.217 177.298 127.79 174.819C128.296 172.626 128.968 172.222 130.982 173.124C134.16 174.549 137.098 176.473 140.035 178.366C147.679 183.295 155.372 188.148 162.834 193.39C164.922 194.858 166.957 196.394 168.719 198.303C170.763 200.517 171.525 203.085 170.865 206.049C169.665 211.434 168.099 216.697 166.167 221.828C165.089 224.693 163.295 226.652 160.625 226.691C158.112 227.124 156.063 227.133 154.017 227.241C151.203 227.387 149.28 226.001 147.768 223.65C144.911 219.213 142.752 214.393 140.55 209.601L140.548 209.603ZM139.889 233.556C135.105 237.199 130.173 240.623 125.057 243.749C122.11 245.549 118.841 245.769 115.521 245.616C114.071 245.547 113.057 244.669 112.691 243.161C112.367 241.832 112.154 240.473 111.891 239.128C110.835 231.705 109.977 224.255 109.492 216.772C109.195 212.207 110.27 207.997 112.316 204.052C114.733 199.391 117.369 194.868 120.097 190.408C120.729 189.376 121.415 188.37 122.176 187.445C124.214 184.97 125.856 185.05 127.704 187.794C130.103 191.353 131.804 195.317 133.619 199.208C136.972 206.4 140.362 213.574 143.192 221.011C145.344 226.661 144.526 230.024 139.891 233.554L139.889 233.556ZM156.401 186.501C149.706 182.223 143.061 177.858 137.034 172.542C135.445 171.14 134.013 169.569 132.838 167.762C130.559 164.257 130.777 161.296 133.771 158.568C138.171 154.558 143.112 151.465 148.616 149.292C157.623 145.74 166.63 142.192 175.754 138.964C176.745 138.614 177.792 138.422 178.529 138.229C183.676 136.972 188.079 138.569 192.181 141.152C195.015 142.935 196.073 146.023 196.475 149.309C197.027 153.84 196.48 158.282 195.56 162.673C194.099 169.647 192.647 176.627 190.423 183.378C189.425 186.409 187.722 188.866 185.184 190.679C183.094 192.171 180.966 193.588 178.716 194.808C176.27 196.134 173.788 196.257 171.177 195.11C165.949 192.813 161.218 189.574 156.4 186.497L156.401 186.501ZM138.676 125.214C138.376 122.418 138.823 119.722 139.786 117.176C142.175 110.84 145.035 104.739 148.474 98.968C149.22 97.7196 150.164 96.5648 151.173 95.5396C153.685 92.9883 156.516 92.973 159.141 95.5031C161.807 98.0729 163.731 101.25 165.506 104.514C168.864 110.685 171.95 116.997 174.728 123.471C175.347 124.912 175.872 126.375 176.185 127.927C176.988 131.924 176.176 134.007 172.803 136.043C169.311 138.152 165.45 139.399 161.691 140.857C157.812 142.361 153.874 143.704 149.953 145.086C149.253 145.332 148.513 145.471 147.779 145.597C144.178 146.219 142.371 145.006 141.457 141.24C140.98 139.272 140.665 137.266 140.277 135.276C139.486 131.963 139.04 128.596 138.677 125.216L138.676 125.214ZM187.977 135.293C184.479 134.393 181.882 132.427 180.052 129.174C176.001 121.976 172.593 114.431 168.938 107.021C166.408 101.89 163.745 96.821 161.863 91.368C161.08 89.1001 161.064 87.0109 162.423 85.0688C163.222 83.9256 164.083 82.8241 164.999 81.782C166.188 80.4285 167.76 79.9381 169.418 80.544C176.397 83.1004 183.241 86.0011 189.423 90.39C191.594 91.9308 192.46 94.3331 192.923 96.9278C193.81 103.81 193.701 110.721 193.735 117.623C193.757 122.118 193.709 126.617 193.504 131.102C193.281 135.991 192.458 136.444 187.979 135.292L187.977 135.293ZM190.413 87.3281C183.815 84.9908 177.498 81.9603 171.495 78.2303C169.089 76.7356 168.826 75.43 169.954 72.781C171.243 69.7536 172.916 66.9592 174.759 64.2801C175.984 62.4982 177.794 62.1286 179.728 62.373C181.268 62.5681 182.817 62.8794 184.311 63.3398C190.428 65.2215 196.579 67.008 202.484 69.5943C205.608 70.9634 206.033 72.6133 204.161 75.5189C202.089 78.7343 199.895 81.8576 197.475 84.7937C196.42 86.0756 195.257 87.232 193.469 87.523C192.491 87.7923 191.427 87.6859 190.413 87.3261L190.413 87.3281ZM141.248 47.8162C138.144 55.3781 134.473 62.6373 129.8 69.2721C128.995 70.4145 128.044 71.4345 126.931 72.2712C124.479 74.1147 122.104 73.9814 119.804 71.842C117.122 69.3458 115.346 66.1461 113.692 62.9101C110.409 56.4871 107.439 49.906 104.958 43.0991C104.803 42.671 104.662 42.2337 104.569 41.7892C103.909 38.5969 104.834 37.1379 107.865 36.5507C110.216 36.063 112.569 36.49 114.918 36.7071C121.738 37.3426 128.53 38.2749 135.281 39.5561C136.077 39.7064 136.873 39.8961 137.648 40.1477C141.855 41.514 142.982 43.5846 141.246 47.8146L141.248 47.8162ZM122.987 81.2134C124.55 81.1729 126.045 81.1061 127.519 81.4651C133.54 82.9257 139.601 84.2177 145.506 86.1925C149.257 87.4476 150.112 89.1931 148.628 92.9939C146.073 99.5358 142.939 105.775 139.62 111.911C139.408 112.303 139.152 112.671 138.905 113.041C136.732 116.295 134.955 116.481 132.362 113.44C126.914 107.047 122.113 100.123 117.546 93.0356C115.452 89.7843 115.683 88.4855 118.048 85.5312C118.838 84.5426 119.63 83.5496 120.48 82.6174C121.172 81.8608 122.021 81.3317 122.988 81.2174L122.987 81.2134ZM118.53 98.4304C123.058 104.247 127.333 110.262 131.484 116.375C134.153 120.307 135.853 124.625 136.647 129.34C137.545 134.681 139.004 139.932 139.285 145.373C139.382 147.277 138.965 149.046 137.669 150.389C134.586 153.585 131.047 156.163 127.262 158.368C125.389 159.458 123.406 159.174 121.485 158.39C116.986 156.554 112.64 154.36 108.438 151.85C106.674 150.796 105.869 149.045 105.34 147.099C103.369 139.848 101.721 132.521 100.277 125.149C100.151 124.506 100.026 123.865 99.9013 123.225C99.1561 118.655 97.7624 114.195 97.5985 109.52C97.4992 106.708 98.4088 104.45 100.341 102.597C103.166 99.8872 106.185 97.4331 109.351 95.1838C111.972 93.3196 113.889 93.5301 116.239 95.8164C117.064 96.6201 117.819 97.5136 118.532 98.43L118.53 98.4304ZM108.703 156.429C112.984 157.791 117.016 159.784 120.438 162.882C124.984 166.997 126.007 171.763 123.831 177.948C122.303 182.294 119.885 186.139 117.561 190.021C115.104 194.122 112.929 198.419 110.038 202.224C108.623 204.086 107.007 205.62 104.566 205.999C103.527 206.272 102.407 206.191 101.305 205.946C93.5435 204.215 85.9031 202.009 78.4391 199.112C74.6348 197.636 72.9216 194.676 72.5838 190.567C72.2249 186.213 71.7615 181.874 71.7205 177.501C71.6869 173.715 73.1035 170.919 76.1998 168.956C82.3962 165.029 89.1791 162.376 95.7273 159.217C98.2553 157.996 100.876 157.039 103.55 156.228C105.262 155.71 107.036 155.897 108.705 156.428L108.703 156.429ZM60.804 207.237C57.3541 207.503 53.8695 207.338 50.4034 207.459C46.8045 207.584 43.8542 206.186 41.3829 203.46C35.0586 196.484 29.3018 189.015 24.03 181.159C21.3006 177.09 22.0449 174.544 26.2644 172.476C32.7342 169.305 39.3151 166.387 46.1706 164.191C48.1898 163.543 50.2734 163.795 52.2464 164.389C56.2753 165.6 60.1235 167.365 63.8933 169.308C66.8519 170.834 68.0977 173.49 68.231 175.251C69.2875 183.286 69.6225 189.852 69.7866 196.419C69.8702 199.753 68.3566 202.591 66.5972 205.173C65.2419 207.164 62.8469 207.08 60.8021 207.237L60.804 207.237ZM68.2764 226.034C68.8479 229.037 68.9797 232.122 69.4781 235.141C69.9464 237.984 70.1126 240.844 70.2431 243.699C70.3632 246.311 68.5979 248.06 65.3374 248.812C61.3863 249.721 57.3258 249.51 53.3124 249.783C52.3868 249.845 51.4557 249.827 50.5253 249.812C45.131 249.727 43.8481 248.93 41.9219 243.748C39.9953 238.563 38.5591 233.209 37.1637 227.864C36.1347 224.491 36.9175 221.552 38.8413 218.852C39.4301 218.024 40.0372 217.185 40.4765 216.267C42.6799 211.661 46.2324 209.691 51.1653 209.852C54.2542 209.954 57.3481 209.532 60.4545 209.703C63.6717 209.88 65.0569 211.139 66.2205 214.303C67.621 218.111 67.5306 222.137 68.2752 226.038L68.2764 226.034ZM71.6858 235.522C70.4988 227.579 69.2959 219.639 68.6207 211.635C68.3436 208.345 69.5137 205.5 71.317 202.942C71.963 202.027 72.9004 201.518 74.0699 201.66C74.5029 201.714 74.9482 201.682 75.3712 201.78C84.161 203.813 92.8776 206.169 101.268 209.685C105.261 211.358 106.791 215.163 107.296 219.261C108.245 226.966 109.161 234.681 109.626 242.435C109.94 247.667 107.308 250.496 102.263 250.049C95.2429 249.425 88.2805 248.264 81.3665 246.802C74.7471 245.402 73.1978 243.631 71.909 236.676C71.8376 236.29 71.7587 235.906 71.6834 235.52L71.6858 235.522ZM103.047 150.812C102.81 152.248 101.728 152.946 100.652 153.59C95.5603 156.638 90.1762 159.077 84.8133 161.55C80.4205 163.576 76.1606 165.977 70.6741 167.13C69.0637 167.655 66.7973 167.374 64.592 166.456C61.2199 165.051 57.8848 163.539 54.5118 162.14C51.1654 160.75 50.0765 157.937 49.881 154.515C49.7839 152.824 49.6822 151.13 49.6323 149.438C49.5617 147.047 50.327 144.959 51.8193 143.205C53.8281 140.845 55.8973 138.541 57.9116 136.188C60.43 133.249 63.6257 132.504 67.2188 133.278C69.8438 133.844 72.4532 134.53 75.0334 135.299C81.8845 137.337 88.7215 139.43 95.5517 141.551C96.8636 141.958 98.1556 142.505 99.382 143.149C101.676 144.356 103.476 148.202 103.045 150.812L103.047 150.812ZM73.2651 100.068C73.1235 101.244 72.7708 102.352 72.3277 103.419C69.0298 111.384 65.6662 119.319 61.7328 126.954C59.1512 131.966 55.3624 135.979 51.4257 139.804C49.4398 141.732 47.9532 141.529 46.3271 139.153C44.8682 137.021 43.5531 134.76 42.3688 132.45C38.6054 125.099 34.8769 117.726 31.5549 110.143C30.0497 106.707 30.1269 103.426 32.297 100.372C33.5134 98.6618 34.7199 96.9435 35.9829 95.272C37.1346 93.7482 38.6807 92.8517 40.7546 92.4202C44.5447 92.2177 48.5846 92.4395 52.6191 92.6127C56.4084 92.776 60.1928 93.2521 63.9822 93.405C67.2567 93.5386 69.7565 95.3434 72.2392 97.2714C73.1186 97.9549 73.4017 98.9406 73.2651 100.068ZM33.8876 92.9421C30.4533 99.5109 26.2293 105.096 18.9013 107.259C16.4183 107.991 14.0854 109.239 11.6 110.044C8.19964 111.145 6.42835 110.518 4.53436 107.244C2.18075 103.178 0.733649 98.6877 -1.00494 94.3406C-2.35762 90.957 -3.56003 87.5091 -4.76565 84.0659C-5.12861 83.0296 -5.38967 81.924 -5.50359 80.833C-5.85429 77.5142 -4.16833 75.5701 -0.345576 74.4257C3.94482 73.1425 8.3441 72.3647 12.7037 71.4046C15.8006 70.755 18.8886 70.0596 22.0371 69.6849C25.7175 69.2477 27.6517 70.2872 29.3492 73.748C31.531 78.2007 33.0624 82.9229 34.5076 87.6577C35.0397 89.4024 34.7694 91.2603 33.888 92.9441L33.8876 92.9421ZM14.9309 111.904C17.3326 110.913 19.7181 109.881 22.2383 109.171C25.2313 108.326 27.3163 109.547 29.0518 111.935C31.6515 115.509 33.532 119.527 35.5159 123.473C38.9027 130.204 42.437 136.867 45.2715 143.873C46.9078 147.918 47.1788 152.244 47.1054 156.558C47.0676 158.805 45.7049 160.219 43.9273 161.218C39.9065 163.482 35.6522 165.225 31.4409 167.05C27.2867 168.852 23.0619 170.482 18.8559 172.155C13.214 174.402 11.035 173.175 9.73671 166.923C8.38172 160.4 7.21256 153.837 5.56372 147.552C4.26795 140.91 2.979 134.441 1.75912 127.956C1.44729 126.295 1.28637 124.593 1.19169 122.904C1.07761 120.84 1.78977 119.208 3.36262 117.825C6.75846 114.841 10.9242 113.553 14.9246 111.903L14.9309 111.904ZM19.4433 179.296C26.0842 187.208 32.3562 195.438 38.3628 203.88C41.2398 207.925 41.2003 210.089 38.5864 214.196C37.7663 215.486 36.9152 216.755 36.0298 217.996C34.7141 219.841 32.8826 220.384 30.7542 220.029C29.9572 219.895 29.1525 219.732 28.3826 219.473C19.4483 216.456 10.6759 212.958 1.93774 209.341C-2.06497 207.682 -4.42455 204.822 -4.98156 200.667C-6.00329 196.54 -5.01892 193.155 -2.88651 190.097C0.413303 185.364 4.35937 181.302 8.94594 177.945C12.508 175.337 16.5241 175.818 19.4453 179.296L19.4433 179.296ZM-104.713 286.649C-104.186 289.679 -105.017 290.699 -107.893 291.047C-109.765 291.274 -111.647 291.148 -113.457 290.65C-120.83 288.619 -128.148 286.368 -135.426 283.957C-141.38 281.985 -144.78 277.762 -146.031 271.584C-148.001 261.848 -150.237 252.158 -151.423 242.28C-151.493 241.698 -151.505 241.11 -151.506 240.524C-151.511 236.07 -150.103 234.719 -145.936 235.422C-144.035 235.743 -142.152 236.29 -140.305 236.891C-134.152 238.889 -128.016 240.951 -121.94 243.221C-115.691 245.554 -111.973 249.966 -110.396 256.804C-109.116 262.348 -108.08 267.935 -107.246 273.561C-106.395 277.923 -105.477 282.271 -104.717 286.648L-104.713 286.649ZM-114.733 242.183C-116.743 242.104 -118.707 241.682 -120.616 241.081C-130.016 238.124 -139.475 235.336 -148.446 231.01C-150.773 229.889 -153.115 228.745 -154.987 226.803C-155.795 225.963 -156.47 225.023 -156.991 223.958C-158.107 221.682 -157.938 220.509 -155.977 219.117C-154.4 217.998 -152.733 216.995 -151.032 216.089C-142.12 211.353 -133.082 206.88 -123.98 202.551C-122.341 201.771 -120.602 201.304 -118.814 201.033C-112.719 200.104 -112.422 200.222 -109.968 206.241C-107.682 211.846 -105.447 217.472 -103.699 223.292C-102.605 226.937 -102.937 230.22 -105.109 233.266C-106.731 235.541 -108.138 237.984 -109.953 240.112C-111.236 241.616 -112.809 242.258 -114.737 242.181L-114.733 242.183ZM-310.821 283.772C-310.925 280.63 -309.942 278.02 -307.471 276.179C-302.285 272.317 -296.81 268.948 -291.063 266.079C-287.967 264.533 -285.007 264.811 -282.138 267.147C-279.008 269.694 -275.978 272.347 -273.029 275.116C-269.686 278.252 -268.849 282.296 -268.83 286.674C-268.8 293.453 -268.863 300.228 -269.255 306.988C-269.587 312.722 -271.512 315.066 -276.849 316.029C-283.451 317.222 -290.131 317.779 -296.84 317.94C-302.041 318.064 -304.525 315.992 -305.916 310.72C-306.448 308.701 -307.004 306.684 -307.464 304.646C-307.924 302.607 -308.279 300.542 -308.875 297.488C-309.662 293.623 -310.655 288.754 -310.821 283.772ZM-206.992 250.804C-200.256 243.347 -193.529 235.833 -185.262 230.18C-180.783 227.117 -175.376 226.198 -170.371 224.364C-168.622 223.724 -166.845 223.156 -165.063 222.62C-163.689 222.206 -162.131 221.71 -161.025 223.014C-159.81 224.446 -159.397 226.247 -160.079 228.146C-160.716 229.92 -161.64 231.534 -162.643 233.08C-168.225 241.691 -173.764 250.34 -179.754 258.642C-181.91 261.632 -184.147 264.64 -189.323 265.373C-192.692 265.636 -197.284 265.454 -201.872 264.926C-203.239 264.769 -204.352 263.954 -205.069 262.71C-206.303 260.565 -207.241 258.274 -208.008 255.908C-208.634 253.977 -208.231 252.176 -206.992 250.804ZM-216.034 249.229C-222.597 246.82 -229.014 244.016 -235.133 240.494C-237.891 238.905 -239.158 236.098 -240.246 233.206C-240.568 231.895 -240.06 230.893 -239.333 229.952C-236.41 226.162 -232.762 223.149 -229.389 219.846C-227.32 217.818 -225.145 215.905 -222.969 214.004C-219.764 211.202 -216.199 210.587 -212.414 212.766C-205.977 216.474 -199.765 220.59 -193.922 225.269C-190.72 227.833 -190.424 229.993 -193.014 233.039C-197.772 238.637 -202.957 243.794 -208.778 248.209C-211.015 249.906 -213.492 250.162 -216.034 249.229ZM-166.577 220.326C-171.975 222.713 -177.506 224.767 -183.343 225.772C-186.897 226.384 -189.988 224.778 -192.873 222.926C-198.704 219.185 -204.41 215.228 -210.166 211.355C-210.536 211.107 -210.897 210.841 -211.243 210.559C-215.258 207.272 -215.907 205.302 -214.647 200.203C-214.212 198.445 -213.731 196.699 -213.325 194.932C-212.541 191.516 -210.546 189.557 -207.176 189.166C-206.499 189.087 -205.835 188.912 -205.163 188.781C-200.227 187.8 -195.204 187.522 -190.2 187.153C-187.564 186.959 -185.037 187.67 -182.685 189.146C-179.178 191.351 -175.916 193.926 -172.604 196.424C-170.006 198.385 -168.8 201.428 -167.554 204.369C-166.312 207.304 -165.138 210.27 -163.973 213.237C-162.592 216.758 -163.252 218.855 -166.575 220.325L-166.577 220.326ZM-215.249 191.557C-216.67 198.941 -217.776 206.435 -223.652 211.76C-228.074 215.768 -232.21 220.117 -236.757 223.983C-241.534 228.042 -243.377 227.701 -246.459 222.048C-248.635 218.057 -250.633 213.973 -252.176 209.66C-253.155 206.921 -252.672 204.536 -250.99 202.382C-249.027 199.872 -246.665 197.791 -244.229 195.817C-239.114 191.671 -233.962 187.578 -228.816 183.476C-228.327 183.087 -227.792 182.754 -227.256 182.437C-224.034 180.519 -222.696 180.706 -219.993 183.44C-216.66 186.809 -215.639 188.289 -215.294 190.438C-215.282 190.648 -215.164 191.125 -215.248 191.554L-215.249 191.557ZM-240.104 241.584C-240.119 242.702 -240.3 243.789 -240.642 244.837C-242.355 250.115 -244.284 255.308 -246.361 260.435C-247.478 263.191 -249.221 265.404 -251.642 267C-255.293 269.408 -258.919 271.859 -262.829 273.814C-265.431 275.114 -267.919 275.178 -270.392 273.331C-274.388 270.346 -278.116 267.021 -281.694 263.514C-283.82 261.429 -284.615 258.831 -284.021 255.832C-283.542 253.417 -283.053 251.003 -282.656 248.568C-282.059 244.91 -279.913 242.765 -276.718 241.555C-271.716 239.66 -266.556 238.289 -261.393 236.972C-258.21 236.161 -255.092 235.045 -251.684 234.621C-250.651 234.42 -249.498 234.172 -248.337 233.973C-244.073 233.24 -240.046 236.969 -240.106 241.582L-240.104 241.584ZM-266.366 311.999C-266.694 302.314 -267.083 292.604 -265.819 282.964C-265.454 280.187 -264.065 277.985 -261.859 276.439C-258.68 274.21 -255.396 272.153 -251.901 270.494C-249.124 269.176 -247.087 269.557 -245.282 272.131C-239.208 280.794 -233.923 289.964 -229.653 299.722C-227.942 303.634 -228.668 306.157 -231.769 308.888C-235.273 311.973 -239.2 314.429 -243.036 317.016C-244.902 318.274 -246.81 319.466 -248.725 320.641C-251.061 322.074 -253.526 322.129 -256.075 321.148C-258.197 320.331 -260.197 319.236 -262.219 318.183C-264.676 316.902 -266.116 314.922 -266.363 312.004L-266.366 311.999ZM-241.924 272.112C-244.226 267.592 -244.653 263.101 -242.794 258.39C-241.449 254.982 -240.38 251.449 -238.83 248.133C-237.259 244.776 -235.827 243.992 -232.411 245.234C-226.381 247.424 -220.535 250.123 -214.823 253.144C-212.916 254.153 -211.564 255.755 -210.557 257.729C-208.136 262.463 -206.773 267.317 -207.511 272.767C-208.522 280.231 -209.414 287.712 -210.573 295.15C-211.255 299.534 -213.257 302.349 -217.811 302.381C-222.024 304.06 -224.901 302.107 -227.089 298.404C-232.202 289.742 -237.349 281.102 -241.926 272.113L-241.924 272.112ZM-207.796 295.331C-207.028 287.899 -206.343 280.448 -204.624 273.187C-203.726 269.393 -202.406 268.308 -198.644 268.206C-196.227 268.139 -193.803 268.224 -191.383 268.212C-186.795 268.193 -182.702 269.722 -179.043 272.678C-174.275 276.531 -169.394 280.236 -164.833 284.367C-160.932 287.9 -160.58 290.3 -163.547 294.633C-167.467 300.353 -171.818 305.717 -176.309 310.947C-178.36 313.334 -180.794 314.234 -184.075 313.943C-192.394 313.201 -198.94 308.513 -205.53 303.816C-206.708 302.976 -207.477 301.341 -207.796 299.662C-207.803 298.452 -207.955 296.87 -207.798 295.332L-207.796 295.331ZM-176.914 271.075C-180.035 268.154 -180.482 265.759 -178.891 261.787C-178.7 261.309 -178.514 260.825 -178.267 260.38C-174.08 252.894 -169.478 245.703 -164.068 239.141C-159.758 233.914 -157.015 234.428 -154.897 241.082C-152.72 247.919 -151.374 254.997 -150.179 262.083C-149.686 266.892 -148.443 271.582 -148.018 276.413C-147.722 279.777 -148.626 282.066 -151.488 283.823C-155.08 286.025 -158.262 286.289 -161.809 283.492C-166.926 279.459 -172.132 275.551 -176.916 271.075L-176.914 271.075ZM-162.142 210.709C-163.722 207.352 -165.231 203.961 -166.113 200.327C-166.762 198.006 -166.374 195.799 -165.64 193.615C-163.718 187.893 -160.721 182.74 -158.034 177.428C-155.866 173.141 -153.667 168.86 -151.073 164.838C-148.183 160.361 -145.785 160.221 -142.785 164.768C-137.105 173.375 -131.947 182.337 -127.686 191.797C-125.344 196.997 -126.31 200.042 -131.063 202.905C-138.341 207.288 -145.941 211.035 -153.745 214.297C-158.144 216.134 -160.021 215.219 -162.141 210.711L-162.142 210.709ZM-144.374 147.686C-143.88 145.823 -142.42 145.076 -140.819 144.66C-137.818 143.881 -134.87 142.868 -131.758 142.568C-129.993 142.224 -128.241 141.783 -126.458 141.559C-123.98 141.245 -121.859 142.153 -120.444 144.378C-116.308 150.882 -111.766 157.281 -110.157 165.022C-108.415 173.4 -108.046 181.967 -107.906 190.513C-107.866 192.871 -109.289 194.317 -110.755 195.716C-114.13 198.936 -120.595 198.338 -123.101 194.356C-130.564 182.494 -137.401 170.24 -143.846 157.753C-145.562 154.43 -145.277 151.076 -144.376 147.686L-144.374 147.686ZM-108.302 202.425C-109.248 197.905 -106.431 194.691 -102.299 194.341C-97.5416 193.94 -92.7908 193.453 -88.0262 193.153C-82.7059 192.817 -77.3885 192.245 -72.0448 192.462C-67.2851 192.655 -65.8792 194.198 -65.531 199.11C-65.4623 200.086 -65.3895 201.061 -65.3743 202.037C-65.3068 206.27 -65.285 210.502 -65.5326 214.726C-65.7134 217.814 -66.7146 220.521 -68.5194 222.945C-70.1508 225.136 -71.7839 227.32 -73.5976 229.349C-75.1287 231.062 -77.0207 231.845 -79.2792 231.573C-84.5576 230.94 -89.7217 229.657 -94.7997 228.002C-97.2892 227.191 -99.148 225.418 -100.351 222.961C-103.737 216.052 -106.118 208.739 -108.303 202.423L-108.302 202.425ZM-58.351 181.124C-60.4582 184.396 -62.7794 187.542 -66.5663 188.912C-68.8728 189.747 -71.3192 189.811 -73.7249 190.01C-81.5745 190.661 -89.4224 191.395 -97.3164 191.417C-98.4246 191.421 -99.5491 191.225 -100.649 191.008C-102.996 190.547 -104.443 188.993 -104.924 186.592C-106.054 180.934 -106.436 175.205 -106.327 169.467C-106.268 166.378 -104.842 164.792 -102.092 163.814C-98.1716 162.419 -94.0538 162.312 -89.9916 161.951C-82.8881 161.321 -75.7843 160.629 -68.6367 160.542C-68.3879 160.539 -68.1404 160.55 -67.8909 160.561C-62.1514 160.832 -60.7051 162.096 -59.4718 167.953C-59.2015 169.232 -58.969 170.519 -58.7186 171.802L-58.6412 171.787C-58.541 172.3 -58.423 172.81 -58.3447 173.328C-57.9398 175.942 -56.7708 178.67 -58.3526 181.126L-58.351 181.124ZM-72.5068 243.656C-72.8415 241.866 -72.997 240.034 -73.1229 238.216C-73.3056 235.6 -72.7291 233.209 -71.2347 231.065C-69.6676 228.818 -67.9788 226.687 -66.2145 224.616C-64.6863 222.825 -62.8143 222.352 -60.6723 223.231C-55.3581 225.41 -50.223 227.992 -45.4874 231.389C-42.8799 233.259 -41.7731 236.154 -41.0616 239.167C-40.2507 242.594 -39.6797 246.08 -39.0043 249.542C-37.8845 254.774 -36.6485 260 -36.6706 265.391C-36.6746 266.237 -36.6966 267.086 -36.774 267.925C-37.2146 272.66 -39.5386 275.158 -44.0756 275.294C-49.9936 275.471 -55.873 274.726 -61.6707 273.334C-64.1274 272.743 -65.9076 271.141 -66.9019 268.654C-67.7019 266.656 -68.4379 264.637 -68.8525 262.512C-70.0745 256.228 -71.3321 249.951 -72.5064 243.658L-72.5068 243.656ZM-45.9825 226.96C-50.1436 225.134 -54.1856 223.021 -58.0924 220.65C-60.2808 219.322 -61.8317 217.352 -62.3329 214.065C-62.8745 209.282 -62.5162 203.945 -62.5435 198.607C-62.5492 197.437 -62.4271 196.267 -62.4204 195.097C-62.3903 189.884 -59.1404 186.776 -55.7684 183.797C-54.5185 182.691 -52.8607 182.684 -51.3166 183.002C-40.6488 185.196 -30.0725 187.84 -20.0367 192.415C-13.1431 195.558 -12.2143 199.99 -16.8916 206.062C-21.1691 211.616 -26.43 216.133 -31.4224 220.928C-33.4257 222.852 -35.5683 224.579 -37.83 226.16C-40.4014 227.961 -43.1307 228.213 -45.9845 226.96L-45.9825 226.96ZM-56.641 165.622C-57.7165 161.356 -58.3451 157.057 -57.9181 152.643C-57.6057 149.405 -56.9365 148.43 -53.8479 148.414C-45.8883 148.368 -37.9503 148.91 -30.0873 150.482C-27.254 151.049 -24.8154 152.529 -22.7662 154.676C-16.092 161.67 -10.1121 169.3 -4.38473 177.136C-1.12382 181.595 -1.41949 182.9 -4.76509 187.209C-7.21934 190.37 -10.1334 191.408 -13.949 190.613C-20.5729 189.233 -27.0323 187.174 -33.5257 185.258C-38.5163 183.787 -43.5192 182.369 -48.3977 180.458C-52.3655 178.905 -54.6829 176.092 -55.4463 171.777C-55.8088 169.719 -56.2412 167.671 -56.6414 165.62L-56.641 165.622ZM-35.8134 253.515C-36.738 247.656 -37.9265 242.822 -38.0252 237.826C-38.1043 233.829 -36.8676 230.333 -34.4004 227.491C-27.4169 219.453 -19.5239 212.411 -11.6373 205.388C-8.1409 202.275 -7.27308 202.719 -5.49535 207.278C-4.13871 210.755 -3.96051 214.416 -3.53843 218.026C-2.82787 224.108 -2.28843 230.212 -1.73347 236.31C-1.32179 240.85 -0.872785 245.391 -1.10122 249.956C-1.30438 254.007 -2.98484 257.237 -6.11273 259.46C-12.2909 263.85 -18.7803 267.713 -25.6461 270.828C-29.6623 272.651 -31.9374 271.089 -33.2093 266.176C-34.3731 261.68 -35.5548 257.197 -35.8134 253.515ZM1.89957 247.768C0.51054 238.282 -0.554179 228.758 -0.907237 219.184C-1.11676 213.493 0.866535 211.985 6.07549 213.635C12.9605 215.815 19.6537 218.586 26.3092 221.46C30.9908 223.481 34.5089 226.649 36.0315 231.949C37.3985 236.705 39.2097 241.329 40.1134 246.226C40.5725 248.705 39.9951 250.838 38.0981 252.303C33.7344 255.672 29.2254 258.803 24.1641 260.994C22.0755 261.9 20.0048 261.513 17.9512 261.013C14.8505 260.259 11.8301 259.177 8.79923 258.137C5.24458 256.916 3.02671 254.591 2.45448 250.655C2.31305 249.687 2.08548 248.732 1.89759 247.769L1.89957 247.768ZM7.75119 170.057C8.21803 173.96 6.44938 177.129 3.01211 178.59C1.5294 179.22 0.376426 178.561 -0.707823 177.515C-4.69632 173.669 -8.02668 169.203 -11.5343 164.905C-14.2648 161.559 -16.9693 158.188 -19.4521 154.622C-22.2368 150.617 -22.4816 146.648 -20.2447 142.382C-16.7961 135.802 -13.0052 129.455 -9.01014 123.236C-7.88764 121.488 -6.40416 120.767 -4.40755 121.134C-2.34872 121.513 -1.87967 123.251 -1.39034 124.967C0.677817 132.197 1.72286 139.656 3.95613 148.894C5.14557 154.61 6.81629 162.265 7.74883 170.055L7.75119 170.057ZM-13.2482 125.368C-16.0744 131.124 -19.3762 136.587 -22.8247 141.942C-25.1248 145.513 -28.4032 147.314 -32.5866 147.159C-39.1677 146.917 -45.752 146.564 -52.286 145.612C-57.3711 144.871 -58.2212 143.8 -59.3913 137.739C-60.6042 133.783 -59.7096 129.759 -56.6324 126.155C-53.3914 122.357 -50.3744 118.35 -46.9959 114.675C-44.2703 111.71 -41.0683 110.448 -37.094 111.316C-29.8691 112.893 -22.8338 115.199 -15.9181 117.896C-12.2797 119.313 -11.4889 121.782 -13.2502 125.368L-13.2482 125.368ZM-45.4063 100.321C-44.8164 105.879 -46.6196 110.519 -50.1548 114.521C-52.8342 117.553 -55.4149 120.68 -58.0402 123.768C-60.7441 126.949 -64.0393 128.115 -68.0918 126.962C-73.4013 125.451 -78.7192 123.961 -83.8463 121.822C-87.9013 120.128 -89.2764 117.908 -88.7683 113.434C-87.926 106.004 -86.7209 98.6368 -84.939 91.395C-83.8227 86.8585 -81.1906 83.7529 -77.1126 81.9617C-70.1622 78.91 -63.0587 76.2725 -55.794 74.1446C-50.9237 72.7173 -48.7887 74.5747 -47.439 81.8624C-46.8475 87.2182 -46.1017 93.7665 -45.4063 100.321ZM-80.6193 125.779C-77.3379 127.058 -73.9682 128.102 -70.5959 129.086C-65.6978 130.516 -62.0152 132.974 -62.2599 138.46C-60.9969 143.581 -60.8569 148.187 -61.2987 152.821C-61.5397 155.346 -62.4625 156.522 -64.8293 157.153C-69.4181 158.375 -74.1548 158.522 -78.8485 158.932C-85.0259 159.47 -91.2198 159.881 -97.4135 160.231C-99.5114 160.349 -101.64 160.223 -103.74 160.007C-106.484 159.726 -108.723 158.317 -110.346 155.938C-113.165 151.808 -115.537 147.398 -117.728 142.884C-119.179 139.895 -118.999 137.101 -116.937 134.517C-115.275 132.437 -113.666 130.312 -112.047 128.193C-110.147 125.708 -107.674 124.48 -104.666 123.831C-96.4813 122.064 -88.519 122.698 -80.6158 125.776L-80.6193 125.779ZM-114.532 126.549C-116.394 129.459 -118.565 132.096 -120.812 134.664C-123.092 137.269 -126.272 138.076 -129.399 138.88C-131.32 139.374 -133.292 139.662 -135.794 140.15C-138.066 140.387 -140.779 141.631 -143.677 141.296C-148.166 140.778 -151.6 137.976 -154.895 135.004C-155.68 134.296 -155.808 133.135 -155.833 132.087C-155.863 130.92 -155.926 129.707 -155.684 128.59C-153.695 119.412 -151.588 110.268 -148.517 101.422C-147.149 97.4808 -144.463 95.6846 -140.453 95.5961C-136.545 95.5091 -132.644 95.3386 -128.73 95.5085C-125.165 95.6618 -122.33 97.0049 -120.72 100.619C-117.971 106.799 -115.214 112.974 -113.352 119.519C-112.618 122.098 -113.143 124.38 -114.53 126.546L-114.532 126.549ZM-148.513 143.384C-147.062 144.474 -146.812 145.952 -146.97 147.719C-147.412 152.642 -149.325 156.969 -151.517 161.191C-156.297 170.393 -160.717 179.81 -166.156 188.614C-166.356 188.941 -166.563 189.262 -166.775 189.58C-169.311 193.41 -170.886 193.757 -174.673 191.284C-175.897 190.484 -177.087 189.626 -178.306 188.814C-182.163 186.248 -184.868 182.895 -185.419 177.946C-186.154 170.943 -186.912 163.943 -187.619 156.939C-188.076 152.4 -188.678 147.866 -188.591 143.295C-188.48 137.397 -183.309 132.317 -177.705 132.981C-171.704 133.694 -165.69 134.65 -159.903 136.57C-155.714 137.958 -152.091 140.692 -148.513 143.382L-148.513 143.384ZM-184.662 127.494C-184.386 129.615 -185.001 131.239 -186.347 132.79C-189.425 136.336 -193.197 138.373 -197.73 139.07C-200.245 139.457 -202.731 140.027 -205.807 140.627C-209.681 141.341 -214.102 142.313 -218.626 142.766C-223.08 143.212 -225.192 141.747 -226.002 137.09C-227.246 129.929 -227.623 122.697 -227.561 115.468C-227.509 109.301 -225.581 107.033 -218.958 105.2C-213.457 103.677 -207.882 102.438 -202.335 101.091C-200.823 100.724 -199.279 100.63 -197.726 100.519C-194.525 100.288 -192.326 101.638 -191.014 104.728C-189.713 107.793 -188.798 110.995 -187.89 114.189C-186.642 118.578 -185.252 122.935 -184.661 127.498L-184.662 127.494ZM-219.81 145.72C-216.691 144.909 -213.484 144.442 -211.558 144.066C-206.276 143.546 -202.394 142.222 -198.326 142.216C-194.139 142.208 -192.339 143.788 -191.351 148.1C-190.372 152.381 -190.045 156.751 -189.611 161.097C-189.087 166.35 -188.511 171.606 -188.387 176.887C-188.356 178.199 -188.506 179.49 -188.838 180.747C-189.343 182.65 -190.5 183.934 -192.345 184.368C-198.222 185.756 -204.214 186.308 -210.241 186.507C-212.619 186.584 -214.449 185.24 -216.231 183.642C-221.271 179.117 -224.257 173.28 -226.477 166.918C-227.893 162.861 -229.767 158.981 -230.834 154.783C-231.351 152.742 -230.741 151.372 -229.408 149.932C-226.759 147.079 -223.197 146.597 -219.811 145.718L-219.81 145.72ZM-227.176 172.577C-226.376 175.643 -227.338 178.223 -229.345 180.233C-236.35 187.251 -244.07 193.355 -252.13 198.982C-254.951 200.951 -257.801 200.889 -260.525 198.42C-264.374 194.931 -268.249 191.446 -271.465 187.309C-274.437 183.486 -275.805 178.767 -277.417 174.234C-277.902 172.872 -277.689 171.29 -276.798 170.129C-271.952 163.801 -266.349 158.3 -259.808 153.947C-257.149 152.179 -253.93 152.612 -250.901 152.63C-247.489 152.65 -244.075 152.866 -240.662 152.995C-236.82 153.142 -234.045 154.92 -232.432 158.728C-230.505 163.28 -228.547 167.814 -227.172 172.579L-227.176 172.577ZM-269.389 193.42C-261.013 199.934 -254.946 208.297 -250.959 218.345C-250.12 220.462 -249.135 222.517 -248.311 224.638C-247.191 227.518 -247.977 229.532 -250.612 230.893C-254.183 232.736 -258.102 233.492 -261.896 234.615C-266.53 235.985 -271.247 237.065 -275.679 238.204C-282.513 239.54 -288.412 236.289 -291.187 229.848C-291.796 228.438 -291.599 227.041 -291.228 225.646C-290.243 221.927 -288.489 218.579 -286.737 215.237C-283.299 208.667 -280.4 201.777 -276.364 195.564C-276.052 195.084 -275.755 194.588 -275.405 194.14C-273.397 191.565 -271.963 191.415 -269.387 193.42L-269.389 193.42ZM-277.443 192.507C-282.063 202.306 -286.663 212.122 -292.174 221.411C-292.726 222.341 -293.392 223.196 -294.043 224.056C-295.247 225.65 -296.857 226.257 -298.797 226.107C-300.551 225.972 -302.236 225.481 -303.929 225.035C-307.851 224.001 -309.115 222.316 -309.476 217.994C-309.837 213.696 -309.796 209.402 -309.733 205.108C-309.605 196.322 -309.453 187.537 -309.294 178.753C-309.272 177.584 -309.187 176.413 -309.059 175.252C-308.63 171.306 -308.18 170.822 -304.497 170.147C-300.638 169.451 -296.82 170.278 -292.999 170.764C-290.218 171.115 -287.445 171.58 -284.679 172.065C-282.874 172.38 -281.379 173.348 -280.408 175.007C-278.828 177.704 -277.702 180.624 -276.716 183.598C-275.689 186.696 -276.124 189.714 -277.442 192.511L-277.443 192.507ZM-305.694 227.86C-302.911 228.294 -300.192 229.027 -297.493 229.853C-296.108 230.277 -294.879 231.039 -293.781 232.093C-291.37 234.406 -289.149 236.914 -286.889 239.383C-285.335 241.082 -284.87 243.157 -285.089 245.365C-285.471 249.186 -286.197 252.944 -287.166 256.638C-287.799 259.048 -289.176 260.981 -291.113 262.336C-297.161 266.567 -303.439 270.404 -309.984 273.761C-310.75 274.154 -311.598 274.379 -312.409 274.682C-314.115 275.12 -315.603 274.688 -317.033 273.643C-321.942 270.057 -326.484 266.032 -330.521 261.389C-332.942 258.605 -333.132 257.347 -331.225 254.052C-328.567 249.463 -325.388 245.249 -322.355 240.935C-319.721 237.193 -317.107 233.449 -313.756 230.331C-311.413 228.151 -308.774 227.382 -305.696 227.862L-305.694 227.86ZM-320.214 233.526C-324.343 239.631 -328.283 245.892 -333.088 251.466C-335.658 254.446 -338.849 255.502 -342.601 255.117C-347.434 254.621 -352.213 253.665 -357.023 252.98C-362.039 252.267 -364.69 249.321 -365.584 244.293C-365.836 242.877 -366.131 241.471 -366.406 240.058C-368.439 233.232 -367.406 226.789 -364.643 220.516C-362.525 215.706 -360.979 210.615 -358.379 206.036C-356.525 202.769 -354.54 201.987 -351.041 203.291C-346.991 204.802 -343.527 207.48 -339.88 209.768C-334.339 213.245 -328.948 216.991 -323.681 220.922C-321.645 222.444 -319.637 224.039 -318.791 226.726C-317.97 229.342 -318.923 231.62 -320.212 233.526L-320.214 233.526ZM-361.373 265.887C-361.734 263.828 -361.882 261.735 -361.695 259.654C-361.518 257.686 -360.6 256.371 -359.136 256.236C-358.468 256.15 -358.345 256.115 -358.223 256.12C-350.871 256.468 -343.55 257.291 -336.552 259.887C-333.31 261.091 -331.158 264.093 -329.129 266.971C-328.12 268.402 -328.595 269.909 -329.213 271.24C-330.157 273.271 -331.19 275.277 -332.377 277.157C-337.212 284.809 -342.082 292.438 -347.433 299.707C-348.229 300.79 -349.1 301.788 -350.157 302.583C-351.624 303.683 -352.568 303.487 -353.52 301.808C-354.422 300.216 -354.985 298.469 -355.368 296.677C-357.557 286.45 -359.565 276.189 -361.373 265.889L-361.373 265.887ZM-349.968 324.588C-350.148 321.612 -349.269 320.783 -346.496 321.504C-346.194 321.584 -345.888 321.665 -345.602 321.79C-338.031 325.084 -330.548 328.588 -323.374 332.781C-320.605 334.399 -320.668 335.153 -322.49 337.782C-324.866 341.212 -328.498 342.37 -331.957 343.847C-334.751 345.038 -337.62 346.052 -340.471 347.092C-343.417 348.167 -345.144 347.155 -346.176 343.961C-347.222 340.72 -347.82 337.381 -348.459 334.05C-349.051 330.911 -349.776 327.797 -349.97 324.588L-349.968 324.588ZM-322.641 330.058C-329.593 327.746 -336.229 324.613 -342.393 320.518C-348.302 316.594 -349.594 311.732 -347.057 304.959C-344.591 298.372 -340.506 292.817 -336.771 287.05C-334.382 283.362 -331.89 279.741 -329.29 276.214C-326.031 271.79 -324.394 271.768 -320.061 275.215C-316.885 277.741 -315.025 280.916 -314.197 284.959C-313.238 289.63 -311.954 294.233 -311.349 298.004C-310.014 304.908 -308.718 310.852 -308.384 316.937C-308.253 319.312 -308.9 321.458 -310.373 323.243C-311.704 324.853 -313.113 326.392 -314.491 327.958C-316.739 330.509 -319.502 331.104 -322.639 330.06L-322.641 330.058ZM-312.41 331.195C-310.599 328.997 -308.826 326.77 -306.736 324.836C-304.814 323.056 -302.479 322.295 -299.941 321.581C-293.665 320.935 -287.25 320.249 -280.83 319.625C-278.239 319.373 -275.633 319.247 -273.035 319.072C-267.489 318.703 -262.674 321.014 -258.082 323.981C-255.962 325.349 -255.111 327.41 -255.534 330.037C-256.07 333.353 -257.308 336.379 -258.744 339.319C-261.471 344.907 -264.272 350.454 -267.492 355.746C-268.118 356.775 -268.861 357.738 -269.645 358.642C-271.658 360.962 -274.265 361.83 -277.203 361.466C-284.013 360.62 -290.78 359.439 -297.406 357.462C-300.665 356.491 -303.176 354.409 -305.049 351.423C-307.943 346.805 -310.825 342.186 -313.096 337.191C-314.086 335.011 -313.9 332.996 -312.413 331.192L-312.41 331.195ZM-245.911 332.536C-247.883 328.228 -247.255 324.57 -243.893 321.572C-237.594 315.954 -230.739 311.144 -223.276 307.319C-221.524 306.422 -219.531 306.473 -217.714 305.96C-213.252 304.29 -209.162 305.15 -205.262 307.938C-203.193 309.418 -200.936 310.601 -198.845 312.049C-195.704 314.225 -195.143 315.96 -196.267 319.729C-197.935 325.317 -200.75 330.4 -202.67 335.856C-206.422 346.512 -214.289 353.107 -222.755 359.164C-225.55 361.163 -227.901 360.827 -230.026 358.073C-236.151 350.129 -241.689 341.752 -245.91 332.534L-245.911 332.536ZM-201.787 339.789C-199.413 333.035 -196.588 326.494 -193.42 320.122C-191.888 317.039 -190.256 316.151 -186.974 316.502C-186.665 316.534 -186.355 316.589 -186.046 316.601C-181.052 316.78 -177.426 319.168 -175.097 323.902C-174.126 325.879 -172.857 327.703 -171.676 329.563C-170.118 332.012 -169.023 334.624 -168.701 337.562C-167.646 345.981 -167.485 354.442 -167.246 362.905C-167.141 366.602 -170.227 369.239 -173.967 366.965C-182.32 361.885 -190.635 356.741 -198.551 350.924C-202.6 347.949 -203.472 344.571 -201.789 339.79L-201.787 339.789ZM-173.815 319.92C-175.132 317.562 -174.982 315.329 -173.763 313.067C-172.571 310.858 -171.072 308.886 -169.555 306.934C-166.13 302.525 -162.606 298.2 -159.227 293.755C-156.416 290.057 -152.684 287.749 -148.742 285.675C-146.749 284.627 -144.661 284.532 -142.569 285.049C-134.902 286.94 -127.308 289.137 -119.913 292.044C-116.576 293.355 -115.822 295.496 -117.333 298.872C-118.918 302.412 -121.188 305.484 -123.375 308.612C-126.799 313.512 -130.091 318.506 -133.84 323.158C-137.021 327.106 -140.818 329.647 -144.154 329.852C-151.234 330.849 -156.628 331.672 -162.118 331.684C-164.959 331.691 -167.168 330.492 -168.827 328.051C-170.614 325.421 -172.259 322.704 -173.815 319.92ZM-130.526 323.765C-124.899 314.637 -118.709 305.944 -112.226 297.477C-110.578 295.326 -108.323 294.683 -105.803 294.648C-103.778 294.619 -102.626 295.879 -101.75 297.621C-99.582 301.94 -98.147 306.559 -96.5688 311.109C-94.9275 315.844 -93.1449 320.544 -91.8802 326.688C-91.0555 333.535 -90.9253 341.598 -91.2871 349.663C-91.4486 353.241 -93.2044 355.661 -96.2573 357.223C-99.8613 359.067 -103.48 360.865 -107.244 362.331C-109.917 363.371 -112.37 362.988 -114.483 360.79C-115.194 360.049 -115.943 359.329 -116.559 358.506C-121.553 351.819 -126.217 344.891 -130.551 337.719C-133.407 332.991 -133.34 328.329 -130.525 323.762L-130.526 323.765ZM-102.716 281.79C-104.227 276.634 -105.001 271.333 -106.147 266.106C-107.139 260.258 -108.772 254.509 -108.842 248.522C-108.869 245.981 -108.324 243.621 -106.967 241.523C-105.342 239.01 -103.743 236.476 -102.038 234.026C-100.342 231.586 -98.0269 230.53 -95.0751 231.038C-90.3954 231.845 -85.7587 232.866 -81.2208 234.362C-78.3415 235.312 -76.7177 237.56 -75.7532 240.423C-75.0441 242.525 -74.449 244.656 -74.0879 246.856C-72.998 253.488 -71.1751 259.989 -70.5704 266.712C-70.2135 270.686 -71.285 273.962 -74.4913 276.143C-80.7037 280.368 -87.3196 283.857 -94.2257 286.66C-98.8305 288.529 -101.234 286.838 -102.714 281.788L-102.716 281.79ZM-93.5028 290.144C-86.2909 285.643 -78.7611 281.757 -71.0422 278.271C-69.9775 277.79 -68.7773 277.624 -67.6408 277.312C-65.6132 276.939 -63.5763 276.804 -61.5138 276.959C-56.4216 277.345 -51.3241 277.716 -46.3038 278.843C-42.6304 279.669 -41.6099 281.234 -42.1881 285.126C-42.3406 286.151 -42.564 287.172 -42.8468 288.163C-45.1332 296.189 -47.83 304.055 -50.7886 311.826C-52.7005 316.848 -56.1645 319.811 -61.195 320.65C-68.0499 321.793 -74.9483 322.703 -81.8998 323.055C-86.6964 323.297 -89.2491 321.602 -91.176 316.955C-93.5211 311.295 -95.5661 305.514 -97.0597 299.55C-98.19 295.034 -97.3134 292.523 -93.5048 290.144L-93.5028 290.144ZM-48.2278 314.503C-46.2461 306.648 -43.7546 298.987 -40.6257 291.571C-40.0239 290.144 -39.2207 288.831 -38.2819 287.631C-36.1533 284.903 -33.6599 284.615 -30.9469 286.772C-28.2517 288.913 -26.2482 291.734 -24.4376 294.644C-18.1979 304.672 -12.5235 315.047 -7.16696 325.609C-6.21249 327.49 -5.85402 329.56 -5.4101 331.603C-4.05319 339.244 -4.41542 340.061 -10.9825 343.461C-15.1835 345.635 -19.3738 347.833 -23.7737 349.569C-27.3719 350.988 -30.0073 350.537 -32.5104 347.364C-37.8737 340.56 -42.8312 333.426 -46.9196 325.709C-48.767 322.219 -49.2124 318.405 -48.2274 314.505L-48.2278 314.503ZM-9.33046 315.471C-14.4781 307.987 -18.6119 299.846 -22.9292 291.832C-24.3478 289.199 -25.6635 286.512 -26.6423 283.661C-27.8653 280.097 -27.1999 277.084 -24.4013 274.757C-19.5921 270.756 -13.9731 268.138 -8.63812 265.036C-5.67266 263.311 -2.70912 261.566 0.678588 260.832C1.96563 260.583 3.26915 260.377 4.56978 260.662C9.28501 261.694 13.9034 263.106 18.3602 265.074C19.9729 265.786 21.2129 267.05 21.9194 268.727C23.6723 272.884 24.8081 277.247 25.6405 281.672C26.2751 285.041 24.9668 287.927 23.2141 290.607C19.2295 296.701 14.4491 302.118 9.94508 307.767C7.53587 310.79 5.11633 313.813 2.41506 316.564C-2.51043 321.586 -5.22379 321.444 -9.33247 315.471L-9.33046 315.471ZM1.35801 322.725C7.95081 314.111 14.6085 305.554 21.7661 297.447C23.0237 296.023 24.3582 294.686 25.8824 293.571C28.261 291.828 30.737 291.546 33.4197 292.999C36.8003 294.828 39.6063 297.484 42.5378 299.948C46.1616 302.992 49.672 306.184 53.2782 309.253C57.6948 313.012 59.5812 318.117 60.6487 323.694C61.0414 325.739 60.0954 327.038 58.633 328.111C55.6867 330.272 52.406 331.775 49.1473 333.328C39.9397 337.71 30.6846 341.976 21.2881 345.928C16.2517 348.047 11.5688 347.983 6.89429 344.868C5.7853 344.128 4.63645 343.437 3.45262 342.842C0.433735 341.324 -1.51943 339.078 -1.42651 335.297C-3.09565 330.492 -1.49467 326.454 1.35481 322.73L1.35801 322.725ZM54.8999 306.473C47.2241 301.074 40.2304 294.756 33.3554 288.306C29.6795 284.858 28.3006 280.083 27.0952 275.31C26.5194 273.035 26.1259 270.711 25.6915 268.4C25.3928 266.806 25.7737 265.251 26.9158 264.301C32.7643 259.436 38.9315 255.116 45.0543 253.242C50.5096 252.521 54.723 252.258 58.9495 252.433C62.5588 252.582 63.7546 253.704 64.3214 257.412C65.1425 262.793 64.7498 268.207 64.8245 273.608C64.8678 276.799 64.7381 279.99 64.8144 283.181C65.0015 290.858 62.9862 297.96 60.1302 304.841C58.8964 307.814 57.4933 308.293 54.9039 306.472L54.8999 306.473ZM67.3791 281.577C66.6323 272.214 66.9151 262.846 67.2829 253.491C67.4272 249.836 71.3381 248.139 74.0767 248.41C82.0101 249.192 89.8857 250.491 97.7269 252.057C98.276 252.167 98.8115 252.366 99.3468 252.543C102.967 253.728 104.143 255.128 104.456 259.122C104.745 262.822 104.745 266.532 104.614 270.242C104.476 274.141 102.619 276.627 99.3551 278.183C94.073 280.7 88.5345 282.516 83.0637 284.521C80.386 285.502 77.7082 286.504 75.6421 286.88C69.5151 288.416 67.8402 287.353 67.3787 281.575L67.3791 281.577ZM107.199 256.184C107.282 252.859 111.031 249.751 114.776 249.549C115.643 249.502 116.519 249.525 117.38 249.429C120.872 249.039 123.783 250.173 126.425 252.727C131.048 257.193 135.684 261.633 139.946 266.481C142.245 269.096 143.264 271.516 144.091 276.464C145.023 282.993 144.614 290.554 144.619 298.11C144.622 301.823 144.721 305.552 144.21 309.229C143.542 314.046 141.776 315.495 137.146 314.944C132.314 314.369 127.541 313.369 122.762 312.379C117.946 311.383 115.187 308.344 113.891 303.584C111.954 296.465 110.101 289.321 108.532 282.107C106.666 273.524 106.98 264.844 107.195 256.185L107.199 256.184ZM141.343 263.447C137.464 259.898 133.714 256.206 130.207 252.249C129.697 251.673 129.217 251.052 128.801 250.4C127.406 248.214 127.516 246.939 129.206 245.017C129.331 244.875 129.451 244.721 129.596 244.607C135.739 239.74 141.951 234.932 149 231.584C153.288 229.548 158.065 229.735 162.729 230.04C164.487 230.155 166.059 231.1 167.407 232.368C173.452 238.049 178.925 244.289 183.909 250.997C184.443 251.717 184.902 252.524 185.269 253.351C186.455 256.017 185.891 257.951 183.566 259.539C181.571 260.901 179.283 261.514 177.029 262.183C174.771 262.853 172.479 263.416 170.181 263.933C167.88 264.45 165.555 264.85 162.154 265.513C159.568 265.877 155.977 266.869 152.24 267.15C148.09 267.462 144.49 266.328 141.341 263.446L141.343 263.447ZM171.013 230.799C170.604 230.224 170.257 229.579 169.991 228.92C169.722 228.262 169.588 227.545 169.511 227.264C169.158 225.551 169.059 224.24 169.348 222.961C170.795 216.573 172.711 210.346 174.996 204.256C175.755 202.232 177.077 200.626 178.753 199.318C181.276 197.347 183.938 195.609 186.668 193.967C189.502 192.264 192.148 192.652 194.624 194.78C196.806 196.655 198.976 198.563 201.009 200.616C206.749 206.415 212.545 212.162 217.851 218.411C218.434 219.097 218.987 219.826 219.453 220.598C221.091 223.308 221.063 224.91 219.113 227.338C215.221 232.184 210.916 236.626 206.536 240.979C203.01 244.487 199.655 248.202 195.749 251.273C193.242 253.245 191.251 253.328 188.859 251.062C182.33 244.878 176.278 238.21 171.01 230.797L171.013 230.799ZM194.335 257.803C198.388 253.107 202.698 248.691 207.619 244.975C208.057 244.644 208.618 244.487 208.929 244.34C211.235 244.092 213.078 244.832 214.79 246.032C220.081 249.742 224.724 254.282 229.404 258.766C235.938 265.03 242.436 271.334 248.922 277.65C250.347 279.037 251.658 280.547 252.698 282.296C253.631 283.865 253.446 285.232 252.317 286.565C249.771 289.575 247.98 290.135 244.223 288.661C235.125 285.088 226.498 280.369 217.722 276.019C211.6 272.986 205.649 269.603 199.875 265.874C198.003 264.665 196.158 263.408 194.669 261.679C193.632 260.475 193.236 259.077 194.339 257.8L194.335 257.803ZM253.999 212.049C254.229 214.015 253.145 215.328 251.442 216.11C249.031 217.219 246.405 217.397 243.869 217.968C240.024 219.046 236.025 219.186 232.105 219.811C226.472 220.707 221.928 217.996 217.954 214.037C212.042 208.148 206.152 202.236 200.53 196.027C195.82 190.829 194.089 184.991 195.484 178.056C196.979 170.624 198.368 163.166 200.807 156.015C203.029 149.498 205.464 148.753 210.895 152.702C214.114 155.044 216.869 157.937 219.506 160.929C229.17 171.899 238.779 182.916 247.888 194.405C252.002 199.594 253.26 205.712 253.997 212.047L253.999 212.049ZM234.082 109.328C234.527 114.091 233.505 118.202 229.942 121.188C222.338 127.564 214.35 133.381 205.763 138.262C204.717 138.857 203.582 139.146 202.409 139.328C199.256 139.815 196.797 138.103 196.332 134.8C195.521 129.037 195.709 123.232 195.652 117.446C195.58 110.291 195.342 103.127 195.945 95.9911C196.279 92.0577 197.569 88.5592 199.836 85.4526C202.194 82.2228 204.459 78.9225 207.052 75.8843C209.059 73.5348 211.599 72.6942 214.525 72.7616C216.635 72.8106 218.75 72.8047 220.854 72.9685C225.437 73.3258 226.765 74.6798 228.22 79.357C229.739 84.2469 230.33 89.3176 231.508 94.2677C232.288 99.2997 233.606 104.229 234.081 109.326L234.082 109.328ZM178.202 15.7599C179.331 15.8205 180.419 16.1493 181.46 16.6153C192.013 21.3247 202.372 26.4683 212.439 32.27C217.493 35.1835 220.589 39.5363 221.618 45.4863C222.085 48.1895 222.659 50.8761 223.185 53.5701C224.007 57.5321 225.044 61.473 225.187 65.5345C225.286 68.3467 224.348 69.2817 221.709 69.3732C214.127 69.6422 206.702 68.7094 199.442 66.0777C194.653 64.3415 189.81 62.7791 184.966 61.2354C179.726 59.5665 176.582 56.14 175.655 50.35C174.58 43.6489 172.762 37.0557 172.556 30.2326C172.42 25.7092 173.856 21.5317 175.305 17.3909C175.768 16.0695 176.931 15.6898 178.201 15.7559L178.202 15.7599ZM100.47 20.4956C100.23 16.9114 101.44 15.0294 104.733 13.6123C107.021 12.6269 109.411 11.9148 111.837 11.4208C119.196 9.92107 126.574 8.52286 133.944 7.08485C141.253 5.65885 148.548 4.14054 155.881 2.84624C159.474 2.21343 163.119 1.72519 166.798 1.90378C169.807 2.04992 170.627 2.92271 171.464 5.97525C173.477 13.3275 170.996 19.828 168.409 26.3037C167.953 27.4419 166.955 28.2708 165.939 28.8675C160.345 32.1587 154.596 35.1391 148.423 37.1119C145.357 38.0921 142.155 37.8949 138.989 37.548C128.835 36.4351 118.677 35.3334 108.614 33.3643C107.577 33.1619 106.543 32.8616 105.543 32.4971C103.253 31.6634 101.765 30.1463 101.3 27.4881C100.892 25.1636 100.621 22.8331 100.466 20.4964L100.47 20.4956ZM107.19 54.0748C110.44 61.3181 113.917 68.4572 116.78 75.8834C117.036 76.5502 117.232 77.2409 117.455 77.9202C117.909 79.8661 117.46 81.5235 116.313 83.0505C114.285 85.7469 112.149 88.32 109.539 90.4299C105.928 93.3484 102.332 96.2909 98.7633 99.2633C96.0518 101.519 93.0849 102.222 89.7083 101.015C83.9231 98.947 77.9284 97.4956 72.7777 93.6717C70.7796 92.1883 69.9851 90.4617 70.1563 88.0325C70.4404 83.9847 71.4044 80.0831 72.2316 76.1565C73.4971 70.1348 74.5292 64.0471 76.369 58.1798C77.3306 55.111 78.769 52.3416 81.1232 50.2196C85.0041 46.7217 89.035 43.4114 93.4377 40.6543C96.9201 38.4733 98.8056 38.9357 101.216 42.4682C103.673 46.07 105.406 50.0959 107.192 54.0744L107.19 54.0748ZM27.9076 28.4857C29.3476 27.9115 30.7917 27.2951 32.2911 26.9509C40.8839 24.975 49.4726 22.9667 57.4087 21.66C66.7462 19.7184 75.3463 18.0756 84.0193 16.8482C86.4082 16.5101 88.8373 16.3357 91.2533 16.3166C94.4392 16.292 96.0665 18.0192 96.3401 21.3551C96.4999 23.3046 96.6641 25.2553 96.8747 27.2011C97.289 31.0466 96.2364 34.2612 93.4144 36.7635C89.174 40.5216 84.727 43.9916 79.9673 47.0001C77.347 48.6556 74.4288 49.0907 71.364 48.7427C67.9387 48.3535 64.6197 47.4107 61.3083 46.4541C51.8489 43.7248 42.3807 41.0345 33.073 37.7304C30.1564 36.6947 27.7898 35.0869 26.7266 31.8245C26.2215 30.2707 26.3737 29.0968 27.9076 28.4857ZM33.2235 40.9106C34.9695 40.9851 36.6917 41.2976 38.386 41.7519C46.916 44.0387 55.396 46.5233 63.7738 49.4036C65.6185 50.0371 67.3819 50.8456 69.0837 51.8664C72.002 53.6185 73.2049 56.3187 72.8661 59.6006C71.9895 68.0909 70.1844 76.3762 67.7231 84.4777C66.537 88.3813 63.8633 90.1546 59.8267 90.0974C54.732 90.0257 49.6527 89.7692 44.5721 89.358C40.2015 89.0046 37.0897 86.968 35.4658 82.4374C33.5768 77.1716 31.3707 72.0235 29.9055 66.3941C29.1915 59.3748 28.5163 52.1745 28.8538 44.9459C28.9903 42.0216 30.4319 40.7902 33.2251 40.9083L33.2235 40.9106ZM-42.2408 44.7392C-42.0191 42.9384 -40.3252 42.2815 -38.8963 41.6929C-36.309 40.6284 -33.6272 39.8057 -30.8906 39.2635C-16.8243 36.4799 -2.75319 33.7201 11.3353 31.0498C13.818 30.5799 16.3559 30.2768 18.9154 30.3062C20.8116 30.3266 22.0615 31.2187 22.914 33C24.3768 36.0605 24.9918 39.2864 25.1185 42.651C25.3118 47.7932 25.7387 52.9395 25.7185 58.0759C25.6946 63.9751 23.936 65.8321 18.4396 67.3568C14.1242 68.554 9.7343 69.3589 4.4733 70.4845C3.05359 70.7615 0.732598 71.1833 -1.57361 71.6705C-6.798 72.7724 -11.8036 72.0905 -16.6682 69.6276C-23.6114 66.1142 -30.4193 62.3327 -37.2091 58.496C-42.4144 55.5544 -42.969 50.6416 -42.2408 44.7392ZM-40.7168 60.2833C-39.3466 60.7244 -37.9759 61.2212 -36.6768 61.8579C-31.0002 64.6374 -25.5463 67.9023 -19.9064 70.7468C-13.0068 74.2275 -8.84635 79.9795 -6.14177 87.2073C-3.6529 93.8576 -1.08181 100.475 1.43566 107.114C1.68711 107.779 1.83444 108.492 1.99765 109.191C3.05538 113.715 0.911669 116.545 -3.59306 116.656C-7.61167 116.754 -11.515 115.89 -15.4004 114.907C-20.9858 113.494 -26.4572 111.628 -31.9776 109.957C-38.458 107.991 -42.6341 104.218 -42.6326 98.1726C-44.0525 88.6659 -44.9905 80.573 -45.5958 72.442C-45.8759 68.6922 -44.8591 65.2305 -43.6972 61.8046C-43.2037 60.3513 -42.1127 59.8369 -40.716 60.2873L-40.7168 60.2833ZM-114.354 58.941C-114.509 57.4924 -113.718 56.6132 -112.606 56.0245C-110.947 55.1473 -109.166 54.5665 -107.349 54.1686C-98.7956 52.2994 -90.2802 50.2538 -81.6423 48.7937C-73.1444 46.9436 -64.567 45.5221 -55.9823 44.1591C-53.9653 43.8378 -51.9087 43.7298 -49.8535 43.9423C-48.0026 44.1326 -46.8614 45.1327 -46.603 47.1332C-45.796 53.3928 -46.1929 59.4929 -48.4065 65.3671C-49.1547 67.3533 -50.5435 68.6549 -52.3249 69.5497C-57.3448 72.0699 -62.6824 73.7536 -67.9097 75.7174C-71.3932 77.027 -74.9664 78.0876 -78.5169 79.212C-82.8012 80.5684 -86.8856 80.0971 -90.854 78.1079C-97.2462 74.9042 -103.421 71.2531 -109.579 67.57C-112.859 65.6077 -113.975 62.5331 -114.355 58.9434L-114.354 58.941ZM-108.929 71.099C-103.021 73.8415 -97.3645 77.1289 -91.8723 80.7169C-88.6242 82.8384 -87.2088 86.0155 -87.5593 89.9131C-88.279 97.8978 -89.6688 105.765 -91.5801 113.495C-92.9394 118.994 -93.9532 119.64 -99.4197 120.378C-101.202 120.627 -102.985 120.834 -104.782 120.984C-107.447 121.209 -109.38 120.217 -110.744 117.808C-113.032 113.775 -114.532 109.381 -116.253 105.091C-117.366 102.315 -118.505 99.5507 -119.128 96.5784C-119.676 93.959 -119.714 91.3868 -119.239 88.8156C-118.329 83.898 -117.161 79.0477 -115.706 74.2884C-114.464 70.2188 -112.723 69.338 -108.929 71.099ZM-166.04 66.016C-162.22 64.6346 -158.213 64.0985 -154.275 63.2456C-151.062 62.5505 -147.821 61.9719 -144.593 61.342L-144.577 61.4236C-138.729 60.2827 -132.888 59.108 -127.029 58.0185C-125.083 57.6575 -123.099 57.4975 -121.105 57.5939C-119.466 57.6727 -118.496 58.5554 -118.046 60.248C-117.128 63.704 -116.732 67.1069 -117.571 70.6597C-118.729 75.5721 -119.785 80.512 -121.112 85.3765C-122.775 91.4737 -124.155 92.7261 -130.199 93.0359C-133.85 93.2236 -137.521 93.0951 -141.184 93.0868C-145.873 93.0763 -149.72 90.8735 -153.161 87.7114C-158.118 83.1559 -162.941 78.4439 -167.496 73.44C-167.582 73.3454 -167.667 73.2483 -167.752 73.1513C-170.918 69.5371 -170.43 67.5996 -166.04 66.014L-166.04 66.016ZM-175.242 69.8167C-170.484 73.1867 -166.679 77.7109 -162.43 81.6984C-160.002 83.9779 -157.71 86.4181 -155.427 88.8579C-152.044 92.4712 -150.538 96.7253 -151.523 101.728C-153.174 110.125 -155.14 118.44 -157.926 126.483C-159.683 131.558 -161.255 132.405 -166.418 131.657C-169.19 131.256 -171.922 130.513 -174.689 130.057C-179.254 129.308 -181.848 126.325 -183.196 121.937C-185.203 115.402 -187.158 108.85 -188.681 102.174C-189.625 98.3699 -189.688 94.5716 -188.955 90.7523C-187.856 85.0275 -186.877 79.2703 -185.433 73.6331C-184.223 68.9047 -179.174 67.0275 -175.24 69.8164L-175.242 69.8167ZM-248.311 82.4538C-244.538 80.5692 -240.392 79.9317 -236.359 78.9859C-231.345 77.8113 -226.255 76.9671 -221.196 75.98C-213.7 74.5443 -206.241 72.8948 -198.651 71.9676C-196.618 71.7195 -194.573 71.5396 -192.523 71.8502C-190.217 72.1994 -189.037 73.4398 -189.244 75.814C-189.735 81.4616 -190.724 87.0287 -192.681 92.3095C-194.146 96.2634 -197.676 97.5119 -201.162 98.4895C-207.254 100.196 -213.44 101.534 -219.589 103.02C-225.945 104.558 -231.47 103.316 -236.512 98.8227C-240.337 95.4134 -244.35 92.2369 -248.006 88.6151C-248.417 88.2079 -248.829 87.7987 -249.2 87.3548C-251.004 85.1869 -250.745 83.6701 -248.311 82.4557L-248.311 82.4538ZM-270.521 90.6989C-270.411 87.5546 -269.536 86.8944 -266.588 85.9267C-264.55 85.2585 -262.469 85.0736 -260.377 84.8306C-258.273 84.5873 -256.39 85.4035 -254.766 86.6521C-248.079 91.7874 -241.657 97.2675 -235.598 103.215C-231.677 107.064 -230.549 112.084 -230.097 117.271C-229.45 124.73 -229.005 132.209 -228.636 139.69C-228.418 144.121 -230.25 146.947 -233.707 148.982C-235.38 149.968 -237.217 149.731 -238.983 149.756C-242.704 149.808 -246.432 149.681 -250.155 149.54C-257.171 149.27 -259.179 147.915 -261.462 140.925C-264.68 131.073 -267.23 121.015 -269.375 112.653C-271.135 104.223 -270.756 97.4489 -270.522 90.6969L-270.521 90.6989ZM-263.191 147.341C-263.152 150.177 -264.052 152.563 -265.851 154.579C-269.222 158.355 -272.893 161.8 -276.615 165.186C-279.503 167.813 -282.809 169.059 -286.721 168.448C-289.614 167.997 -292.535 167.743 -295.422 167.248C-299.369 166.573 -300.82 165.04 -300.891 160.834C-301.027 152.622 -300.671 144.426 -299.636 136.299C-299.109 132.158 -296.935 128.973 -293.92 126.414C-289.131 122.351 -284.221 118.454 -279.072 114.894C-279.021 114.86 -278.968 114.826 -278.915 114.791C-274.765 112.04 -272.715 112.627 -270.869 117.474C-269.528 120.994 -268.474 124.643 -267.456 128.279C-266.135 132.987 -264.975 137.742 -263.744 142.477C-263.55 144.106 -263.214 145.687 -263.191 147.341ZM-322.593 97.1943C-320.747 96.1113 -318.723 95.4541 -316.663 95.0254C-311.252 93.8974 -305.819 92.8848 -300.394 91.8264C-293.768 90.4593 -287.172 88.8997 -280.412 88.2954C-280.041 88.2623 -279.674 88.1763 -279.303 88.1595C-275.085 87.9811 -273.669 89.163 -273.433 93.5657C-273.266 96.6828 -273.334 99.8313 -273.573 102.939C-273.777 105.6 -274.93 107.9 -276.853 109.713C-282.459 114.999 -288.542 119.625 -294.907 123.849C-298.161 126.008 -301.415 125.916 -304.62 123.336C-306.975 121.441 -309.074 119.273 -311.132 117.058C-314.464 113.472 -317.741 109.83 -321.022 106.194C-322.148 104.948 -323.133 103.583 -323.912 102.066C-325.039 99.8671 -324.663 98.4057 -322.597 97.1931L-322.593 97.1943ZM-340.229 111.293C-340.668 108.807 -341.028 106.266 -340.718 103.713C-340.463 101.61 -339.394 100.454 -337.433 99.7903C-333.713 98.5336 -330.564 99.4724 -327.824 102.255C-320.474 109.725 -313.199 117.271 -306.614 125.512C-303.417 129.512 -302.233 134.063 -302.347 139.172C-302.504 146.334 -302.733 153.492 -303.366 160.611C-303.911 166.715 -303.998 166.891 -310.506 167.205C-315.458 167.444 -320.364 165.832 -325.172 164.388C-327.355 163.734 -328.684 161.969 -329.665 159.889C-331.18 156.68 -331.931 153.21 -332.701 149.793C-334.137 143.416 -335.258 136.97 -336.51 130.552C-337.763 124.133 -339.089 117.729 -340.229 111.293ZM-326.103 168.216C-323.324 168.621 -320.566 169.153 -317.846 169.917C-313.984 171.004 -313.116 171.985 -312.075 177.524C-311.448 181.381 -311.721 186.658 -311.724 191.925C-311.727 198.568 -311.876 205.206 -312.548 211.808C-312.707 213.37 -313.015 214.89 -313.575 216.338C-314.658 219.133 -316.285 220.062 -319.169 219.517C-321.357 219.103 -323.296 218.015 -325.206 216.878C-334.262 211.486 -343.147 205.814 -351.445 199.161C-353.898 197.194 -355.031 194.674 -354.842 191.498C-354.835 191.369 -354.809 191.238 -354.819 191.109C-355.364 184.724 -352.825 180.362 -347.435 177.444C-342.679 174.87 -338.277 171.603 -333.372 169.287C-331.07 168.199 -328.632 167.848 -326.103 168.216ZM-343.668 113.653C-342.86 114.995 -342.322 116.472 -341.929 117.992C-340.138 124.888 -338.777 131.878 -337.137 140.559C-336.507 144.672 -334.995 150.364 -334.399 156.236C-333.851 161.643 -335.015 165.935 -339.719 168.84C-343.277 171.037 -346.799 173.29 -350.43 175.353C-354.181 177.486 -357.961 177.531 -361.863 175.575C-365.539 173.733 -369.254 171.975 -372.749 169.761C-377.236 166.921 -377.984 164.533 -376.101 159.438C-374.641 155.489 -372.537 151.904 -370.46 148.312C-364.671 138.303 -358.758 128.376 -352.49 118.691C-351.104 116.55 -349.664 114.437 -347.683 112.842C-346.008 111.495 -344.815 111.745 -343.671 113.649L-343.668 113.653ZM-388.983 121.09C-389.729 112.858 -387.965 109.802 -380.31 107.924C-372.544 106.021 -364.724 104.243 -356.712 103.589C-350.433 103.076 -348.736 105.393 -350.961 111.526C-352.82 116.643 -355.648 121.216 -358.339 125.847C-363.73 135.119 -369.005 144.475 -375.222 153.175C-376.074 154.368 -377.028 155.467 -378.196 156.333C-379.504 157.303 -380.632 157.087 -381.526 155.645C-382.636 153.85 -383.197 151.823 -383.626 149.784C-384.527 145.501 -385.322 141.194 -386.16 136.897C-387.099 131.629 -388.496 126.437 -388.981 121.087L-388.983 121.09ZM-378.315 180.666C-378.724 178.528 -379.093 176.288 -378.833 174.061C-378.568 171.797 -377.627 171.118 -375.521 171.801C-373.182 172.56 -371.012 173.76 -368.869 174.985C-365.681 176.807 -362.324 178.296 -359.342 180.519C-357.996 181.522 -357.075 182.778 -356.843 184.552C-356.755 189.628 -356.774 194.696 -358.409 199.553C-360.53 205.851 -363.204 211.9 -365.716 218.022C-365.984 218.675 -366.285 219.321 -366.639 219.923C-367.175 220.831 -367.517 222.271 -368.693 222.155C-369.984 222.029 -370.169 220.539 -370.462 219.427C-373.814 206.656 -375.845 193.615 -378.317 180.666L-378.315 180.666ZM-340.627 374.344C-341.28 371.545 -342.203 368.813 -342.69 365.967C-343.166 362.736 -343.68 359.509 -344.105 356.273C-344.567 352.755 -343.53 350.622 -340.456 349.231C-337.23 347.773 -333.926 346.495 -330.62 345.24C-329.743 344.908 -328.656 344.374 -327.792 345.248C-326.945 346.107 -327.397 347.222 -327.615 348.215C-328.427 351.903 -329.909 355.335 -331.23 358.823C-333.258 364.18 -335.15 369.601 -337.642 374.745C-338.011 375.507 -338.325 376.677 -339.35 376.538C-340.376 376.4 -340.423 375.211 -340.625 374.344L-340.627 374.344ZM-337.837 384.806C-338 382.281 -337.695 379.83 -336.901 377.512C-332.856 365.746 -328.731 354.013 -323.487 342.774C-322.742 341.181 -321.614 339.889 -320.482 338.619C-319.371 337.374 -318.07 337.358 -316.889 338.623C-316.016 339.561 -315.141 340.535 -314.453 341.621C-310.884 347.261 -307.142 352.833 -304.957 359.247C-303.953 362.195 -303.444 365.321 -302.99 367.212C-301.511 376.643 -299.916 384.851 -299.206 393.191C-298.786 398.122 -300.456 401.12 -304.932 402.148C-312.673 403.927 -320.487 405.381 -328.47 405.592C-332.549 405.7 -334.311 404.253 -335.181 400.036C-336.224 394.99 -337.504 389.981 -337.84 384.805L-337.837 384.806ZM-279.369 419.814C-283.057 421.733 -287.117 422.476 -291.083 423.444C-295.364 424.49 -299.73 425.178 -304.058 426.023C-309.685 426.976 -315.202 428.583 -320.932 428.952C-322.046 429.022 -323.165 429.119 -324.279 429.072C-327.409 428.939 -328.799 427.613 -329.756 424.45C-330.727 421.242 -331.347 417.997 -331.639 414.662C-331.872 411.979 -331.095 410.51 -328.708 409.511C-327.554 409.03 -326.379 408.654 -325.145 408.446C-316.765 407.028 -308.414 405.43 -299.886 405.065C-297.284 404.954 -294.782 405.478 -292.402 406.523C-287.715 408.583 -283.171 410.964 -278.983 414.038C-275.896 416.305 -276.014 418.067 -279.369 419.814ZM-274.293 413.179C-280.176 410.679 -285.793 407.613 -291.059 403.886C-293.74 401.991 -294.989 398.977 -295.753 395.801C-296.288 393.58 -296.647 391.314 -297.085 389.068C-298.359 381.802 -299.769 374.551 -300.24 367.173C-300.273 366.655 -300.273 366.13 -300.244 365.612C-300.067 362.368 -298.883 361.02 -295.781 361.292C-289 361.886 -282.309 363.23 -275.792 365.391C-271.609 366.779 -270.058 370.62 -268.724 374.523C-266.296 381.631 -264.505 388.928 -262.618 396.193C-261.617 400.044 -262.097 403.682 -264.691 406.811C-266.103 408.514 -267.311 410.402 -268.853 411.998C-270.417 413.616 -272.189 414.074 -274.29 413.18L-274.293 413.179ZM-199.2 404.771C-202.109 405.886 -205.127 406.634 -208.153 407.28C-213.982 408.527 -219.848 409.593 -225.699 410.735C-234.231 412.383 -242.72 414.289 -251.36 415.314C-255.049 415.75 -258.748 416.301 -262.496 415.919C-265.797 415.584 -266.427 414.131 -264.593 411.33C-261.263 406.245 -257.179 402.064 -251.958 399.087C-245.944 395.658 -240.029 392.046 -234.058 388.537C-228.876 385.494 -223.657 384.965 -218.084 388.042C-212.485 391.131 -206.668 393.781 -201.173 397.099C-199.439 398.147 -198.097 399.531 -197.653 401.725C-197.334 403.298 -197.827 404.247 -199.198 404.771L-199.2 404.771ZM-203.944 392.545C-209.282 389.788 -214.628 387.055 -219.828 384.005C-222.709 382.316 -224.65 380.026 -224.711 376.599C-225.338 374.322 -225.349 372.155 -225.536 370.015C-225.75 367.564 -225.097 365.373 -223.353 363.655C-219.264 359.625 -214.931 355.899 -210.25 352.647C-207.772 350.927 -204.999 350.728 -202.25 352.102C-193.907 356.272 -186.191 361.568 -178.689 367.199C-175.561 369.546 -175.382 372.556 -177.848 375.627C-182.097 380.917 -186.782 385.774 -191.519 390.577C-195.193 394.301 -199.248 394.966 -203.942 392.54L-203.944 392.545ZM-129.296 387.69C-129.343 389.426 -129.879 390.509 -131.333 391.223C-134.912 392.976 -138.829 393.447 -142.64 394.269C-148.893 395.615 -155.191 396.751 -161.469 397.976C-169.933 400.024 -178.539 401.298 -187.104 402.802C-188.015 402.961 -188.96 402.937 -189.885 403.02C-191.234 403.143 -192.545 403.12 -193.337 401.674C-194.17 400.149 -194.341 398.553 -193.509 397.01C-193.056 396.172 -192.504 395.369 -191.881 394.663C-186.727 388.834 -181.478 383.114 -175.92 377.692C-169.602 371.527 -162.388 370.035 -154.227 372.976C-147.006 375.578 -139.846 378.376 -132.941 381.862C-130.584 383.05 -129.217 384.758 -129.296 387.69ZM-132.457 378.88C-134.562 378.266 -136.66 377.583 -138.7 376.761C-144.479 374.427 -150.221 371.98 -155.966 369.548C-161.641 367.146 -164.518 362.997 -164.765 356.698C-164.933 352.468 -165.276 348.239 -165.366 344.008C-165.511 337.198 -164.333 335.791 -156.799 334.418C-153.263 333.936 -148.587 333.342 -143.87 333.159C-140.326 333.023 -137.217 334.203 -134.858 337.132C-128.369 345.198 -122.606 353.805 -117.477 362.865C-116.081 365.329 -116.157 367.804 -118.003 370.11C-120.032 372.641 -122.288 374.915 -124.641 377.099C-126.901 379.196 -129.557 379.727 -132.457 378.882L-132.457 378.88ZM-65.0471 378.564C-68.1205 379.767 -71.3224 380.555 -74.5384 381.218C-81.773 382.708 -89.0344 384.071 -98.0489 385.829C-103.926 386.809 -111.451 388.785 -119.19 389.58C-119.56 389.617 -119.925 389.711 -120.296 389.744C-124.968 390.171 -126.964 387.237 -125.167 382.611C-124.615 381.192 -123.648 380.107 -122.639 379.065C-120.008 376.344 -117.338 373.667 -114.702 370.951C-110.137 366.245 -104.13 364.191 -98.4979 361.449C-97.6037 361.014 -96.665 360.68 -95.7492 360.293C-92.3115 358.843 -88.9061 358.772 -85.4702 360.578C-78.6836 364.144 -72.1746 368.222 -65.7927 372.534C-65.2677 372.891 -64.7875 373.324 -64.3041 373.741C-61.8346 375.876 -62.0502 377.391 -65.051 378.565L-65.0471 378.564ZM-58.4678 373.008C-62.1861 371.73 -65.5399 369.658 -68.9129 367.635C-72.8879 365.252 -76.8253 362.809 -80.7006 360.24C-85.492 357.065 -88.1595 352.826 -88.0905 346.788C-88.0448 342.818 -88.3181 338.84 -88.143 334.867C-87.9162 329.764 -87.0015 328.442 -82.4293 326.86C-81.5527 326.557 -80.6314 326.387 -79.9188 326.205C-73.075 325.332 -66.4513 324.271 -59.7439 323.946C-55.609 323.746 -52.0038 325.131 -49.2932 328.65C-44.3938 335.01 -39.8153 341.616 -35.8883 348.665C-33.1393 353.596 -33.4665 355.965 -37.0131 360.131C-40.3399 364.039 -43.9246 367.671 -47.8257 370.96C-51.0099 373.645 -54.5138 374.363 -58.4682 373.006L-58.4678 373.008ZM14.6911 360.279C15.0338 362.067 13.4953 363.034 12.0108 363.507C9.17629 364.414 6.34031 365.376 3.43793 365.998C-2.99624 367.375 -9.47121 368.554 -15.9303 369.814C-24.163 371.354 -32.3156 373.358 -40.6622 374.261C-41.7078 374.374 -42.768 374.476 -43.8148 374.403C-45.2249 374.307 -45.5751 373.526 -44.803 372.328C-44.3915 371.69 -43.8946 371.1 -43.3768 370.553C-38.1708 365.068 -33.4829 358.944 -27.0871 354.877C-20.7037 350.821 -13.8295 347.715 -6.87668 344.845C-4.25961 343.764 -1.53969 343.95 1.08771 345.352C4.10382 346.961 7.16243 348.471 10.0264 350.389C13.5144 352.726 13.9864 356.614 14.6884 360.275L14.6911 360.279ZM81.2962 346.138C81.5163 347.931 81.0403 349.178 79.5096 349.985C76.4414 351.606 73.0871 352.33 69.7641 353.047C63.3307 354.438 56.8494 355.606 47.2352 357.482C42.3785 358.25 34.5007 360.394 26.3835 361.184C25.7039 361.251 25.0247 361.33 24.3426 361.341C19.3622 361.433 17.112 358.953 17.3119 353.65C17.3702 352.089 18.3655 351.222 19.3893 350.384C21.7446 348.458 24.4785 347.237 27.1766 345.959C37.0158 341.296 46.8869 336.712 56.91 332.474C61.9329 330.35 66.7371 330.063 71.5514 333.156C71.8177 333.327 72.1027 333.488 72.3991 333.581C78.3836 335.445 80.568 340.197 81.2974 346.133L81.2962 346.138ZM75.0213 331.597C72.858 330.408 70.6463 329.319 68.4566 328.185C66.6244 327.235 65.3545 325.703 64.6389 323.746C63.6546 321.057 62.7617 318.329 61.9161 315.59C61.2673 313.49 61.2195 311.333 61.7698 309.22C62.7021 305.653 63.9582 302.202 65.1501 298.729C66.8884 293.663 70.9829 291.618 75.3483 289.959C82.6551 287.181 89.9177 284.26 97.4513 282.158C102.389 280.782 105.034 282.071 106.649 287.243C108.205 292.231 109.284 297.339 110.759 302.458C110.95 304.241 111.241 306.119 111.338 308.003C111.513 311.424 109.948 313.987 107.5 315.991C100.498 321.725 92.9475 326.602 85.3057 331.34C81.9539 333.419 78.5494 333.538 75.0213 331.597ZM158.23 333.067C158.273 333.992 157.563 334.556 156.802 334.934C155.461 335.598 154.097 336.17 152.64 336.539C142.038 339.216 131.255 341.017 117.88 343.732C112.293 344.972 103.946 346.254 95.6133 347.607C93.4279 347.963 91.188 348.231 88.9373 347.904C87.0851 347.633 85.7809 346.717 85.3802 344.684C85.3678 344.62 85.353 344.555 85.331 344.495C82.8389 337.311 83.9444 335.93 89.3518 331.963C96.2646 326.89 103.216 321.858 110.635 317.585C114.159 315.555 117.924 314.818 121.942 315.393C128.8 316.377 135.632 317.557 142.37 319.272C147.506 320.58 151.823 323.73 156.102 326.836C158.13 328.307 158.124 330.791 158.23 333.067ZM155.975 322.614C154.636 321.756 153.277 320.935 151.92 320.109C149.107 318.4 147.763 315.736 147.62 312.48C147.202 302.963 147.004 293.441 147.455 283.942C147.928 273.925 150.205 271.217 159.621 269.126C162.592 268.466 165.593 267.948 168.579 267.366C173.2 266.475 177.771 265.153 182.56 265.419C186.921 265.661 188.635 267.486 188.693 272.027C188.715 273.735 188.478 275.415 188.105 277.056C186.356 284.77 184.191 292.355 181.981 299.926C180.226 305.942 177.032 310.837 172.286 314.698C169.219 317.192 166.281 319.862 163.117 322.224C160.855 323.913 158.482 324.225 155.975 322.614ZM220.698 322.153C220.672 323.024 219.851 323.244 219.246 323.451C217.664 323.993 216.062 324.526 214.426 324.858C207.247 326.308 200.054 327.682 192.866 329.085C192.867 329.087 192.868 329.091 192.868 329.093C186.29 330.376 179.716 331.694 173.127 332.924C170.936 333.333 168.713 333.603 166.488 333.779C165.1 333.889 163.406 334.178 162.625 332.54C161.708 330.62 161.452 328.526 162.549 326.542C162.732 326.211 162.992 325.917 163.258 325.654C167.84 321.144 172.517 316.737 177.849 313.208C180.145 311.688 182.842 311.374 185.57 311.751C192.204 312.662 198.618 314.693 205.092 316.404C208.965 317.428 212.789 318.675 216.629 319.841C217.53 320.113 218.421 320.425 219.293 320.785C219.914 321.042 220.724 321.254 220.696 322.152L220.698 322.153ZM235.627 319.874C230.868 321.301 226.495 320.111 222.123 318.967C212.432 316.434 202.713 314.011 193.183 310.802C192.174 310.462 191.177 310.052 190.217 309.58C185.836 307.419 184.39 304.94 185.249 300.014C186.733 291.498 189.073 283.22 192.078 275.19C193.726 270.789 196.438 269.564 200.862 270.686C205.146 271.771 209.073 273.863 213.039 275.807C221.771 280.093 230.554 284.278 238.963 289.274C240.278 290.054 241.498 290.964 242.645 292.002C244.913 294.057 245.888 296.529 245.443 299.675C244.812 304.121 243.752 308.452 242.82 312.822C241.91 317.087 239.941 319.977 235.627 319.873L235.627 319.874ZM272.714 305.835C273.426 310.215 272.167 312.605 267.852 313.825C261.591 315.594 255.201 316.954 248.679 317.417C246.262 317.589 245.362 316.575 245.557 313.986C245.703 312.049 246.05 310.121 246.446 308.222C247.254 304.355 248.147 300.508 249.026 296.658C249.662 293.866 251.057 291.59 253.038 289.607C256.469 286.172 259.953 282.803 263.512 279.517C265.95 277.265 266.999 277.622 267.909 281.038C268.398 282.868 268.907 284.696 269.315 286.543C269.82 288.838 270.229 291.156 270.656 293.345C271.692 297.536 272.043 301.712 272.716 305.837L272.714 305.835Z" fill="url(#paint1_radial_5_525)"/>
</g>
<defs>
<filter id="filter0_d_5_525" x="-195.496" y="7.14709" width="385.198" height="425.89" filterUnits="userSpaceOnUse" color-interpolation-filters="sRGB">
<feFlood flood-opacity="0" result="BackgroundImageFix"/>
<feColorMatrix in="SourceAlpha" type="matrix" values="0 0 0 0 0 0 0 0 0 0 0 0 0 0 0 0 0 0 127 0" result="hardAlpha"/>
<feOffset dy="12"/>
<feGaussianBlur stdDeviation="16"/>
<feComposite in2="hardAlpha" operator="out"/>
<feColorMatrix type="matrix" values="0 0 0 0 0.27451 0 0 0 0 0.866667 0 0 0 0 0.952941 0 0 0 0.3 0"/>
<feBlend mode="normal" in2="BackgroundImageFix" result="effect1_dropShadow_5_525"/>
<feBlend mode="normal" in="SourceGraphic" in2="effect1_dropShadow_5_525" result="shape"/>
</filter>
<linearGradient id="paint0_linear_5_525" x1="-31.3976" y1="75.1803" x2="-31.3976" y2="399.18" gradientUnits="userSpaceOnUse">
<stop stop-color="#46DDF3"/>
<stop offset="1" stop-color="#0C8CAE"/>
</linearGradient>
<radialGradient id="paint1_radial_5_525" cx="0" cy="0" r="1" gradientUnits="userSpaceOnUse" gradientTransform="translate(-56.9552 226.906) rotate(78.96) scale(160.853 298.144)">
<stop stop-color="#0A0731" stop-opacity="0.1"/>
<stop offset="1" stop-color="#0A0731" stop-opacity="0"/>
</radialGradient>
</defs>
</svg>
