<svg width="1440" height="90" viewBox="0 0 1440 90" fill="none" xmlns="http://www.w3.org/2000/svg">
<g clip-path="url(#clip0_5_157)">
<rect width="1440" height="8343" transform="translate(0 -118)" fill="#F5F7F8"/>
<path d="M96 21H0V90H72C85.2548 90 96 79.2548 96 66V21Z" fill="#0A0731"/>
<path d="M1344 21H1440V90H1368C1354.75 90 1344 79.2548 1344 66V21Z" fill="#0A0731"/>
<mask id="path-3-outside-1_5_157" maskUnits="userSpaceOnUse" x="-42" y="-127" width="1524" height="202" fill="black">
<rect fill="white" x="-42" y="-127" width="1524" height="202"/>
<path d="M1481 22C1481 30.8366 1473.84 38 1465 38H1392C1383.16 38 1376 45.1634 1376 54V58C1376 66.8366 1368.84 74 1360 74H80C71.1634 74 64 66.8366 64 58V54C64 45.1634 56.8366 38 48 38H-25C-33.8366 38 -41 30.8366 -41 22V-110C-41 -118.837 -33.8366 -126 -25 -126H1465C1473.84 -126 1481 -118.837 1481 -110V22Z"/>
</mask>
<path d="M1481 22C1481 30.8366 1473.84 38 1465 38H1392C1383.16 38 1376 45.1634 1376 54V58C1376 66.8366 1368.84 74 1360 74H80C71.1634 74 64 66.8366 64 58V54C64 45.1634 56.8366 38 48 38H-25C-33.8366 38 -41 30.8366 -41 22V-110C-41 -118.837 -33.8366 -126 -25 -126H1465C1473.84 -126 1481 -118.837 1481 -110V22Z" fill="#F5F7F8"/>
<path d="M1465 38V37H1392V38V39H1465V38ZM1376 54H1375V58H1376H1377V54H1376ZM1360 74V73H80V74V75H1360V74ZM64 58H65V54H64H63V58H64ZM48 38V37H-25V38V39H48V38ZM-41 22H-40V-110H-41H-42V22H-41ZM-25 -126V-125H1465V-126V-127H-25V-126ZM1481 -110H1480V22H1481H1482V-110H1481ZM1465 -126V-125C1473.28 -125 1480 -118.284 1480 -110H1481H1482C1482 -119.389 1474.39 -127 1465 -127V-126ZM-41 -110H-40C-40 -118.284 -33.2843 -125 -25 -125V-126V-127C-34.3888 -127 -42 -119.389 -42 -110H-41ZM-25 38V37C-33.2843 37 -40 30.2843 -40 22H-41H-42C-42 31.3888 -34.3888 39 -25 39V38ZM64 54H65C65 44.6112 57.3888 37 48 37V38V39C56.2843 39 63 45.7157 63 54H64ZM80 74V73C71.7157 73 65 66.2843 65 58H64H63C63 67.3888 70.6111 75 80 75V74ZM1376 58H1375C1375 66.2843 1368.28 73 1360 73V74V75C1369.39 75 1377 67.3888 1377 58H1376ZM1392 38V37C1382.61 37 1375 44.6112 1375 54H1376H1377C1377 45.7157 1383.72 39 1392 39V38ZM1465 38V39C1474.39 39 1482 31.3888 1482 22H1481H1480C1480 30.2843 1473.28 37 1465 37V38Z" fill="#DDDFE4" mask="url(#path-3-outside-1_5_157)"/>
<line x1="4.37114e-08" y1="1.5" x2="1440" y2="1.50013" stroke="#DDDFE4"/>
</g>
<defs>
<clipPath id="clip0_5_157">
<rect width="1440" height="8343" fill="white" transform="translate(0 -118)"/>
</clipPath>
</defs>
</svg>
