<svg width="98" height="53" viewBox="0 0 98 53" fill="none" xmlns="http://www.w3.org/2000/svg">
<g clip-path="url(#clip0_27_225)">
<mask id="mask0_27_225" style="mask-type:luminance" maskUnits="userSpaceOnUse" x="0" y="-157" width="1440" height="8343">
<path d="M0 -157H1440V8186H0V-157Z" fill="white"/>
</mask>
<g mask="url(#mask0_27_225)">
<path d="M96 -18H0V51H72C85.2548 51 96 40.2548 96 27V-18Z" fill="#0A0731"/>
<path d="M-41 -17C-41 -8.16345 -33.837 -1 -25 -1H48C56.8366 -1 64 6.16344 64 15V19C64 27.8366 71.1634 35 80 35H1360C1368.84 35 1376 27.8366 1376 19V15C1376 6.16344 1383.16 -1 1392 -1H1465C1473.84 -1 1481 -8.16344 1481 -17V-149C1481 -157.837 1473.84 -165 1465 -165H-25C-33.837 -165 -41 -157.837 -41 -149V-17Z" fill="#F5F7F8"/>
<mask id="mask1_27_225" style="mask-type:luminance" maskUnits="userSpaceOnUse" x="-42" y="-166" width="1524" height="202">
<path d="M-42 -166H1482V36H-42V-166Z" fill="white"/>
</mask>
<g mask="url(#mask1_27_225)">
<path d="M-25 -1V-2H48V-1V0H-25V-1ZM64 15H65V19H64H63V15H64ZM80 35V34H1360V35V36H80V35ZM1376 19H1375V15H1376H1377V19H1376ZM1392 -1V-2H1465V-1V0H1392V-1ZM1481 -17H1480V-149H1481H1482V-17H1481ZM1465 -165V-164H-25V-165V-166H1465V-165ZM-41 -149H-40V-17H-41H-42V-149H-41ZM-25 -165V-164C-33.284 -164 -40 -157.284 -40 -149H-41H-42C-42 -158.389 -34.389 -166 -25 -166V-165ZM1481 -149H1480C1480 -157.284 1473.28 -164 1465 -164V-165V-166C1474.39 -166 1482 -158.389 1482 -149H1481ZM1465 -1V-2C1473.28 -2 1480 -8.71573 1480 -17H1481H1482C1482 -7.61116 1474.39 0 1465 0V-1ZM1376 15H1375C1375 5.61116 1382.61 -2 1392 -2V-1V0C1383.72 0 1377 6.71573 1377 15H1376ZM1360 35V34C1368.28 34 1375 27.2843 1375 19H1376H1377C1377 28.3888 1369.39 36 1360 36V35ZM64 19H65C65 27.2843 71.7157 34 80 34V35V36C70.6112 36 63 28.3888 63 19H64ZM48 -1V-2C57.3888 -2 65 5.61116 65 15H64H63C63 6.71573 56.2843 0 48 0V-1ZM-25 -1V0C-34.389 0 -42 -7.61116 -42 -17H-41H-40C-40 -8.71573 -33.284 -2 -25 -2V-1Z" fill="#DDDFE4"/>
</g>
</g>
</g>
<defs>
<clipPath id="clip0_27_225">
<rect width="98" height="53" fill="white" transform="matrix(-1 0 0 1 98 0)"/>
</clipPath>
</defs>
</svg>
