<svg width="672" height="215" viewBox="0 0 672 215" fill="none" xmlns="http://www.w3.org/2000/svg">
<mask id="mask0_5_166" style="mask-type:alpha" maskUnits="userSpaceOnUse" x="0" y="0" width="672" height="215">
<rect width="672" height="215" fill="#D9D9D9"/>
</mask>
<g mask="url(#mask0_5_166)">
<path d="M686.127 -93.9119C569.418 -93.8663 452.71 -93.8708 335.999 -93.8708C219.288 -93.8708 102.582 -93.8663 -14.1268 -93.9119C-15.6984 -93.9119 -16.051 -93.5404 -16.051 -91.8858C-16.0078 33.3869 -16.0078 158.662 -16.051 283.935C-16.051 285.589 -15.6984 285.961 -14.1268 285.961C219.29 285.917 452.71 285.917 686.127 285.961C687.698 285.961 688.051 285.589 688.051 283.935C688.008 158.662 688.008 33.3869 688.051 -91.8858C688.051 -93.5404 687.696 -93.9119 686.127 -93.9119ZM639.49 -82.6944C639.847 -85.9261 640.721 -87.3436 643.786 -87.9567C646.459 -88.4923 649.156 -88.8524 651.888 -88.8524C654.89 -88.8524 657.892 -88.8524 660.895 -88.8524C665.425 -88.727 669.96 -89.1053 674.489 -88.4877C679.406 -87.8154 681.896 -85.5819 682.331 -80.3834C683.177 -70.2712 683.19 -60.1295 682.344 -50.015C682.012 -46.0312 680.172 -45.074 676.727 -46.7765C673.292 -48.4721 670.313 -50.9358 667.267 -53.2649C659.76 -59.0104 652.252 -64.7605 645.012 -70.8843C641.387 -73.9519 638.908 -77.407 639.49 -82.6921V-82.6944ZM682.781 127.218C682.758 129.326 682.392 131.459 681.946 133.524C681.385 136.122 680.12 136.455 678.307 134.522C675.337 131.357 673.299 127.469 671.104 123.729C664.984 113.297 658.973 102.793 653.334 92.0612C651.71 88.9708 650.209 85.8165 649.384 82.3752C648.41 78.3093 649.247 75.3329 652.604 73.2066C659.735 68.6917 667.306 65.1113 675.346 62.7708C678.203 61.9389 680.22 63.2448 681.255 66.1734C682.388 69.3823 682.713 72.7781 682.772 76.1306C682.922 84.7158 682.822 93.3078 682.822 101.895C682.822 110.483 682.877 118.779 682.783 127.22L682.781 127.218ZM682.392 224.581C682.376 226.407 682.199 228.253 681.885 230.049C681.171 234.146 676.495 238.581 672.542 239.078C670.786 239.299 669.442 238.483 668.223 237.285C665.971 235.072 663.947 232.649 662.098 230.06C653.296 217.733 644.15 205.667 636.058 192.788C635.014 191.127 634.164 189.358 633.57 187.467C632.897 185.325 633.172 183.301 634.837 181.824C641.314 176.085 647.953 170.91 657.224 171.707C662.352 172.149 667.54 171.896 672.696 172.252C678.537 172.653 681.401 175.543 682.037 181.635C682.858 189.475 682.438 197.335 682.417 205.187C682.417 211.65 682.454 218.116 682.394 224.579L682.392 224.581ZM78.5754 211.351C83.313 205.086 88.1325 198.901 93.3749 193.092C97.7395 188.258 100.182 188.563 102.891 194.53C107.401 204.471 111.438 214.635 114.834 225.06C116.774 231.015 116.033 237.109 114.873 243.115C114.509 244.997 113.08 246.2 111.504 247.128C108.936 248.639 106.216 249.783 103.441 250.777C96.6478 253.211 89.9565 256.005 82.9218 257.618C78.4731 258.639 76.367 257.112 75.5118 252.361C74.5884 247.237 74.2177 242.039 73.8515 236.847C73.64 233.852 73.1533 230.867 73.4376 227.72C72.7825 221.53 74.9182 216.192 78.58 211.349L78.5754 211.351ZM528.631 30.1712C529.145 34.7225 529.102 39.2646 528.679 43.8182C528.279 48.1165 526.623 49.4474 522.686 48.1142C520.503 47.3758 518.385 46.3753 516.309 45.3383C510.065 42.2183 503.868 39.0048 497.863 35.3925C497.561 35.2102 497.261 35.021 496.965 34.825C491.848 31.4156 491.256 28.6807 494.559 23.4001C498.132 17.6865 502.01 12.2009 506.108 6.89522C509.852 2.04995 512.074 1.61693 517.314 4.64123C519.638 5.98359 521.917 7.4194 524.153 8.91673C526.191 10.2796 527.417 12.2624 527.849 14.8058C528.279 17.3401 528.679 19.8676 528.643 22.4543C528.606 25.0274 528.636 27.6004 528.636 30.1712H528.631ZM627.065 -27.0786C626.935 -24.2503 626.217 -21.5223 624.531 -19.2683C620.001 -13.2129 615.366 -7.25771 609.773 -2.20049C606.116 1.10642 602.133 1.98614 597.514 0.518425C590.666 -1.65807 584.195 -4.73023 577.922 -8.28328C574.613 -10.1567 574.074 -12.3195 575.975 -15.7312C577.815 -19.0359 580.147 -21.9758 582.485 -24.8953C587.295 -30.9006 591.939 -37.0563 597.052 -42.7904C600.07 -46.1748 603.602 -48.6977 607.842 -50.0811C612.441 -51.5807 617.081 -52.9482 621.857 -53.6068C625.882 -54.1606 626.906 -53.3447 627.347 -49.0761C627.632 -46.3207 627.4 -43.506 627.4 -40.7188C627.741 -36.1584 627.274 -31.6208 627.067 -27.0763L627.065 -27.0786ZM557.662 136.038C555.005 125.082 552.226 114.159 550.12 103.064C549.579 100.218 549.906 97.5195 551.073 94.9077C552.103 92.5967 552.931 92.2959 554.96 93.7249C558.16 95.9811 560.987 98.7365 563.821 101.458C571.195 108.543 578.639 115.554 585.744 122.945C587.732 125.014 589.647 127.147 591.18 129.634C592.958 132.517 593.247 135.514 591.88 138.643C589.397 144.327 586.535 149.796 583.299 155.043C581.493 157.971 579.091 159.747 576.137 159.216C573.271 159.152 571.008 158.721 568.727 158.4C565.59 157.955 563.766 156.011 562.604 153.092C560.407 147.581 559.063 141.797 557.664 136.035L557.662 136.038ZM551.778 162.327C545.714 165.317 539.535 168.033 533.217 170.381C529.578 171.732 525.923 171.272 522.293 170.388C520.707 170 519.777 168.813 519.698 167.069C519.627 165.533 519.684 163.988 519.684 162.447C520.116 154.029 520.773 145.623 521.849 137.262C522.504 132.161 524.597 127.747 527.703 123.833C531.374 119.212 535.257 114.788 539.228 110.453C540.147 109.45 541.12 108.489 542.16 107.632C544.941 105.339 546.736 105.781 548.184 109.206C550.065 113.651 551.089 118.391 552.253 123.075C554.405 131.733 556.602 140.379 558.124 149.195C559.281 155.893 557.655 159.428 551.78 162.324L551.778 162.327ZM580.128 113.958C573.662 107.796 567.269 101.549 561.763 94.3858C560.312 92.4965 559.07 90.4544 558.162 88.2073C556.402 83.8497 557.28 80.6294 561.171 78.2638C566.889 74.7859 573.007 72.4362 579.548 71.2238C590.252 69.2433 600.955 67.2673 611.717 65.6697C612.887 65.4965 614.083 65.5102 614.938 65.4555C620.888 65.1774 625.403 67.8872 629.374 71.6203C632.117 74.1979 632.619 77.833 632.355 81.5456C631.989 86.6644 630.429 91.4481 628.468 96.0951C625.355 103.477 622.25 110.866 618.343 117.837C616.589 120.966 614.181 123.312 610.99 124.766C608.363 125.962 605.708 127.067 602.963 127.929C599.979 128.866 597.214 128.467 594.58 126.639C589.306 122.979 584.782 118.387 580.128 113.954V113.958ZM573.765 42.5145C574.035 39.3649 575.109 36.4864 576.719 33.8838C580.72 27.4067 585.189 21.2897 590.227 15.6627C591.318 14.4457 592.608 13.3746 593.943 12.4607C597.264 10.1862 600.391 10.7787 602.743 14.1358C605.131 17.5452 606.571 21.4652 607.826 25.449C610.203 32.9813 612.25 40.6115 613.921 48.3535C614.294 50.0764 614.558 51.804 614.57 53.5839C614.595 58.1671 613.25 60.2912 609.091 61.8113C604.783 63.3861 600.255 63.9308 595.792 64.7308C591.189 65.5558 586.554 66.1893 581.93 66.8708C581.104 66.9916 580.258 66.9847 579.421 66.9665C575.313 66.8776 573.58 65.1501 573.382 60.7971C573.28 58.5226 573.364 56.2413 573.364 53.9622C573.205 50.1357 573.437 46.3251 573.765 42.5168V42.5145ZM625.996 64.2499C622.33 62.5041 619.887 59.7761 618.568 55.7923C615.648 46.9769 613.512 37.9177 611.074 28.9542C609.386 22.7483 607.539 16.5812 606.637 10.1588C606.261 7.48777 606.693 5.17909 608.611 3.3285C609.739 2.23911 610.926 1.20898 612.161 0.256332C613.764 -0.981194 615.604 -1.18403 617.303 -0.158455C624.454 4.16491 631.382 8.83925 637.259 15.0132C639.322 17.1806 639.761 20.018 639.713 22.9808C639.21 30.766 637.602 38.3689 636.154 45.9924C635.21 50.9561 634.189 55.9108 632.997 60.8153C631.698 66.162 630.693 66.4856 625.998 64.2499H625.996ZM639.01 11.8476C632.233 7.84785 625.914 3.1439 620.094 -2.2643C617.761 -4.43168 617.751 -5.92902 619.566 -8.60918C621.641 -11.6722 624.088 -14.3957 626.699 -16.9551C628.434 -18.6575 630.511 -18.6758 632.592 -17.9898C634.25 -17.4428 635.892 -16.7659 637.441 -15.9363C643.787 -12.5428 650.189 -9.24732 656.148 -5.12223C659.3 -2.9389 659.414 -1.02678 656.723 1.77646C653.744 4.87825 650.651 7.85242 647.348 10.5713C645.909 11.7587 644.376 12.7843 642.34 12.7205C641.203 12.8071 640.052 12.4607 639.01 11.8453V11.8476ZM593.265 -42.3369C588.212 -34.661 582.598 -27.441 576.014 -21.1257C574.879 -20.0386 573.61 -19.1179 572.202 -18.4342C569.1 -16.9277 566.507 -17.5864 564.43 -20.442C562.008 -23.774 560.737 -27.6871 559.609 -31.6139C557.368 -39.4083 555.508 -47.3098 554.237 -55.3548C554.157 -55.8608 554.096 -56.3736 554.089 -56.8841C554.048 -60.5488 555.383 -61.9595 558.854 -61.955C561.553 -61.9869 564.057 -61.0092 566.603 -60.2639C573.992 -58.0943 581.286 -55.6033 588.459 -52.7362C589.306 -52.3989 590.143 -52.0183 590.943 -51.5739C595.292 -49.1604 596.09 -46.6329 593.263 -42.3392L593.265 -42.3369ZM565.925 -9.41597C567.658 -9.12425 569.323 -8.87583 570.872 -8.16249C577.201 -5.25442 583.61 -2.52411 589.701 0.926376C593.57 3.11883 594.139 5.22923 591.682 9.10362C587.454 15.7721 582.653 21.9826 577.67 28.038C577.351 28.4254 576.99 28.7764 576.637 29.1319C573.539 32.2542 571.538 32.0765 569.332 28.1633C564.697 19.936 560.889 11.2619 557.375 2.4579C555.765 -1.58058 556.299 -2.96397 559.545 -5.71479C560.63 -6.63553 561.717 -7.56082 562.857 -8.40635C563.782 -9.09235 564.833 -9.49346 565.925 -9.41142V-9.41597ZM557.3 8.62273C561.044 16.016 564.467 23.5733 567.731 31.2127C569.83 36.1264 570.776 41.2565 570.637 46.6305C570.478 52.7178 570.958 58.8257 570.096 64.8903C569.793 67.0121 568.952 68.8741 567.233 70.0774C563.143 72.9399 558.683 75.0229 554.032 76.6411C551.73 77.441 549.604 76.7003 547.652 75.4218C543.083 72.4271 538.759 69.0701 534.663 65.3962C532.944 63.8533 532.432 61.7475 532.268 59.4866C531.654 51.061 531.413 42.6217 531.406 34.1755C531.406 33.4394 531.406 32.7055 531.406 31.9716C531.568 26.7686 530.99 21.5472 531.816 16.3533C532.311 13.2287 533.801 10.9337 536.333 9.30418C540.033 6.92257 543.893 4.86458 547.871 3.06413C551.164 1.57135 553.234 2.21632 555.335 5.24518C556.072 6.30949 556.713 7.45814 557.302 8.62273H557.3ZM533.969 70.5059C538.4 72.9308 542.421 75.9984 545.53 80.1531C549.66 85.673 549.763 91.1518 546.031 97.5081C543.408 101.975 539.912 105.697 536.512 109.48C532.919 113.477 529.593 117.751 525.584 121.326C523.621 123.077 521.508 124.421 518.733 124.314C517.528 124.392 516.309 124.061 515.146 123.553C506.954 119.973 498.998 115.893 491.386 111.089C487.506 108.641 486.253 105.006 486.764 100.4C487.306 95.5185 487.729 90.6299 488.625 85.796C489.403 81.6117 491.568 78.8313 495.407 77.3316C503.09 74.3324 511.146 72.8647 519.052 70.7885C522.104 69.9862 525.202 69.494 528.327 69.1749C530.328 68.9721 532.245 69.5601 533.972 70.5059H533.969ZM470.177 116.258C466.313 115.809 462.503 114.877 458.653 114.264C454.654 113.628 451.7 111.449 449.56 107.91C444.083 98.8504 439.338 89.3696 435.213 79.5651C433.077 74.4874 434.446 71.8391 439.548 70.4648C447.369 68.359 455.259 66.5563 463.297 65.6082C465.665 65.3279 467.91 66.0549 469.959 67.1351C474.144 69.339 478.01 72.1149 481.751 75.0708C484.688 77.3909 485.491 80.5907 485.259 82.5621C484.695 91.6555 483.651 98.9735 482.418 106.255C481.792 109.952 479.511 112.757 477.014 115.228C475.09 117.133 472.465 116.525 470.175 116.258H470.177ZM474.376 138.609C474.36 142.045 473.841 145.478 473.741 148.917C473.645 152.155 473.213 155.346 472.743 158.525C472.313 161.433 469.988 162.983 466.229 163.111C461.673 163.263 457.238 162.156 452.751 161.593C451.716 161.463 450.692 161.242 449.669 161.025C443.735 159.77 442.491 158.614 441.481 152.481C440.471 146.346 440.039 140.129 439.65 133.93C439.241 129.987 440.737 126.912 443.441 124.346C444.269 123.56 445.12 122.765 445.802 121.846C449.225 117.238 453.569 115.829 458.978 117.069C462.364 117.846 465.869 118.047 469.26 118.904C472.772 119.793 474.03 121.479 474.633 125.221C475.358 129.725 474.392 134.148 474.373 138.613L474.376 138.609ZM476.095 149.812C476.495 140.792 476.877 131.771 477.855 122.794C478.258 119.104 480.162 116.217 482.702 113.783C483.612 112.912 484.756 112.552 486.016 112.96C486.482 113.113 486.98 113.174 487.426 113.373C496.687 117.509 505.799 121.985 514.3 127.671C518.347 130.377 519.215 134.905 518.89 139.536C518.278 148.242 517.628 156.953 516.472 165.608C515.692 171.45 512.178 174.005 506.708 172.425C499.096 170.226 491.663 167.445 484.349 164.344C477.346 161.374 476.018 159.086 476.093 151.134C476.097 150.692 476.093 150.252 476.093 149.81L476.095 149.812ZM528.938 63.0898C528.368 64.6236 527.023 65.1615 525.697 65.6401C519.422 67.9077 512.956 69.4393 506.506 71.0141C501.223 72.304 496.005 74.0361 489.703 74.1273C487.813 74.3598 485.372 73.5621 483.137 72.0739C479.718 69.7971 476.363 67.4109 472.943 65.141C469.549 62.887 468.953 59.5482 469.474 55.7308C469.731 53.8437 469.984 51.9521 470.293 50.0742C470.73 47.4213 472.024 45.2813 474.048 43.6677C476.773 41.4958 479.552 39.3991 482.281 37.2363C485.693 34.5356 489.38 34.4011 493.178 36.0284C495.953 37.218 498.684 38.5376 501.366 39.9415C508.487 43.6655 515.581 47.4464 522.661 51.257C524.021 51.9886 525.329 52.8706 526.544 53.846C528.816 55.6715 529.973 60.3026 528.936 63.0898H528.938ZM507 0.684799C506.59 1.95195 505.962 3.09831 505.244 4.18086C499.89 12.2601 494.47 20.2915 488.486 27.8693C484.558 32.8445 479.513 36.4568 474.346 39.8298C471.74 41.53 470.143 40.9853 468.86 38.0134C467.709 35.3469 466.745 32.5687 465.935 29.7655C463.365 20.843 460.838 11.9046 458.805 2.82255C457.884 -1.29342 458.675 -4.89661 461.728 -7.80012C463.438 -9.42509 465.139 -11.0614 466.893 -12.634C468.492 -14.0675 470.391 -14.7239 472.772 -14.7535C476.998 -14.161 481.408 -13.0465 485.823 -11.9867C489.969 -10.9908 494.042 -9.65071 498.191 -8.66616C501.775 -7.81379 504.145 -5.28404 506.47 -2.62211C507.293 -1.67858 507.393 -0.529938 507 0.684799ZM465.082 -15.656C459.879 -9.14704 454.015 -3.89382 445.463 -3.08476C442.566 -2.81127 439.723 -1.93612 436.807 -1.58286C432.818 -1.0997 430.998 -2.17313 429.613 -6.19338C427.891 -11.1868 427.261 -16.4537 426.279 -21.6249C425.515 -25.6497 424.93 -29.7132 424.341 -33.7722C424.164 -34.9938 424.114 -36.2701 424.223 -37.4985C424.55 -41.2361 426.829 -43.0183 431.294 -43.4582C436.304 -43.9505 441.326 -43.8616 446.344 -43.9824C449.901 -44.0325 453.458 -44.1351 457.013 -43.8707C461.168 -43.5607 463.079 -41.9973 464.207 -37.813C465.656 -32.4298 466.329 -26.8895 466.904 -21.3537C467.116 -19.3139 466.417 -17.322 465.082 -15.6537V-15.656ZM440.082 1.18619C442.946 0.609581 445.8 -0.0148773 448.734 -0.256454C452.218 -0.543617 454.256 1.25228 455.657 4.26064C457.757 8.76404 458.967 13.6025 460.306 18.3839C462.594 26.5407 465.06 34.6541 466.679 42.9954C467.614 47.8111 466.982 52.6427 465.972 57.3876C465.446 59.8581 463.638 61.1253 461.462 61.8455C456.537 63.4773 451.468 64.4846 446.428 65.5922C441.456 66.6862 436.443 67.575 431.442 68.5163C424.732 69.7811 422.592 67.9579 422.506 60.7789C422.415 53.2899 422.537 45.7964 422.071 38.5057C422.071 30.8982 422.042 23.4822 422.092 16.0638C422.105 14.1631 422.294 12.251 422.553 10.3662C422.872 8.06437 424.009 6.41662 426.042 5.22923C430.432 2.66757 435.306 2.14339 440.075 1.18391L440.082 1.18619ZM430.552 76.5226C436.177 86.6826 441.326 97.1138 446.137 107.723C448.441 112.805 447.931 115.184 444.162 119.155C442.98 120.401 441.768 121.618 440.523 122.796C438.674 124.549 436.536 124.754 434.264 123.904C433.414 123.585 432.561 123.232 431.767 122.781C422.558 117.527 413.631 111.78 404.768 105.906C400.708 103.215 398.72 99.5501 399 94.8461C398.761 90.0715 400.576 86.5481 403.587 83.6332C408.247 79.1207 413.476 75.4879 419.26 72.7712C423.752 70.6608 428.08 72.0556 430.555 76.5226H430.552ZM270.439 168.252C270.369 171.71 269.232 172.655 265.984 172.421C263.869 172.268 261.819 171.723 259.929 170.784C252.23 166.955 244.641 162.896 237.128 158.669C230.983 155.211 228.14 149.819 228.09 142.734C228.013 131.566 227.63 120.392 228.449 109.236C228.497 108.58 228.611 107.928 228.736 107.281C229.689 102.365 231.533 101.177 235.98 102.85C238.009 103.614 239.969 104.623 241.877 105.683C248.237 109.213 254.564 112.81 260.78 116.623C267.173 120.542 270.326 126.21 270.594 134.096C270.812 140.489 270.753 146.877 270.462 153.265C270.462 158.261 270.539 163.257 270.435 168.25L270.439 168.252ZM268.956 117.028C266.755 116.509 264.678 115.62 262.702 114.546C252.965 109.259 243.128 104.147 234.16 97.442C231.834 95.7031 229.495 93.9368 227.849 91.3911C227.137 90.2903 226.596 89.1075 226.25 87.8198C225.508 85.069 225.947 83.811 228.411 82.6965C230.392 81.8009 232.448 81.0533 234.52 80.4198C245.373 77.1128 256.308 74.1227 267.285 71.3058C269.261 70.7976 271.281 70.6563 273.312 70.7429C280.237 71.03 280.54 71.2238 281.952 78.3937C283.267 85.0713 284.522 91.7603 285.198 98.5587C285.621 102.816 284.547 106.367 281.495 109.261C279.216 111.422 277.137 113.815 274.676 115.772C272.937 117.156 271.062 117.525 268.952 117.026L268.956 117.028ZM43.627 120.704C44.1888 117.215 45.8354 114.546 48.9582 113.047C55.513 109.902 62.2794 107.363 69.239 105.435C72.9872 104.395 76.1941 105.339 78.8575 108.534C81.7619 112.019 84.5344 115.599 87.1931 119.289C90.2067 123.469 90.259 128.111 89.3379 132.947C87.9118 140.434 86.3834 147.896 84.4957 155.271C82.8945 161.527 80.2653 163.699 74.1699 163.612C66.628 163.507 59.1361 162.684 51.6988 161.417C45.9332 160.435 43.6384 157.614 43.2381 151.497C43.0857 149.154 42.906 146.809 42.8378 144.461C42.7696 142.111 42.8219 139.757 42.8219 136.259C42.7855 131.824 42.7377 126.238 43.627 120.704ZM165.296 106.679C174.334 99.9011 183.375 93.0571 193.715 88.5993C199.316 86.1835 205.48 86.3339 211.398 85.3881C213.466 85.0576 215.549 84.8138 217.63 84.6064C219.236 84.4445 221.062 84.2326 222.001 85.91C223.034 87.7515 223.102 89.8277 221.94 91.7763C220.855 93.5972 219.488 95.1789 218.048 96.6694C210.036 104.97 202.062 113.32 193.665 121.192C190.642 124.027 187.526 126.865 181.656 126.559C177.883 126.124 172.854 124.934 167.905 123.364C166.431 122.897 165.378 121.757 164.855 120.23C163.954 117.598 163.413 114.868 163.076 112.092C162.801 109.826 163.633 107.926 165.296 106.679ZM155.657 102.994C148.934 98.9234 142.456 94.4473 136.463 89.2442C133.761 86.8968 132.968 83.5261 132.39 80.1007C132.317 78.5851 133.093 77.5892 134.098 76.7072C138.14 73.1541 142.814 70.6153 147.246 67.6958C149.967 65.9044 152.778 64.2613 155.589 62.6317C159.728 60.2296 163.795 60.3185 167.502 63.5388C173.807 69.0154 179.775 74.8953 185.215 81.3154C188.197 84.8343 188.058 87.282 184.544 90.0852C178.09 95.2382 171.257 99.8122 163.884 103.431C161.05 104.822 158.261 104.571 155.657 102.994ZM216.454 81.7484C209.983 83.2207 203.438 84.2964 196.781 84.1483C192.728 84.0594 189.662 81.6208 186.878 78.9566C181.249 73.5735 175.804 67.9784 170.286 62.4654C169.931 62.1121 169.59 61.7406 169.269 61.3555C165.546 56.8635 165.255 54.5502 167.743 49.1944C168.601 47.3484 169.508 45.5252 170.336 43.6632C171.937 40.0623 174.56 38.3302 178.362 38.6242C179.127 38.6834 179.898 38.6333 180.666 38.6333C186.325 38.6128 191.927 39.3877 197.529 40.0577C200.479 40.411 203.115 41.7397 205.391 43.8751C208.787 47.0635 211.833 50.6075 214.948 54.0762C217.393 56.7997 218.069 60.4165 218.81 63.9308C219.55 67.436 220.207 70.9617 220.853 74.4874C221.619 78.6694 220.439 80.8414 216.456 81.7484H216.454ZM168.94 39.5244C165.783 47.3666 162.949 55.398 155.318 60.0085C149.575 63.4796 144.076 67.3881 138.226 70.6745C132.081 74.125 130.12 73.3524 127.937 66.4514C126.395 61.5788 125.069 56.6424 124.295 51.551C123.804 48.317 124.85 45.7895 127.17 43.7749C129.877 41.4274 132.931 39.6407 136.045 37.9861C142.582 34.5128 149.148 31.1056 155.709 27.687C156.333 27.3634 156.994 27.1104 157.654 26.8757C161.623 25.4535 163.058 25.9481 165.453 29.5467C168.405 33.9818 169.213 35.8346 169.131 38.2801C169.099 38.5148 169.126 39.0663 168.942 39.5221L168.94 39.5244ZM130.743 89.3764C130.486 90.6071 130.052 91.7672 129.449 92.8497C126.422 98.3058 123.176 103.621 119.781 108.83C117.954 111.631 115.555 113.698 112.539 114.938C107.993 116.809 103.464 118.733 98.7289 120.048C95.5766 120.923 92.8177 120.458 90.4865 117.887C86.7201 113.733 83.3221 109.261 80.1288 104.621C78.232 101.863 77.9136 98.8254 79.2145 95.6438C80.263 93.0822 81.3229 90.5228 82.285 87.9224C83.7315 84.0138 86.5608 82.1085 90.3477 81.4613C96.2748 80.4471 102.263 80.046 108.245 79.7041C111.932 79.4944 115.612 78.9338 119.465 79.2005C120.647 79.2005 121.973 79.1754 123.297 79.205C128.16 79.3144 131.801 84.2964 130.741 89.3741L130.743 89.3764ZM86.6041 161.422C88.3281 150.665 89.9884 139.867 93.4591 129.501C94.4598 126.516 96.4659 124.385 99.2338 123.154C103.221 121.379 107.287 119.815 111.502 118.737C114.85 117.881 117.015 118.74 118.452 121.969C123.29 132.836 127.148 144.092 129.759 155.779C130.805 160.465 129.461 163.092 125.451 165.438C120.92 168.088 116.058 169.952 111.268 171.981C108.939 172.968 106.576 173.872 104.21 174.757C101.324 175.835 98.5924 175.365 95.9905 173.733C93.8253 172.375 91.8534 170.736 89.8496 169.139C87.4137 167.197 86.2515 164.701 86.6063 161.429L86.6041 161.422ZM122.162 122.671C120.595 117.188 121.091 112.14 124.157 107.342C126.374 103.871 128.314 100.202 130.739 96.8768C133.195 93.5106 134.944 92.9545 138.447 95.0604C144.629 98.7752 150.499 103.012 156.151 107.575C158.038 109.099 159.185 111.157 159.872 113.553C161.523 119.298 161.982 124.948 159.994 130.803C157.272 138.82 154.677 146.884 151.797 154.842C150.101 159.533 147.285 162.208 142.254 161.262C137.244 162.208 134.489 159.435 132.872 154.876C129.094 144.217 125.276 133.576 122.16 122.671H122.162ZM154.822 155.64C157.27 147.604 159.63 139.529 163.09 131.888C164.898 127.895 166.588 126.981 170.761 127.678C173.443 128.125 176.099 128.74 178.772 129.248C183.839 130.215 188.026 132.783 191.427 136.833C195.859 142.111 200.447 147.251 204.591 152.791C208.134 157.529 208.007 160.253 203.799 164.396C198.243 169.863 192.286 174.845 186.205 179.65C183.428 181.842 180.548 182.312 176.991 181.284C167.971 178.674 161.757 172.092 155.496 165.49C154.377 164.309 153.881 162.34 153.89 160.419C154.142 159.081 154.315 157.304 154.82 155.64H154.822ZM194.122 135.523C191.306 131.628 191.329 128.888 193.94 124.848C194.254 124.362 194.563 123.868 194.931 123.43C201.163 116.071 207.789 109.127 215.171 103.051C221.053 98.21 223.969 99.3678 224.874 107.167C225.804 115.18 225.766 123.28 225.559 131.357C225.067 136.769 225.429 142.212 224.858 147.634C224.46 151.41 222.97 153.741 219.434 155.063C214.996 156.72 211.428 156.326 208.116 152.477C203.338 146.925 198.434 141.492 194.119 135.523H194.122ZM223.418 72.0921C222.397 68.0468 221.462 63.9809 221.271 59.7806C221.055 57.08 221.958 54.728 223.239 52.4763C226.591 46.5758 231.008 41.5345 235.116 36.2517C238.432 31.9876 241.78 27.7372 245.507 23.8582C249.66 19.5394 252.337 19.9018 254.669 25.5652C259.083 36.2859 262.845 47.2846 265.511 58.6411C266.975 64.8834 265.254 68.0354 259.393 70.1709C250.418 73.4413 241.225 75.9391 231.911 77.8581C226.662 78.9384 224.787 77.5254 223.418 72.0944V72.0921ZM256.593 6.37331C257.539 4.42472 259.311 3.91422 261.167 3.80026C264.646 3.58603 268.117 3.10287 271.615 3.44245C273.637 3.44245 275.666 3.33305 277.681 3.4698C280.483 3.65668 282.628 5.11527 283.71 7.87521C286.874 15.9431 290.509 23.9813 290.618 32.8696C290.736 42.4895 289.299 52.0228 287.613 61.4831C287.149 64.0926 285.268 65.3826 283.349 66.611C278.932 69.437 271.927 67.3858 270.018 62.4517C264.337 47.7564 259.431 32.7625 255.007 17.5954C253.829 13.5592 254.866 9.91952 256.59 6.37331H256.593ZM284.611 74.5421C284.541 69.3504 288.341 66.4104 292.976 66.9141C298.312 67.4952 303.659 67.9807 308.981 68.6758C314.924 69.4507 320.915 69.9635 326.765 71.3537C331.975 72.5912 333.194 74.5968 332.521 80.0916C332.387 81.1832 332.257 82.2749 332.064 83.3552C331.227 88.0409 330.34 92.7152 329.157 97.3235C328.293 100.692 326.606 103.463 324.092 105.749C321.82 107.816 319.548 109.874 317.11 111.723C315.052 113.284 312.795 113.74 310.362 112.953C304.674 111.119 299.251 108.591 294.004 105.672C291.432 104.24 289.763 101.884 288.964 98.9143C286.715 90.5615 285.662 81.9786 284.611 74.5398V74.5421ZM344.316 61.7908C341.287 64.9473 338.048 67.9191 333.574 68.6165C330.85 69.0404 328.136 68.5846 325.439 68.2861C316.637 67.3152 307.819 66.4355 299.104 64.7604C297.88 64.5256 296.681 64.0676 295.515 63.5912C293.024 62.577 291.762 60.551 291.748 57.7979C291.719 51.3117 292.531 44.9075 293.886 38.5991C294.616 35.2033 296.531 33.7607 299.777 33.273C304.403 32.5779 308.97 33.3459 313.53 33.8222C321.504 34.6564 329.492 35.4221 337.398 36.8648C337.673 36.9149 337.943 36.981 338.216 37.0471C344.491 38.5809 345.815 40.2879 345.915 47.0157C345.938 48.4857 345.917 49.9557 345.917 51.4256H346.006C346.006 52.0136 346.027 52.6016 346.002 53.1896C345.886 56.1615 346.588 59.4228 344.314 61.793L344.316 61.7908ZM315.234 127.744C315.249 125.698 315.472 123.642 315.725 121.609C316.086 118.683 317.237 116.169 319.348 114.125C321.561 111.982 323.883 109.995 326.276 108.09C328.348 106.442 330.515 106.323 332.69 107.755C338.084 111.303 343.195 115.257 347.689 120.025C350.164 122.651 350.762 126.083 350.898 129.561C351.055 133.517 350.935 137.487 350.935 141.453C351.044 147.467 351.283 153.5 350.098 159.444C349.911 160.376 349.704 161.308 349.438 162.217C347.933 167.347 344.83 169.604 339.795 168.776C333.226 167.698 326.899 165.611 320.801 162.826C318.218 161.645 316.598 159.494 316.036 156.536C315.584 154.159 315.206 151.772 315.206 149.338C315.211 142.141 315.174 134.944 315.234 127.747V127.744ZM348.096 115.032C343.898 112.121 339.893 108.919 336.092 105.462C333.963 103.525 332.676 101.018 332.831 97.2825C333.263 91.8879 334.807 86.0764 335.926 80.1805C336.172 78.8882 336.558 77.6234 336.818 76.3334C337.973 70.5879 342.228 67.8576 346.591 65.296C348.208 64.3456 350.039 64.6943 351.674 65.378C362.973 70.0956 374.075 75.2896 384.164 82.4982C391.094 87.4506 391.164 92.542 384.696 98.2351C378.78 103.443 372.003 107.294 365.461 111.511C362.837 113.202 360.101 114.647 357.264 115.905C354.039 117.338 350.973 117.028 348.094 115.032H348.096ZM349.541 45.0534C349.272 40.1147 349.504 35.2352 350.926 30.4561C351.967 26.9509 352.916 26.0188 356.327 26.666C365.12 28.3297 373.763 30.6361 382.101 34.0638C385.105 35.2991 387.478 37.4573 389.277 40.2674C395.135 49.4223 400.091 59.1288 404.724 69.0085C407.363 74.631 406.755 76.0075 402.136 80.0414C398.747 83.0019 395.308 83.5193 391.269 81.8214C384.257 78.8723 377.573 75.2098 370.82 71.6978C365.63 68.9994 360.415 66.358 355.443 63.1992C351.399 60.6307 349.447 57.0275 349.534 52.1025C349.577 49.7528 349.541 47.4008 349.541 45.0511V45.0534ZM353.6 146.524C353.842 139.86 353.571 134.269 354.537 128.736C355.311 124.307 357.428 120.716 360.762 118.111C370.199 110.745 380.425 104.673 390.639 98.6225C395.167 95.9401 396.029 96.617 397.01 102.03C397.758 106.159 397.167 110.237 396.855 114.312C396.33 121.176 395.611 128.027 394.91 134.875C394.387 139.974 393.905 145.081 392.67 150.07C391.574 154.496 389.024 157.698 385.094 159.478C377.331 162.992 369.339 165.857 361.092 167.817C356.268 168.963 354.094 166.75 353.748 161.055C353.432 155.843 353.093 150.642 353.6 146.524ZM396.452 148.301C396.962 137.535 397.837 126.796 399.509 116.155C400.503 109.831 403.016 108.593 408.409 111.536C415.537 115.424 422.326 119.923 429.051 124.526C433.782 127.765 436.982 132.018 437.521 138.194C438.006 143.736 439.009 149.229 438.952 154.826C438.925 157.661 437.828 159.89 435.42 161.098C429.879 163.876 424.23 166.361 418.173 167.689C415.673 168.238 413.472 167.366 411.313 166.372C408.054 164.872 404.954 163.029 401.834 161.228C398.174 159.115 396.227 156.073 396.443 151.606C396.496 150.507 396.45 149.404 396.45 148.301H396.452ZM419.64 63.81C419.315 68.2177 416.681 71.3332 412.573 72.206C410.802 72.5821 409.671 71.6066 408.7 70.2187C405.127 65.1159 402.414 59.4707 399.468 53.9736C397.176 49.6936 394.917 45.3907 392.945 40.9215C390.735 35.903 391.319 31.4702 394.706 27.2449C399.928 20.7268 405.477 14.5392 411.225 8.53613C412.839 6.84963 414.632 6.37331 416.756 7.20744C418.946 8.06893 419.089 10.0882 419.26 12.0869C419.986 20.5103 419.533 28.9656 420.008 39.6407C420.09 46.2043 420.286 55.0106 419.638 63.8077L419.64 63.81ZM406.089 9.97649C401.731 15.7197 396.912 21.0367 391.954 26.2033C388.647 29.6493 384.641 30.9301 380.058 29.859C372.849 28.1747 365.659 26.3674 358.654 23.9106C353.202 21.9985 352.495 20.6333 352.509 13.6936C352.022 9.06715 353.876 4.819 358.047 1.50526C362.441 -1.98853 366.633 -5.76037 371.152 -9.08778C374.798 -11.7725 378.603 -12.4767 382.801 -10.6626C390.434 -7.3671 397.701 -3.30811 404.752 1.15656C408.461 3.50399 408.802 6.39838 406.087 9.97649H406.089ZM375.996 -24.5853C375.451 -18.3248 372.462 -13.5935 367.699 -9.93787C364.09 -7.16882 360.569 -4.27442 357.007 -1.43244C353.339 1.49614 349.452 2.07274 345.228 -0.0718536C339.695 -2.88192 334.147 -5.67148 328.95 -9.13564C324.841 -11.8773 323.801 -14.6236 325.325 -19.4506C327.854 -27.4683 330.77 -35.3379 334.295 -42.9454C336.504 -47.7109 340.077 -50.5711 344.962 -51.6696C353.289 -53.5407 361.695 -54.9218 370.169 -55.7058C375.851 -56.2323 377.807 -53.723 377.727 -45.3908C377.227 -39.3536 376.64 -31.9672 375.996 -24.5853ZM331.659 -4.07387C335.005 -1.95663 338.498 -0.0786819 342.008 1.73316C347.105 4.36547 350.639 7.87065 349.188 13.8714C349.479 19.7947 348.642 24.9066 347.157 29.925C346.347 32.6599 345.076 33.7584 342.328 33.9453C337.002 34.3054 331.743 33.4485 326.476 32.8901C319.544 32.154 312.62 31.2742 305.711 30.3262C303.37 30.0048 301.048 29.4077 298.778 28.7171C295.81 27.8169 293.643 25.7794 292.364 22.8053C290.142 17.641 288.475 12.2647 287.029 6.81089C286.071 3.20087 286.872 0.156059 289.703 -2.25063C291.985 -4.18782 294.218 -6.18655 296.461 -8.17616C299.092 -10.5099 302.085 -11.3326 305.545 -11.401C314.956 -11.5879 323.606 -9.17439 331.664 -4.07615L331.659 -4.07387ZM294.073 -10.5259C291.391 -7.7158 288.427 -5.27265 285.396 -2.92295C282.318 -0.539055 278.636 -0.333939 275.013 -0.119705C272.786 0.0124741 270.548 -0.0946426 267.683 -0.0946426C265.124 -0.322548 261.863 0.466003 258.737 -0.527664C253.895 -2.06602 250.709 -5.89711 247.713 -9.88545C246.999 -10.8358 247.108 -12.144 247.306 -13.3063C247.525 -14.6008 247.716 -15.9523 248.223 -17.1328C252.394 -26.8325 256.688 -36.4683 261.981 -45.5686C264.339 -49.623 267.689 -51.0269 272.134 -50.2612C276.464 -49.5159 280.806 -48.8641 285.089 -47.834C288.989 -46.8973 291.828 -44.8051 292.826 -40.4703C294.53 -33.0589 296.242 -25.6519 296.888 -18.0285C297.143 -15.0247 296.072 -12.6203 294.075 -10.5281L294.073 -10.5259ZM252.951 0.73494C254.318 2.2505 254.275 3.93472 253.72 5.85141C252.174 11.1889 249.13 15.5511 245.803 19.7377C238.548 28.863 231.643 38.3028 223.746 46.847C223.455 47.1638 223.157 47.4738 222.854 47.7792C219.231 51.4598 217.418 51.5031 213.773 47.9592C212.594 46.8128 211.466 45.6095 210.295 44.4517C206.592 40.7893 204.329 36.507 204.786 30.9278C205.482 23.0423 206.153 15.1545 206.881 7.27354C207.354 2.16618 207.666 -2.96625 208.746 -7.99156C210.138 -14.4755 216.939 -18.9675 222.979 -17.028C229.448 -14.9495 235.877 -12.5998 241.85 -9.23592C246.174 -6.8019 249.583 -3.00499 252.951 0.732658V0.73494ZM216.484 -24.5808C216.331 -22.1809 215.303 -20.5218 213.484 -19.0997C209.324 -15.8497 204.723 -14.4139 199.571 -14.6213C196.712 -14.7353 193.847 -14.6418 190.324 -14.6418C185.895 -14.6874 180.807 -14.5666 175.717 -15.0407C170.707 -15.5079 168.692 -17.5795 168.801 -22.892C168.969 -31.0624 170.111 -39.1234 171.735 -47.0864C173.12 -53.8803 175.736 -55.9679 183.439 -56.565C189.837 -57.0619 196.255 -57.2282 202.667 -57.5199C204.413 -57.5997 206.137 -57.3718 207.875 -57.1599C211.457 -56.7246 213.593 -54.7623 214.375 -51.0702C215.151 -47.4078 215.472 -43.677 215.785 -39.9576C216.218 -34.8456 216.813 -29.7383 216.484 -24.5762V-24.5808ZM173.775 -12.0369C177.391 -12.2602 181.03 -12.0847 183.236 -12.0847C189.177 -11.5218 193.746 -12.1463 198.236 -11.278C202.858 -10.3846 204.504 -8.25365 204.666 -3.28304C204.825 1.65112 204.245 6.54424 203.788 11.4328C203.235 17.3424 202.739 23.2657 201.739 29.1205C201.491 30.5746 201.047 31.9671 200.41 33.2821C199.444 35.274 197.89 36.4409 195.762 36.5229C188.977 36.7896 182.247 36.1081 175.554 35.0301C172.913 34.6039 171.182 32.726 169.561 30.5791C164.973 24.5009 162.935 17.4176 161.855 9.91952C161.166 5.13806 159.933 0.452332 159.66 -4.40889C159.528 -6.77227 160.497 -8.15337 162.278 -9.45471C165.815 -12.0323 169.849 -11.7976 173.775 -12.0392V-12.0369ZM159.865 16.0137C160.088 19.569 158.471 22.2082 155.823 23.9949C146.582 30.2304 136.75 35.3036 126.645 39.7774C123.108 41.3431 119.976 40.6617 117.502 37.3502C114.006 32.6713 110.481 27.9924 107.822 22.7346C105.366 17.8757 104.872 12.3741 104.069 7.02512C103.828 5.41839 104.404 3.71822 105.636 2.62883C112.346 -3.31039 119.713 -8.17389 127.868 -11.5697C131.182 -12.9485 134.642 -11.7771 137.98 -11.1048C141.74 -10.3481 145.461 -9.37495 149.2 -8.49751C153.408 -7.5084 156.087 -4.94903 157.047 -0.400032C158.193 5.03779 159.378 10.4619 159.869 16.016L159.865 16.0137ZM108.798 29.925C116.638 38.9159 121.532 49.4497 123.768 61.3965C124.239 63.9126 124.882 66.3922 125.335 68.9105C125.951 72.3291 124.65 74.3825 121.45 75.3169C117.113 76.5818 112.625 76.5727 108.197 76.9943C102.789 77.5094 97.3506 77.6849 92.215 77.988C84.3865 77.9903 78.5777 73.1336 76.9015 65.4281C76.533 63.7416 77.0516 62.242 77.7612 60.7834C79.6489 56.8908 82.3054 53.5748 84.9574 50.2633C90.1658 43.7543 94.8488 36.7759 100.639 30.7888C101.087 30.3262 101.522 29.843 102.004 29.4237C104.774 27.0147 106.389 27.1583 108.8 29.925H108.798ZM100.107 27.1833C92.8996 37.0015 85.7102 46.8425 77.6293 55.9062C76.8196 56.8133 75.9007 57.6133 74.9978 58.4223C73.3261 59.9219 71.4179 60.2456 69.3095 59.6621C67.4036 59.1357 65.65 58.2309 63.8783 57.374C59.773 55.3889 58.7404 53.258 59.2726 48.4104C59.8003 43.5902 60.7691 38.8612 61.7631 34.1367C63.7964 24.469 65.8547 14.8081 67.9221 5.14946C68.1973 3.86407 68.5431 2.59008 68.9342 1.3366C70.2579 -2.92522 70.8584 -3.36281 75.0683 -3.31495C79.4761 -3.25113 83.5109 -1.51677 87.623 -0.158455C90.6161 0.828377 93.5751 1.93827 96.5227 3.06869C98.4469 3.80482 99.8888 5.19504 100.603 7.23479C101.765 10.5508 102.379 14.015 102.827 17.5088C103.294 21.1484 102.163 24.3847 100.107 27.1879V27.1833ZM61.3218 60.1111C64.299 61.1891 67.142 62.5839 69.9418 64.0767C71.3792 64.8424 72.571 65.9478 73.5558 67.3471C75.7188 70.4193 77.6293 73.6646 79.5921 76.8758C80.9408 79.0842 81.0068 81.4749 80.2903 83.8634C79.0462 87.9976 77.436 91.9882 75.5709 95.8558C74.3541 98.3787 72.4186 100.216 69.9896 101.294C62.4044 104.66 54.651 107.543 46.7065 109.838C45.7763 110.107 44.7915 110.173 43.8317 110.332C41.8552 110.449 40.3064 109.651 38.9531 108.19C34.3088 103.176 30.1626 97.7565 26.7077 91.7649C24.6358 88.1708 24.6972 86.7419 27.5106 83.517C31.4317 79.025 35.8463 75.0594 40.1221 70.9526C43.834 67.3904 47.5253 63.8214 51.8944 61.1025C54.949 59.2018 58.0262 58.9214 61.3195 60.1134L61.3218 60.1111ZM44.0796 63.238C38.2094 69.086 32.5143 75.146 26.0118 80.2625C22.5342 82.9974 18.786 83.476 14.7285 82.243C9.5019 80.6545 4.43454 78.5714 -0.726074 76.7801C-6.1073 74.9136 -8.39762 71.0916 -8.3021 65.3506C-8.27481 63.7348 -8.29755 62.119 -8.29755 60.5008C-9.07085 52.531 -6.54399 45.6437 -2.1453 39.317C1.22764 34.4649 4.0297 29.1798 7.8848 24.6878C10.6346 21.4812 12.9931 21.0459 16.573 23.2383C20.717 25.7772 23.9625 29.4783 27.4947 32.7875C32.86 37.8174 38.0024 43.1116 42.9674 48.5836C44.887 50.7009 46.7588 52.8934 47.1137 56.0407C47.4571 59.1038 45.915 61.4124 44.0819 63.238H44.0796ZM-8.30437 90.0852C-8.25889 87.7355 -7.97231 85.3949 -7.31728 83.1387C-6.69865 81.0055 -5.40224 79.752 -3.75785 79.9184C-3.00275 79.9662 -2.85946 79.9548 -2.72527 79.9867C5.31246 81.9536 13.2137 84.4377 20.3758 88.8089C23.6942 90.835 25.4227 94.6114 27.0421 98.2237C27.8472 100.02 26.9989 101.581 26.03 102.916C24.5516 104.954 22.98 106.946 21.2651 108.764C14.2827 116.167 7.26617 123.537 -0.202961 130.406C-1.31514 131.43 -2.49101 132.343 -3.82835 132.993C-5.68427 133.891 -6.68273 133.472 -7.37187 131.414C-8.02462 129.463 -8.27026 127.414 -8.30665 125.354C-8.52044 113.598 -8.52726 101.843 -8.30437 90.0875V90.0852ZM-8.35668 157.315C-7.91545 153.992 -6.76688 153.267 -3.86247 154.66C-3.54633 154.813 -3.22564 154.968 -2.93679 155.168C4.70747 160.433 12.2107 165.909 19.225 172.081C21.9315 174.463 21.6995 175.281 19.1226 177.79C15.7633 181.063 11.5056 181.56 7.37079 182.444C4.03197 183.157 0.647663 183.659 -2.723 184.192C-6.2051 184.743 -7.89271 183.255 -8.34304 179.508C-8.80019 175.707 -8.74106 171.894 -8.72969 168.081C-8.70694 164.489 -8.83658 160.898 -8.35896 157.315H-8.35668ZM20.6192 169.234C13.4457 165.187 6.79764 160.301 0.877378 154.455C-4.79725 148.853 -5.17707 143.21 -0.919397 136.282C3.22001 129.545 8.92421 124.294 14.2872 118.735C17.717 115.18 21.2469 111.72 24.8746 108.388C29.4234 104.209 31.2338 104.537 35.2731 109.273C38.2344 112.744 39.6036 116.648 39.6468 121.288C39.6991 126.648 40.1244 132.004 39.9811 136.295C39.9675 144.201 40.1176 151.038 39.176 157.826C38.8098 160.474 37.634 162.703 35.6234 164.355C33.8084 165.845 31.9229 167.24 30.0648 168.672C27.0353 171.003 23.8579 171.065 20.6214 169.237L20.6192 169.234ZM31.6637 172.692C34.1359 170.657 36.5718 168.58 39.2943 166.896C41.7984 165.346 44.539 165.009 47.4935 164.768C54.5578 165.406 61.7835 166.03 69.0025 166.723C71.916 167.003 74.8181 167.425 77.7225 167.792C83.9225 168.578 88.7374 172.165 93.1657 176.427C95.2104 178.394 95.7062 180.851 94.6736 183.659C93.3681 187.203 91.3507 190.275 89.1332 193.21C84.921 198.789 80.636 204.307 75.9439 209.453C75.0319 210.453 74.0039 211.356 72.944 212.185C70.2238 214.312 67.1602 214.708 63.9965 213.674C56.6639 211.274 49.4517 208.514 42.5649 204.906C39.1783 203.133 36.8561 200.296 35.4323 196.597C33.233 190.879 31.0473 185.16 29.6167 179.16C28.9935 176.541 29.6326 174.358 31.6614 172.687L31.6637 172.692ZM104.754 188.488C103.505 183.31 104.986 179.408 109.341 176.824C117.502 171.981 126.101 168.15 135.16 165.536C137.287 164.922 139.475 165.408 141.59 165.232C146.873 164.35 151.202 166.181 154.904 170.096C156.869 172.174 159.105 173.966 161.1 176.015C164.097 179.091 164.343 181.127 162.292 185.044C159.248 190.851 155.048 195.854 151.754 201.46C145.32 212.411 135.219 217.995 124.573 222.856C121.059 224.46 118.537 223.583 116.785 220.087C111.736 210.002 107.428 199.566 104.756 188.486L104.754 188.488ZM151.882 205.991C155.955 199.049 160.481 192.44 165.348 186.09C167.702 183.018 169.695 182.389 173.24 183.483C173.575 183.586 173.905 183.713 174.243 183.793C179.716 185.065 183.202 188.481 184.754 194.206C185.399 196.597 186.407 198.883 187.31 201.189C188.502 204.227 189.148 207.345 188.87 210.656C188.222 220.174 186.578 229.545 185.02 238.935C184.34 243.037 180.366 245.282 176.729 241.968C168.605 234.564 160.538 227.097 153.055 218.975C149.227 214.82 148.993 210.905 151.879 205.991H151.882ZM187.026 190.088C186.079 187.203 186.725 184.771 188.559 182.537C190.349 180.356 192.427 178.503 194.522 176.676C199.251 172.548 204.07 168.535 208.755 164.357C212.654 160.882 217.268 159.138 222.065 157.698C224.49 156.971 226.814 157.315 229.011 158.336C237.065 162.074 244.971 166.133 252.506 170.932C255.906 173.097 256.277 175.623 253.882 179.023C251.371 182.587 248.205 185.489 245.118 188.47C240.285 193.139 235.577 197.941 230.439 202.267C226.079 205.939 221.342 207.926 217.616 207.434C209.59 207.01 203.46 206.757 197.399 205.588C194.263 204.984 192.084 203.185 190.778 200.134C189.373 196.847 188.142 193.495 187.026 190.088ZM233.965 203.65C242.139 194.789 250.841 186.53 259.818 178.583C262.099 176.564 264.726 176.341 267.514 176.844C269.755 177.248 270.755 178.886 271.347 180.997C272.809 186.229 273.398 191.635 274.16 196.996C274.952 202.575 275.907 208.145 275.98 215.196C275.416 222.929 273.824 231.854 271.688 240.676C270.739 244.589 268.281 246.882 264.576 247.948C260.202 249.206 255.822 250.412 251.352 251.219C248.18 251.791 245.555 250.841 243.697 247.96C243.071 246.989 242.4 246.034 241.898 244.992C237.827 236.539 234.172 227.89 230.933 219.043C228.8 213.211 229.878 208.081 233.967 203.648L233.965 203.65ZM273.689 163.32C273.132 157.306 273.419 151.289 273.28 145.275C273.444 138.609 272.88 131.913 274.092 125.292C274.608 122.482 275.718 119.996 277.667 117.972C280.001 115.549 282.312 113.097 284.72 110.761C287.117 108.434 289.899 107.766 293.047 108.963C298.037 110.861 302.934 112.985 307.619 115.613C310.592 117.281 311.899 120.112 312.347 123.478C312.677 125.951 312.875 128.43 312.8 130.935C312.575 138.488 313.187 146.054 312.406 153.602C311.945 158.065 310.057 161.449 306.05 163.165C298.285 166.49 290.233 168.915 282.009 170.522C276.526 171.593 274.238 169.209 273.692 163.318L273.689 163.32ZM282.057 174.522C290.984 171.108 300.129 168.441 309.397 166.256C310.676 165.955 312.036 166.03 313.357 165.93C315.675 165.955 317.951 166.244 320.194 166.86C325.73 168.382 331.275 169.889 336.572 172.213C340.448 173.916 341.237 175.862 339.761 180.033C339.372 181.131 338.906 182.209 338.38 183.242C334.129 191.606 329.46 199.705 324.522 207.643C321.331 212.773 316.871 215.296 311.14 215.139C303.329 214.925 295.521 214.444 287.775 213.336C282.43 212.571 279.978 210.15 278.852 204.608C277.483 197.857 276.471 191.038 276.107 184.135C275.832 178.909 277.34 176.327 282.055 174.522H282.057ZM326.772 211.149C330.649 202.907 335.048 194.99 340.097 187.481C341.068 186.036 342.238 184.759 343.532 183.638C346.468 181.086 349.281 181.304 351.81 184.269C354.324 187.212 355.927 190.756 357.299 194.356C362.025 206.766 366.053 219.435 369.689 232.243C370.338 234.525 370.288 236.886 370.338 239.236C370.19 247.96 369.614 248.783 361.636 251.121C356.532 252.616 351.435 254.138 346.206 255.107C341.93 255.898 339.119 254.833 337.04 250.793C332.587 242.13 328.653 233.192 325.803 223.795C324.515 219.547 324.845 215.242 326.772 211.151V211.149ZM369.485 220.591C365.416 211.224 362.607 201.351 359.568 191.578C358.57 188.367 357.697 185.119 357.23 181.762C356.648 177.567 358.031 174.385 361.62 172.421C367.788 169.041 374.552 167.361 381.107 165.087C384.751 163.822 388.396 162.534 392.292 162.454C393.766 162.457 395.249 162.509 396.623 163.104C401.604 165.258 406.396 167.81 410.89 170.941C412.516 172.074 413.613 173.736 414.031 175.739C415.071 180.703 415.384 185.762 415.35 190.824C415.325 194.678 413.26 197.581 410.749 200.161C405.041 206.027 398.599 210.975 392.413 216.24C389.104 219.057 385.783 221.871 382.21 224.326C375.694 228.807 372.73 228.066 369.483 220.591H369.485ZM379.717 230.897C388.847 222.81 398.035 214.802 407.679 207.397C409.373 206.096 411.134 204.908 413.055 204.006C416.055 202.595 418.848 202.816 421.496 204.997C424.832 207.744 427.357 211.278 430.061 214.629C433.405 218.767 436.591 223.045 439.909 227.209C443.974 232.307 444.956 238.347 444.933 244.73C444.927 247.071 443.603 248.302 441.758 249.17C438.042 250.92 434.098 251.873 430.168 252.885C419.064 255.738 407.934 258.453 396.714 260.791C390.7 262.044 385.547 260.966 381.059 256.522C379.995 255.467 378.876 254.457 377.698 253.546C374.693 251.221 373.021 248.322 373.938 244.17C373.131 238.509 375.767 234.397 379.713 230.901L379.717 230.897ZM442.297 224.49C434.99 216.88 428.633 208.402 422.435 199.806C419.121 195.209 418.628 189.643 418.325 184.117C418.18 181.482 418.246 178.834 418.264 176.19C418.278 174.367 419.033 172.733 420.497 171.931C427.998 167.821 435.734 164.382 442.893 163.633C449.068 164.011 453.774 164.628 458.4 165.732C462.351 166.673 463.429 168.168 463.256 172.382C463.004 178.497 461.405 184.386 460.324 190.361C459.685 193.892 458.855 197.385 458.252 200.922C456.806 209.435 453.053 216.837 448.42 223.815C446.419 226.831 444.767 227.056 442.302 224.49H442.297ZM461.427 199.705C462.619 189.213 464.948 178.936 467.368 168.692C468.314 164.69 472.995 163.66 475.959 164.549C484.544 167.119 492.955 170.249 501.27 173.665C501.853 173.904 502.401 174.239 502.953 174.549C506.692 176.637 507.689 178.435 507.175 182.909C506.697 187.054 505.899 191.148 504.955 195.213C503.963 199.487 501.38 201.829 497.443 202.844C491.072 204.485 484.569 205.296 478.101 206.331C474.935 206.837 471.765 207.365 469.404 207.336C462.312 207.712 460.693 206.178 461.427 199.703V199.705ZM510.834 180.258C511.642 176.607 516.447 173.984 520.623 174.567C521.59 174.702 522.552 174.916 523.523 174.996C527.46 175.317 530.428 177.195 532.794 180.582C536.933 186.505 541.093 192.403 544.752 198.671C546.726 202.051 547.329 204.94 547.177 210.579C546.799 217.983 544.721 226.238 543.099 234.577C542.303 238.675 541.609 242.811 540.254 246.759C538.48 251.93 536.219 253.149 531.229 251.545C526.02 249.87 520.969 247.739 515.908 245.617C510.809 243.481 508.419 239.534 508.014 234.003C507.409 225.73 506.902 217.448 506.724 209.15C506.513 199.277 508.728 189.766 510.83 180.258H510.834ZM546.947 195.624C543.431 190.872 540.088 185.99 537.069 180.869C536.63 180.124 536.235 179.335 535.916 178.526C534.847 175.814 535.243 174.431 537.522 172.674C537.69 172.544 537.856 172.4 538.041 172.304C545.867 168.257 553.757 164.289 562.256 162.112C567.426 160.788 572.657 162.024 577.738 163.364C579.653 163.87 581.184 165.251 582.398 166.939C587.845 174.51 592.542 182.574 596.597 191.05C597.032 191.959 597.364 192.948 597.591 193.939C598.326 197.137 597.286 199.149 594.38 200.401C591.885 201.474 589.228 201.659 586.597 201.912C583.961 202.164 581.311 202.292 578.664 202.367C576.014 202.443 573.362 202.383 569.466 202.383C566.534 202.228 562.358 202.55 558.174 202.055C553.527 201.506 549.799 199.48 546.945 195.621L546.947 195.624ZM586.715 165.985C586.387 165.262 586.144 164.476 585.992 163.692C585.837 162.908 585.844 162.087 585.819 161.761C585.798 159.795 585.971 158.327 586.565 156.978C589.538 150.241 592.992 143.782 596.825 137.553C598.098 135.484 599.902 133.996 602.033 132.913C605.242 131.281 608.554 129.937 611.92 128.713C615.413 127.443 618.25 128.442 620.524 131.322C622.528 133.861 624.511 136.434 626.312 139.137C631.398 146.772 636.556 154.361 641.066 162.4C641.562 163.282 642.015 164.205 642.363 165.157C643.586 168.501 643.211 170.262 640.536 172.521C635.198 177.031 629.492 181.006 623.722 184.866C619.075 187.977 614.574 191.355 609.602 193.903C606.411 195.539 604.196 195.202 602.044 192.187C596.172 183.957 590.929 175.297 586.713 165.982L586.715 165.985ZM606.637 200.804C612.12 196.494 617.827 192.549 624.056 189.509C624.611 189.238 625.264 189.185 625.639 189.09C628.236 189.313 630.111 190.525 631.741 192.219C636.781 197.451 640.928 203.461 645.126 209.416C650.987 217.735 656.801 226.09 662.598 234.456C663.872 236.293 664.993 238.242 665.764 240.396C666.455 242.328 665.957 243.796 664.424 245.024C660.967 247.798 658.87 248.03 655.043 245.594C645.772 239.694 637.268 232.629 628.521 225.94C622.419 221.274 616.58 216.26 611.012 210.902C609.207 209.166 607.442 207.381 606.17 205.152C605.286 203.6 605.149 201.973 606.641 200.802L606.637 200.804ZM682.324 163.161C682.153 165.381 680.675 166.595 678.628 167.092C675.728 167.796 672.792 167.427 669.872 167.511C665.396 167.874 660.954 167.167 656.494 167.012C650.084 166.789 645.654 162.819 642.122 157.595C636.866 149.824 631.639 142.032 626.772 133.971C622.694 127.22 622.041 120.406 625.073 113.054C628.323 105.175 631.462 97.2437 635.692 89.8778C639.547 83.166 642.395 82.8674 647.537 88.3941C650.585 91.6714 653.002 95.4569 655.268 99.3268C663.569 113.512 671.8 127.737 679.379 142.376C682.802 148.987 682.872 156.009 682.322 163.158L682.324 163.161ZM682.46 45.5252C681.926 50.8764 679.913 55.1929 675.339 57.7204C665.575 63.1195 655.509 67.8189 644.983 71.3559C643.7 71.7867 642.385 71.8619 641.053 71.8095C637.468 71.6682 635.123 69.2501 635.321 65.5056C635.667 58.9716 637.125 52.6062 638.308 46.2089C639.768 38.2983 641.048 30.3421 643.25 22.5979C644.464 18.3292 646.641 14.7466 649.811 11.8066C653.109 8.75037 656.318 5.59615 659.835 2.80203C662.555 0.641487 665.539 0.260887 668.753 0.965118C671.07 1.47334 673.406 1.92232 675.692 2.5559C680.673 3.937 681.846 5.71695 682.445 11.1912C683.068 16.9139 682.629 22.6366 682.863 28.3525C682.64 34.0729 683.034 39.7956 682.46 45.5229V45.5252ZM640.944 -69.7539C642.176 -69.444 643.307 -68.8468 644.355 -68.1084C654.986 -60.64 665.309 -52.7339 675.169 -44.1647C680.118 -39.8618 682.597 -34.3921 682.451 -27.6051C682.385 -24.5215 682.44 -21.4334 682.44 -18.3476C682.495 -13.7986 682.79 -9.22681 682.074 -4.71428C681.578 -1.5897 680.341 -0.760124 677.409 -1.22733C668.985 -2.56286 660.992 -5.19061 653.548 -9.65755C648.638 -12.6044 643.63 -15.3711 638.617 -18.1174C633.195 -21.087 630.463 -25.5448 630.686 -32.1336C630.943 -39.7593 630.356 -47.426 631.598 -54.9993C632.421 -60.0201 634.905 -64.3206 637.395 -68.5779C638.192 -69.9362 639.556 -70.1049 640.944 -69.7585V-69.7539ZM554.15 -81.2631C554.657 -85.2697 556.397 -87.0861 560.337 -87.9407C563.073 -88.5356 565.863 -88.8068 568.647 -88.8296C577.09 -88.9002 585.532 -88.8546 593.975 -88.8546C602.347 -88.8546 610.724 -88.9595 619.093 -88.8091C623.194 -88.7339 627.322 -88.4877 631.343 -87.4986C634.632 -86.6895 635.348 -85.55 635.615 -82.0015C636.254 -73.4551 632.117 -66.8162 627.868 -60.2275C627.12 -59.0697 625.839 -58.37 624.591 -57.9302C617.708 -55.503 610.724 -53.4518 603.486 -52.604C599.893 -52.1824 596.402 -53.0895 592.983 -54.1538C582.018 -57.5678 571.047 -60.9704 560.366 -65.3097C559.265 -65.7564 558.189 -66.3103 557.164 -66.9279C554.817 -68.3409 553.502 -70.3351 553.561 -73.3685C553.611 -76.0213 553.814 -78.6513 554.146 -81.2631H554.15ZM554.337 -42.7631C556.363 -34.0708 558.663 -25.4445 560.223 -16.6337C560.362 -15.8429 560.43 -15.0384 560.53 -14.2407C560.612 -11.9959 559.759 -10.2638 558.164 -8.82569C555.346 -6.28683 552.435 -3.90749 549.101 -2.14123C544.489 0.301918 539.887 2.77469 535.309 5.28621C531.831 7.1915 528.406 7.32824 524.94 5.27025C519.002 1.74228 512.699 -1.14984 507.839 -6.47826C505.953 -8.54536 505.448 -10.6216 506.16 -13.2653C507.345 -17.6707 509.249 -21.7684 511.007 -25.9231C513.7 -32.2954 516.149 -38.7907 519.443 -44.8689C521.165 -48.0482 523.348 -50.7945 526.403 -52.6291C531.438 -55.6534 536.599 -58.4384 542.05 -60.5329C546.363 -62.1897 548.344 -61.2735 550.243 -56.8567C552.178 -52.3533 553.225 -47.5377 554.339 -42.7631H554.337ZM472.36 -88.0684C474.073 -88.392 475.799 -88.7612 477.528 -88.8182C487.435 -89.1486 497.345 -89.5156 506.383 -89.2489C517.105 -89.3811 526.948 -89.3424 536.783 -88.8296C539.492 -88.6883 542.21 -88.3578 544.88 -87.8587C548.4 -87.2001 549.824 -84.9438 549.408 -81.2039C549.165 -79.0183 548.926 -76.8304 548.739 -74.6379C548.369 -70.3054 546.515 -66.9849 542.862 -64.8311C537.374 -61.5972 531.72 -58.7256 525.82 -56.4306C522.572 -55.168 519.259 -55.3161 515.952 -56.3599C512.256 -57.5268 508.796 -59.2817 505.348 -61.0502C495.498 -66.0983 485.629 -71.1054 476.07 -76.7552C473.075 -78.526 470.809 -80.8096 470.339 -84.6384C470.116 -86.4616 470.536 -87.7242 472.36 -88.0684ZM475.551 -73.2135C477.462 -72.7554 479.295 -72.0398 481.067 -71.1738C489.987 -66.8139 498.809 -62.2467 507.434 -57.2647C509.333 -56.1685 511.105 -54.8968 512.763 -53.404C515.606 -50.8423 516.352 -47.6038 515.272 -44.0553C512.476 -34.8753 508.701 -26.1214 504.241 -17.7117C502.091 -13.6596 498.759 -12.2785 494.318 -13.2106C488.711 -14.3866 483.162 -15.7631 477.644 -17.3106C472.897 -18.6416 469.902 -21.5588 469.085 -26.9077C468.135 -33.125 466.809 -39.2807 466.404 -45.8079C467.127 -53.7071 467.932 -61.7977 469.861 -69.7015C470.641 -72.899 472.497 -73.9474 475.554 -73.2158L475.551 -73.2135ZM391.456 -85.2355C392.088 -87.175 394.098 -87.5351 395.802 -87.8769C398.886 -88.4946 402.022 -88.825 405.159 -88.8341C421.28 -88.8774 437.401 -88.8934 453.522 -88.8068C456.362 -88.7908 459.228 -88.5789 462.046 -87.9954C464.134 -87.5647 465.321 -86.3112 465.878 -84.1621C466.834 -80.47 466.818 -76.7779 466.233 -73.038C465.339 -67.3222 464.703 -61.5516 463.574 -55.8881C462.278 -49.3837 459.938 -47.7132 453.544 -47.2141C448.525 -46.8221 443.507 -46.879 437.46 -46.7696C435.834 -46.7696 433.182 -46.8038 430.532 -46.7628C424.53 -46.6716 419.153 -48.5017 414.316 -52.2667C407.41 -57.6385 400.712 -63.2768 394.046 -68.9722C388.935 -73.3389 389.381 -78.8792 391.456 -85.2355ZM389.791 -67.7552C391.208 -66.9735 392.613 -66.1302 393.91 -65.1479C399.575 -60.8588 404.89 -56.0819 410.501 -51.7289C417.365 -46.4027 420.718 -39.1599 422.146 -30.602C423.461 -22.7279 424.873 -14.872 426.222 -7.00473C426.356 -6.21618 426.365 -5.39799 426.395 -4.59121C426.588 0.627823 423.613 3.28975 418.619 2.44195C414.163 1.6853 410.042 -0.108315 405.966 -2.02956C400.107 -4.79177 394.471 -8.02802 388.74 -11.0614C382.012 -14.6259 378.216 -19.6877 379.519 -26.3585C379.999 -37.1543 380.707 -46.2865 381.789 -55.389C382.287 -59.587 384.155 -63.188 386.174 -66.7182C387.032 -68.2155 388.346 -68.5483 389.791 -67.7506V-67.7552ZM308.824 -85.0897C308.965 -86.7215 310.027 -87.5214 311.381 -87.9316C313.4 -88.5424 315.491 -88.7999 317.581 -88.8478C327.422 -89.0689 337.259 -89.4928 347.105 -89.2444C356.88 -89.4563 366.651 -89.1783 376.417 -88.8341C378.712 -88.7544 381.005 -88.4307 383.227 -87.7539C385.228 -87.1454 386.272 -85.7962 386.127 -83.5331C385.669 -76.452 383.918 -69.8063 380.211 -63.801C378.958 -61.7704 377.145 -60.6331 374.987 -60.0292C368.905 -58.329 362.653 -57.6202 356.462 -56.5787C352.336 -55.8836 348.165 -55.4825 344.005 -55.0061C338.985 -54.4318 334.58 -55.8312 330.629 -58.8805C324.265 -63.7919 318.238 -69.15 312.236 -74.5399C309.038 -77.4115 308.469 -81.0443 308.822 -85.0874L308.824 -85.0897ZM312.193 -70.506C318.122 -66.2077 323.656 -61.3624 328.944 -56.2209C332.071 -53.1806 332.949 -49.3701 331.723 -45.1447C329.21 -36.4888 325.982 -28.1065 322.209 -19.9885C319.525 -14.2134 318.268 -13.7188 312.077 -14.0812C310.057 -14.1906 308.044 -14.3456 306.029 -14.5666C303.04 -14.8925 301.121 -16.4035 300.134 -19.3549C298.478 -24.2982 297.768 -29.4694 296.793 -34.5744C296.163 -37.8768 295.501 -41.1723 295.453 -44.5863C295.412 -47.5947 295.924 -50.4412 297.002 -53.1761C299.065 -58.4065 301.398 -63.507 304.028 -68.4457C306.275 -72.6688 308.385 -73.2659 312.193 -70.506ZM250.268 -88.4102C254.78 -89.1122 259.317 -88.841 263.846 -88.9344C267.542 -89.0096 271.242 -88.9504 274.94 -88.9504V-88.8569C281.638 -88.8569 288.337 -88.8957 295.037 -88.8364C297.261 -88.8159 299.486 -88.5652 301.665 -88.0296C303.457 -87.5898 304.337 -86.4069 304.469 -84.4424C304.737 -80.4313 304.442 -76.5911 302.752 -72.8511C300.416 -67.68 298.187 -62.4564 295.676 -57.3741C292.528 -51.0041 290.736 -49.9193 283.999 -50.8788C279.93 -51.4577 275.907 -52.3898 271.868 -53.1875C266.696 -54.2085 262.925 -57.4675 259.809 -61.6974C255.319 -67.7916 251.011 -74.0294 247.063 -80.5315C246.988 -80.6546 246.915 -80.78 246.842 -80.9053C244.127 -85.5751 245.082 -87.608 250.268 -88.4125V-88.4102ZM239.296 -86.1973C243.82 -81.4546 247.045 -75.643 250.875 -70.3282C253.063 -67.2902 255.067 -64.1041 257.061 -60.9203C260.016 -56.2049 260.762 -51.1865 258.599 -45.8785C254.969 -36.9674 251.009 -28.2159 246.203 -19.9406C243.171 -14.7193 241.254 -14.1222 235.718 -16.0594C232.746 -17.0987 229.891 -18.5071 226.937 -19.6056C222.06 -21.4152 219.841 -25.2645 219.297 -30.3969C218.49 -38.0409 217.744 -45.6917 217.5 -53.3857C217.277 -57.7866 218.026 -61.9914 219.656 -66.0482C222.101 -72.1287 224.421 -78.2707 227.228 -84.1803C229.582 -89.1372 235.557 -90.1218 239.298 -86.1973H239.296ZM155.946 -87.984C160.515 -89.2512 165.228 -89.062 169.881 -89.2375C175.667 -89.454 181.465 -89.2899 187.26 -89.2899C195.841 -89.2603 204.427 -89.4745 213.002 -88.8638C215.299 -88.6997 217.594 -88.4581 219.788 -87.6741C222.258 -86.7921 223.293 -85.1694 222.554 -82.5941C220.796 -76.468 218.506 -70.5379 215.21 -65.132C212.742 -61.0844 208.578 -60.4668 204.52 -60.1386C197.431 -59.5665 190.317 -59.423 183.211 -59.1062C175.867 -58.778 170.038 -61.3374 165.442 -67.3814C161.955 -71.9669 158.211 -76.3358 154.957 -81.1195C154.59 -81.6574 154.224 -82.1975 153.91 -82.7673C152.387 -85.5477 152.998 -87.1659 155.946 -87.9818V-87.984ZM129.663 -83.6675C130.461 -87.1134 131.569 -87.6536 135.031 -88.0866C137.423 -88.3852 139.759 -88.1413 142.12 -87.959C144.494 -87.7744 146.396 -86.4685 147.92 -84.741C154.192 -77.6349 160.099 -70.2052 165.505 -62.3379C169.003 -57.2465 169.167 -51.4645 168.548 -45.6438C167.657 -37.2728 166.538 -28.9247 165.335 -20.5902C164.621 -15.6537 161.991 -12.9303 157.738 -11.4284C155.68 -10.7014 153.703 -11.3577 151.75 -11.711C147.633 -12.4539 143.546 -13.3975 139.468 -14.3547C131.785 -16.162 129.861 -18.09 128.846 -26.2946C127.416 -37.8586 126.768 -49.5068 126.201 -59.195C126.074 -68.8765 127.95 -76.2697 129.663 -83.6698V-83.6675ZM125.558 -19.5874C124.989 -16.4491 123.483 -14.0105 121.063 -12.1736C116.531 -8.73225 111.738 -5.72163 106.903 -2.7862C103.15 -0.50943 99.2338 0.153778 95.0489 -1.36179C91.9534 -2.48309 88.7852 -3.39243 85.7057 -4.5593C81.4958 -6.15464 80.2244 -8.15793 81.0522 -12.814C82.6693 -21.9052 84.8278 -30.8733 87.7185 -39.618C89.1923 -44.0735 92.2764 -47.1206 96.1543 -49.2948C102.313 -52.7476 108.57 -55.9907 115.018 -58.8099C115.082 -58.8372 115.148 -58.8623 115.214 -58.8897C120.386 -61.032 122.521 -59.9426 123.515 -54.1971C124.236 -50.0241 124.614 -45.7714 124.955 -41.5392C125.398 -36.0604 125.656 -30.5633 125.994 -25.0731C125.858 -23.2339 125.887 -21.4175 125.558 -19.5874ZM70.8061 -87.7106C73.0759 -88.5082 75.4504 -88.7977 77.8158 -88.8273C84.0294 -88.9071 90.2431 -88.8546 96.4568 -88.8546C104.062 -88.9367 111.677 -89.2375 119.267 -88.449C119.683 -88.4057 120.106 -88.4216 120.52 -88.3601C125.212 -87.649 126.52 -86.04 125.833 -81.1309C125.346 -77.6554 124.593 -74.1958 123.661 -70.8182C122.863 -67.9261 121.095 -65.6357 118.582 -64.0494C111.259 -59.423 103.551 -55.6283 95.6175 -52.3374C91.5622 -50.6554 87.9914 -51.4577 85.0097 -54.9948C82.8195 -57.5929 80.9704 -60.4371 79.1759 -63.3247C76.2715 -67.999 73.4398 -72.7235 70.6014 -77.4411C69.6279 -79.0593 68.8342 -80.7777 68.302 -82.6192C67.5309 -85.2879 68.261 -86.8195 70.8015 -87.7128L70.8061 -87.7106ZM48.31 -75.9506C48.36 -78.7881 48.5101 -81.6688 49.4017 -84.4196C50.1363 -86.685 51.5647 -87.7311 53.8709 -88.041C58.2468 -88.6267 61.5197 -86.9129 63.9442 -83.2527C70.4467 -73.4277 76.8492 -63.5344 82.3418 -53.0234C85.0074 -47.9206 85.3349 -42.6446 84.109 -37.0313C82.3941 -29.1617 80.5996 -21.3126 78.3685 -13.5935C76.4534 -6.9751 76.3192 -6.79961 69.0707 -7.85481C63.5553 -8.65704 58.4879 -11.4922 53.4933 -14.1199C51.2258 -15.3119 50.1386 -17.5454 49.5041 -20.0523C48.5238 -23.9199 48.4419 -27.9105 48.3282 -31.8464C48.1167 -39.1918 48.2668 -46.5463 48.2668 -53.8985C48.2668 -61.2508 48.1826 -68.603 48.31 -75.9506ZM51.642 -10.0974C54.6214 -9.05132 57.5509 -7.87077 60.387 -6.44181C64.415 -4.41117 65.161 -3.14174 65.1178 3.19403C64.9791 7.58576 63.5416 13.3495 62.4044 19.1611C60.9716 26.4905 59.3772 33.7835 57.2143 40.9238C56.7025 42.6125 56.0361 44.2238 55.1059 45.7007C53.3091 48.5518 51.3145 49.2263 48.2486 48.0048C45.9241 47.0772 44.0182 45.4591 42.1555 43.7931C33.324 35.8939 24.7404 27.7212 17.0165 18.5936C14.733 15.8952 14.0257 12.8709 14.9172 9.40673C14.9536 9.26543 15.0105 9.12641 15.0264 8.98283C15.7997 1.81976 19.5411 -2.44662 26.1164 -4.50689C31.9184 -6.32329 37.4793 -8.98067 43.3905 -10.4803C46.1652 -11.1845 48.9309 -11.0478 51.642 -10.0974ZM44.0068 -74.0864C44.6095 -72.4318 44.8847 -70.686 44.9916 -68.9243C45.4829 -60.9294 45.4806 -52.9231 45.4215 -42.991C45.2304 -38.3166 45.674 -31.7097 45.0667 -25.1027C44.5072 -19.0176 42.2987 -14.5324 36.4831 -12.34C32.0844 -10.6808 27.713 -8.95332 23.262 -7.45826C18.6632 -5.91306 14.4828 -6.67655 10.5982 -9.67578C6.93865 -12.4995 3.21774 -15.239 -0.162023 -18.4342C-4.50158 -22.5342 -4.81317 -25.3306 -1.63811 -30.5473C0.822792 -34.5904 3.91598 -38.0933 6.98187 -41.6099C15.5245 -51.4075 24.1854 -61.0889 33.1875 -70.4262C35.1776 -72.491 37.2223 -74.5126 39.7514 -75.8458C41.8894 -76.9717 43.1516 -76.4384 44.0045 -74.0909L44.0068 -74.0864ZM-7.59704 -75.6361C-6.64861 -84.88 -4.04442 -87.8724 4.80754 -88.2963C13.7869 -88.7247 22.798 -89.0028 31.7797 -88C38.8189 -87.2137 40.1927 -84.292 36.4172 -78.0041C33.2648 -72.7577 29.1595 -68.3204 25.193 -63.7896C17.2485 -54.719 9.4132 -45.5298 0.679504 -37.2683C-0.516829 -36.1356 -1.80641 -35.1283 -3.2825 -34.424C-4.93371 -33.6355 -6.13232 -34.1163 -6.80782 -35.9008C-7.64707 -38.1206 -7.82902 -40.4772 -7.86314 -42.8201C-7.93592 -47.7405 -7.88588 -52.6633 -7.88588 -57.586C-7.78808 -63.6005 -8.21112 -69.6308 -7.59476 -75.6384L-7.59704 -75.6361ZM-8.65236 -7.59956C-8.64326 -10.0473 -8.5682 -12.5975 -7.80173 -14.9996C-7.02161 -17.4405 -5.83665 -17.9875 -3.66005 -16.7796C-1.24236 -15.4395 0.893299 -13.6482 2.99484 -11.834C6.11987 -9.13792 9.50418 -6.77227 12.3153 -3.67731C13.5844 -2.28026 14.3305 -0.696312 14.2054 1.31154C13.2092 6.93168 12.097 12.5199 9.24717 17.527C5.55127 24.02 1.29814 30.1188 -2.79123 36.3337C-3.22791 36.9969 -3.69871 37.6442 -4.21955 38.2322C-5.00649 39.1187 -5.69336 40.6343 -6.96703 40.2537C-8.36351 39.8367 -8.24751 38.1524 -8.33167 36.8625C-9.28009 22.0486 -8.71377 7.22112 -8.65463 -7.59956H-8.65236ZM-8.76153 214.23C-8.8798 211 -9.30966 207.787 -9.2346 204.542C-9.06402 200.875 -8.93666 197.203 -8.70922 193.541C-8.46131 189.559 -6.85785 187.428 -3.1665 186.555C0.706799 185.641 4.62786 184.942 8.54666 184.269C9.58606 184.092 10.9007 183.736 11.6649 184.887C12.4154 186.017 11.6762 187.15 11.2213 188.198C9.53147 192.093 7.157 195.562 4.94855 199.127C1.55742 204.601 -1.69724 210.175 -5.55462 215.315C-6.1255 216.076 -6.72367 217.3 -7.82448 216.926C-8.92756 216.552 -8.72286 215.23 -8.75925 214.23H-8.76153ZM-7.93592 226.375C-7.57202 223.553 -6.70774 220.914 -5.33173 218.528C1.66432 206.415 8.74225 194.356 16.9483 183.084C18.1128 181.487 19.6366 180.304 21.1582 179.146C22.6525 178.011 24.0922 178.273 25.1225 179.923C25.8844 181.147 26.6395 182.41 27.1649 183.757C29.8896 190.749 32.819 197.702 33.8493 205.25C34.3224 208.719 34.211 212.279 34.3042 214.462C33.9062 225.187 33.8994 234.589 32.8873 243.944C32.2891 249.475 29.8009 252.424 24.6403 252.595C15.7156 252.892 6.77945 252.814 -2.07479 251.328C-6.59857 250.569 -8.23159 248.593 -8.2839 243.753C-8.34759 237.959 -8.68192 232.157 -7.9382 226.373L-7.93592 226.375ZM49.0446 277.592C44.5618 278.916 39.922 278.861 35.3368 279.076C30.3877 279.308 25.4227 279.128 20.4645 279.128C14.0507 278.969 7.61643 279.554 1.21399 278.727C-0.0301056 278.565 -1.28558 278.431 -2.50465 278.139C-5.9299 277.319 -7.17855 275.557 -7.55382 271.86C-7.93365 268.111 -7.92 264.396 -7.52425 260.654C-7.20356 257.643 -6.02997 256.189 -3.18015 255.601C-1.80414 255.319 -0.425854 255.157 0.979725 255.194C10.5322 255.433 20.0915 255.467 29.5803 256.901C32.4756 257.338 35.123 258.455 37.5248 260.121C42.2533 263.403 46.7543 267.008 50.714 271.302C53.6321 274.467 53.1226 276.386 49.0446 277.592ZM56.0748 271.363C50.1204 267.339 44.5822 262.746 39.574 257.5C37.0244 254.831 36.2943 251.237 36.1351 247.568C36.0237 245.002 36.1147 242.424 36.1147 239.851C36.2739 231.56 36.2784 223.255 37.3474 215.012C37.4224 214.433 37.5362 213.854 37.6794 213.289C38.5733 209.747 40.1699 208.514 43.5337 209.483C50.8892 211.597 57.983 214.522 64.7084 218.309C69.0252 220.741 69.91 225.313 70.5423 229.907C71.6908 238.274 72.0957 246.711 72.6142 255.134C72.8894 259.599 71.5771 263.51 68.0404 266.404C66.1163 267.979 64.3764 269.802 62.3317 271.231C60.2574 272.681 58.2036 272.804 56.0771 271.366L56.0748 271.363ZM140.746 278.253C137.296 278.857 133.805 279.032 130.327 279.094C123.627 279.215 116.924 279.128 110.221 279.128C100.453 279.11 90.6752 279.386 80.9203 278.656C76.7559 278.344 72.5551 278.155 68.5021 276.927C64.9313 275.846 64.5492 274.107 67.1761 271.411C71.9455 266.518 77.3518 262.783 83.7542 260.622C91.1278 258.133 98.4332 255.421 105.777 252.835C112.15 250.592 118.023 251.132 123.511 255.727C129.024 260.342 134.871 264.517 140.221 269.362C141.908 270.892 143.091 272.708 143.109 275.224C143.123 277.029 142.375 277.97 140.748 278.253H140.746ZM138.144 263.74C132.847 259.549 127.536 255.383 122.455 250.897C119.64 248.413 117.991 245.469 118.662 241.674C118.459 239.026 118.914 236.633 119.169 234.231C119.46 231.48 120.652 229.203 122.947 227.683C128.326 224.116 133.909 220.937 139.775 218.357C142.88 216.992 145.982 217.37 148.72 219.478C157.029 225.876 164.402 233.381 171.469 241.209C174.414 244.473 173.964 247.832 170.582 250.69C164.755 255.613 158.539 259.964 152.277 264.244C147.422 267.562 142.804 267.423 138.146 263.735L138.144 263.74ZM221.56 274.454C221.135 276.359 220.309 277.439 218.551 277.913C214.225 279.078 209.801 278.754 205.419 278.841C198.229 278.98 191.035 278.877 183.844 278.877C174.064 279.315 164.293 278.868 154.518 278.684C153.478 278.663 152.441 278.433 151.402 278.326C149.887 278.171 148.445 277.863 147.883 276.097C147.292 274.235 147.447 272.437 148.697 270.914C149.377 270.087 150.16 269.319 150.999 268.674C157.941 263.353 164.964 258.17 172.265 253.384C180.564 247.942 188.845 247.848 197.217 252.851C204.625 257.277 211.923 261.905 218.792 267.238C221.137 269.057 222.279 271.236 221.56 274.454ZM219.968 264.052C217.778 262.922 215.61 261.716 213.536 260.369C207.661 256.55 201.852 252.614 196.037 248.694C190.292 244.822 188.01 239.623 189.093 232.619C189.819 227.916 190.351 223.175 191.163 218.487C192.468 210.941 194.072 209.642 202.68 209.749C206.686 209.979 211.974 210.33 217.218 211.144C221.158 211.757 224.335 213.728 226.307 217.468C231.731 227.765 236.237 238.504 239.946 249.605C240.956 252.625 240.34 255.339 237.806 257.486C235.022 259.843 232.043 261.867 228.977 263.77C226.032 265.597 222.986 265.611 219.968 264.054V264.052ZM294.421 278.216C290.77 278.882 287.067 279.062 283.376 279.101C275.072 279.187 266.766 279.128 256.44 279.128C249.744 278.944 241.015 279.504 232.304 278.716C231.888 278.677 231.465 278.702 231.049 278.659C225.802 278.123 224.23 274.456 227.21 269.738C228.124 268.291 229.425 267.302 230.762 266.37C234.251 263.934 237.774 261.554 241.268 259.125C247.318 254.915 254.389 253.942 261.194 252.128C262.274 251.841 263.382 251.675 264.476 251.444C268.581 250.585 272.354 251.239 275.757 253.972C282.478 259.369 288.782 265.269 294.896 271.402C295.399 271.908 295.835 272.489 296.279 273.054C298.544 275.942 297.98 277.567 294.416 278.216H294.421ZM302.877 273.501C299.049 271.29 295.794 268.282 292.508 265.324C288.634 261.839 284.816 258.295 281.093 254.626C276.489 250.091 274.458 244.84 275.834 238.192C276.739 233.821 277.294 229.372 278.343 225.026C279.692 219.444 280.986 218.182 286.371 217.421C287.404 217.275 288.457 217.286 289.283 217.238C297.022 217.749 304.56 218.004 312.031 219.089C316.637 219.759 320.317 222.063 322.55 226.53C326.587 234.602 330.217 242.878 333.033 251.501C335.005 257.534 334.134 260.078 329.323 263.911C324.811 267.507 320.073 270.743 315.061 273.533C310.969 275.81 306.948 275.849 302.877 273.499V273.501ZM386.345 275.206C386.338 277.252 384.432 277.989 382.692 278.191C379.369 278.581 376.033 279.032 372.696 279.094C365.3 279.228 357.901 279.135 350.503 279.135C341.087 279.062 331.659 279.518 322.255 278.718C321.076 278.618 319.885 278.501 318.745 278.196C317.21 277.786 316.992 276.849 318.102 275.694C318.693 275.078 319.368 274.534 320.058 274.041C326.983 269.109 333.474 263.362 341.407 260.251C349.325 257.149 357.578 255.203 365.869 253.532C368.989 252.903 371.95 253.694 374.548 255.807C377.529 258.231 380.579 260.556 383.327 263.289C386.672 266.618 386.356 271.01 386.343 275.201L386.345 275.206ZM462.885 273.941C462.742 275.967 461.948 277.241 460.086 277.802C456.351 278.93 452.494 279.007 448.673 279.083C441.274 279.233 433.871 279.126 422.858 279.126C417.334 278.928 408.179 279.598 399.052 278.722C398.288 278.65 397.521 278.59 396.766 278.456C391.251 277.485 389.302 274.265 390.664 268.455C391.064 266.746 392.349 266.003 393.659 265.299C396.673 263.681 399.953 262.922 403.205 262.092C415.066 259.066 426.945 256.132 438.918 253.614C444.918 252.352 450.281 253.069 454.927 257.518C455.184 257.764 455.464 258.004 455.771 258.17C461.973 261.516 463.361 267.229 462.888 273.936L462.885 273.941ZM459.092 256.545C456.961 254.767 454.754 253.09 452.582 251.367C450.765 249.924 449.694 247.96 449.325 245.647C448.818 242.467 448.42 239.265 448.077 236.061C447.813 233.604 448.225 231.213 449.287 229C451.083 225.265 453.212 221.728 455.275 218.152C458.284 212.935 463.242 211.561 468.417 210.67C477.078 209.177 485.72 207.518 494.486 206.821C500.231 206.365 502.872 208.357 503.54 214.412C504.184 220.251 504.275 226.12 504.8 232.086C504.627 234.094 504.543 236.23 504.245 238.329C503.702 242.141 501.423 244.632 498.291 246.317C489.33 251.137 479.948 254.893 470.495 258.475C466.349 260.048 462.567 259.446 459.092 256.545ZM550.593 276.081C550.441 277.111 549.535 277.581 548.614 277.834C546.993 278.278 545.364 278.615 543.677 278.709C531.402 279.381 519.115 279.046 503.772 279.162C497.34 279.329 487.854 278.946 478.367 278.645C475.879 278.567 473.35 278.381 470.937 277.535C468.951 276.838 467.709 275.545 467.705 273.216C467.705 273.143 467.702 273.068 467.691 272.997C466.488 264.533 468.005 263.248 474.826 260.034C483.546 255.925 492.3 251.868 501.407 248.751C505.733 247.269 510.045 247.267 514.355 248.767C521.71 251.328 528.995 254.102 536.062 257.445C541.448 259.993 545.532 264.399 549.585 268.747C551.507 270.807 550.966 273.547 550.593 276.081ZM550.354 264.061C549.062 262.826 547.739 261.627 546.419 260.424C543.683 257.933 542.774 254.703 543.317 251.08C544.905 240.489 546.736 229.939 549.278 219.554C551.958 208.603 555.053 206.105 565.893 205.825C569.314 205.736 572.737 205.811 576.157 205.811C581.447 205.822 586.776 205.348 592.003 206.672C596.763 207.878 598.262 210.262 597.348 215.285C597.004 217.174 596.381 218.977 595.617 220.707C592.026 228.843 588.005 236.747 583.936 244.626C580.704 250.886 576.125 255.599 570.057 258.838C566.136 260.93 562.32 263.243 558.319 265.169C555.46 266.545 552.774 266.379 550.354 264.061ZM621.873 277.487C621.657 278.442 620.704 278.508 619.992 278.606C618.129 278.864 616.246 279.108 614.369 279.121C606.136 279.176 597.903 279.144 589.669 279.144C589.669 279.146 589.669 279.151 589.669 279.153C582.134 279.153 574.597 279.192 567.062 279.13C564.556 279.11 562.045 278.93 559.552 278.645C557.996 278.467 556.065 278.422 555.556 276.446C554.958 274.13 555.126 271.764 556.763 269.811C557.036 269.485 557.387 269.217 557.737 268.984C563.764 264.993 569.873 261.137 576.517 258.391C579.378 257.208 582.421 257.443 585.35 258.446C592.474 260.88 599.115 264.501 605.89 267.783C609.943 269.748 613.894 271.947 617.881 274.059C618.816 274.554 619.732 275.09 620.617 275.675C621.247 276.092 622.096 276.5 621.87 277.485L621.873 277.487ZM638.837 278.187C633.279 278.736 628.71 276.482 624.131 274.278C613.983 269.397 603.78 264.631 593.954 259.038C592.915 258.446 591.903 257.778 590.945 257.051C586.576 253.724 585.514 250.676 587.522 245.425C590.993 236.348 595.358 227.717 600.402 219.504C603.168 215.002 606.425 214.234 611.065 216.424C615.559 218.544 619.441 221.698 623.399 224.697C632.112 231.307 640.903 237.816 649.106 245.138C650.389 246.282 651.54 247.55 652.582 248.942C654.642 251.697 655.186 254.635 654.017 258.01C652.363 262.78 650.262 267.332 648.292 271.954C646.37 276.464 643.575 279.228 638.837 278.185V278.187ZM682.783 270.68C682.627 275.666 680.723 278.032 675.699 278.449C668.409 279.053 661.065 279.178 653.769 278.285C651.065 277.954 650.289 276.642 651.062 273.827C651.64 271.721 652.438 269.668 653.284 267.658C655.008 263.564 656.821 259.512 658.62 255.453C659.923 252.509 661.952 250.298 664.565 248.536C669.091 245.485 673.661 242.517 678.296 239.657C681.471 237.697 682.551 238.317 682.82 242.283C682.965 244.407 683.134 246.533 683.186 248.659C683.25 251.301 683.202 253.947 683.202 256.454C683.443 261.301 682.931 265.985 682.786 270.682L682.783 270.68Z" fill="url(#paint0_radial_5_166)"/>
</g>
<defs>
<radialGradient id="paint0_radial_5_166" cx="0" cy="0" r="1" gradientUnits="userSpaceOnUse" gradientTransform="translate(336 112.61) rotate(90) scale(180.841 335.192)">
<stop stop-color="white" stop-opacity="0.1"/>
<stop offset="1" stop-color="white" stop-opacity="0"/>
</radialGradient>
</defs>
</svg>
