<svg width="416" height="503" viewBox="0 0 416 503" fill="none" xmlns="http://www.w3.org/2000/svg">
<g filter="url(#filter0_d_62_671)">
<rect x="28" y="144.536" width="671.227" height="324" rx="24" transform="rotate(-11.04 28 144.536)" fill="url(#paint0_linear_62_671)"/>
</g>
<mask id="mask0_62_671" style="mask-type:alpha" maskUnits="userSpaceOnUse" x="16" y="35" width="617" height="404">
<rect x="16" y="144.051" width="569.473" height="300.152" transform="rotate(-11.04 16 144.051)" fill="#D9D9D9"/>
</mask>
<g mask="url(#mask0_62_671)">
<path d="M584.6 22.0272C487.536 41.0044 390.463 59.9398 293.389 78.8794C196.315 97.819 99.2456 116.762 2.1662 135.663C0.859013 135.918 0.62608 136.284 0.894584 137.66C21.2595 241.849 41.5889 346.046 61.882 450.248C62.1505 451.624 62.504 451.876 63.8112 451.621C257.948 413.706 452.094 375.828 646.245 337.985C647.552 337.73 647.785 337.364 647.517 335.988C627.152 231.8 606.822 127.602 586.529 23.4002C586.261 22.024 585.906 21.7726 584.6 22.0272ZM547.631 38.9254C547.403 36.1795 547.9 34.8588 550.35 33.8513C552.486 32.9722 554.671 32.2349 556.943 31.7917C559.44 31.3045 561.937 30.8173 564.435 30.3301C568.223 29.6991 571.934 28.6485 575.8 28.4274C579.999 28.1886 582.433 29.6421 583.638 33.8955C585.983 42.1689 587.64 50.6021 588.578 59.1521C588.948 62.5195 587.573 63.6142 584.431 62.7574C581.299 61.9044 578.421 60.3387 575.51 58.8956C568.333 55.3352 561.155 51.771 554.14 47.8523C550.627 45.8891 548.005 43.4177 547.631 38.9273L547.631 38.9254ZM617.702 206.494C618.025 208.251 618.067 210.085 618.031 211.875C617.985 214.127 616.988 214.609 615.166 213.296C612.182 211.145 609.856 208.241 607.424 205.487C600.64 197.804 593.936 190.043 587.505 182.031C585.652 179.724 583.892 177.344 582.647 174.616C581.177 171.392 581.391 168.781 583.838 166.467C589.036 161.555 594.752 157.349 601.06 154.097C603.301 152.942 605.19 153.7 606.526 155.968C607.989 158.453 608.811 161.225 609.404 164.004C610.922 171.12 612.233 178.283 613.627 185.426C615.02 192.568 616.412 199.459 617.704 206.496L617.702 206.494ZM633.178 287.539C633.461 289.06 633.613 290.624 633.644 292.169C633.715 295.693 630.545 300.141 627.338 301.195C625.913 301.664 624.663 301.204 623.454 300.405C621.223 298.929 619.146 297.243 617.188 295.389C607.866 286.564 598.302 278.013 589.481 268.614C588.343 267.402 587.349 266.069 586.548 264.592C585.64 262.919 585.541 261.191 586.686 259.693C591.142 253.869 595.824 248.486 603.664 247.646C608.002 247.181 612.276 246.129 616.622 245.588C621.545 244.973 624.396 246.912 625.914 251.876C627.869 258.264 628.795 264.87 630.052 271.403C631.101 276.779 632.18 282.151 633.18 287.537L633.178 287.539ZM128.809 374.521C131.732 368.541 134.737 362.615 138.155 356.932C141.001 352.203 143.082 352.061 146.303 356.584C151.668 364.121 156.675 371.92 161.191 380.039C163.771 384.678 164.143 389.867 164.153 395.05C164.156 396.675 163.163 397.907 162.003 398.935C160.112 400.608 158.035 402.001 155.889 403.278C150.633 406.405 145.521 409.815 139.932 412.298C136.397 413.87 134.398 412.941 132.915 409.128C131.316 405.016 130.164 400.753 129.017 396.494C128.355 394.037 127.466 391.633 127.191 388.969C125.642 383.927 126.552 379.141 128.812 374.519L128.809 374.521ZM473.74 150.791C474.906 154.493 475.607 158.278 475.994 162.134C476.359 165.774 475.198 167.15 471.707 166.68C469.771 166.42 467.847 165.931 465.952 165.406C460.253 163.824 454.576 162.157 448.996 160.127C448.715 160.024 448.434 159.916 448.157 159.801C443.347 157.795 442.411 155.616 444.301 150.688C446.346 145.356 448.681 140.164 451.229 135.086C453.556 130.449 455.334 129.728 460.184 131.393C462.335 132.132 464.463 132.957 466.566 133.839C468.482 134.642 469.823 136.092 470.596 138.138C471.364 140.176 472.108 142.213 472.497 144.371C472.884 146.517 473.326 148.652 473.744 150.79L473.74 150.791ZM546.321 87.2C546.673 89.5735 546.518 91.9591 545.481 94.1074C542.696 99.8792 539.807 105.585 535.976 110.698C533.471 114.042 530.301 115.42 526.221 114.949C520.171 114.25 514.291 112.745 508.497 110.808C505.441 109.787 504.641 108.075 505.669 104.929C506.663 101.882 508.125 99.0581 509.596 96.2504C512.623 90.4749 515.486 84.6012 518.809 79.0022C520.77 75.6975 523.298 73.0258 526.6 71.1872C530.182 69.1936 533.819 67.3034 537.684 65.9805C540.943 64.8665 541.927 65.3791 542.986 68.8579C543.67 71.1036 543.934 73.4823 544.386 75.8006C545.41 79.5383 545.758 83.3881 546.324 87.2015L546.321 87.2ZM515.066 234.134C511.078 225.453 506.994 216.819 503.442 207.933C502.53 205.653 502.364 203.355 502.911 200.994C503.393 198.904 504.033 198.52 505.952 199.379C508.98 200.736 511.778 202.569 514.577 204.373C521.86 209.07 529.189 213.693 536.298 218.687C538.287 220.086 540.226 221.549 541.905 223.368C543.852 225.478 544.579 227.924 543.949 230.748C542.806 235.879 541.314 240.892 539.473 245.781C538.446 248.51 536.737 250.377 534.193 250.414C531.799 250.826 529.847 250.835 527.898 250.938C525.217 251.078 523.384 249.757 521.944 247.517C519.222 243.29 517.166 238.697 515.067 234.132L515.066 234.134ZM514.438 256.955C509.88 260.426 505.181 263.688 500.306 266.666C497.499 268.381 494.384 268.591 491.222 268.444C489.84 268.379 488.874 267.543 488.525 266.105C488.217 264.839 488.013 263.545 487.763 262.263C486.757 255.191 485.939 248.093 485.477 240.964C485.194 236.615 486.218 232.604 488.167 228.845C490.471 224.405 492.982 220.096 495.581 215.846C496.183 214.863 496.837 213.905 497.562 213.023C499.503 210.665 501.068 210.741 502.829 213.355C505.114 216.747 506.735 220.523 508.463 224.23C511.658 231.082 514.889 237.917 517.585 245.003C519.635 250.386 518.856 253.59 514.439 256.952L514.438 256.955ZM530.169 212.124C523.791 208.047 517.46 203.889 511.717 198.825C510.204 197.489 508.839 195.992 507.72 194.27C505.549 190.931 505.756 188.111 508.609 185.511C512.801 181.691 517.508 178.744 522.752 176.674C531.333 173.289 539.915 169.909 548.607 166.834C549.551 166.5 550.549 166.317 551.251 166.133C556.155 164.936 560.349 166.457 564.258 168.918C566.958 170.617 567.966 173.559 568.349 176.689C568.875 181.006 568.354 185.238 567.477 189.422C566.085 196.067 564.702 202.716 562.583 209.149C561.633 212.036 560.01 214.377 557.592 216.105C555.601 217.526 553.573 218.876 551.429 220.038C549.099 221.302 546.734 221.419 544.247 220.326C539.266 218.137 534.758 215.052 530.168 212.12L530.169 212.124ZM513.282 153.733C512.996 151.07 513.422 148.501 514.339 146.075C516.616 140.039 519.34 134.226 522.617 128.728C523.328 127.539 524.226 126.438 525.189 125.462C527.581 123.031 530.279 123.016 532.78 125.427C535.319 127.875 537.153 130.902 538.843 134.012C542.043 139.891 544.983 145.905 547.63 152.073C548.22 153.446 548.72 154.84 549.018 156.319C549.783 160.127 549.009 162.111 545.796 164.051C542.469 166.06 538.791 167.248 535.209 168.637C531.514 170.07 527.761 171.35 524.026 172.667C523.359 172.901 522.654 173.033 521.955 173.153C518.524 173.746 516.802 172.59 515.931 169.002C515.477 167.127 515.177 165.216 514.807 163.32C514.054 160.163 513.628 156.956 513.283 153.735L513.282 153.733ZM560.253 163.336C556.92 162.479 554.446 160.606 552.702 157.507C548.843 150.648 545.596 143.46 542.114 136.4C539.703 131.512 537.166 126.683 535.373 121.487C534.627 119.327 534.612 117.336 535.906 115.486C536.668 114.397 537.488 113.347 538.361 112.354C539.494 111.065 540.991 110.598 542.571 111.175C549.22 113.61 555.741 116.374 561.631 120.556C563.698 122.023 564.524 124.312 564.965 126.784C565.81 133.341 565.707 139.926 565.739 146.502C565.759 150.784 565.714 155.07 565.518 159.343C565.306 164.001 564.522 164.433 560.255 163.335L560.253 163.336ZM562.574 117.638C556.287 115.411 550.269 112.524 544.55 108.97C542.257 107.546 542.007 106.303 543.082 103.779C544.31 100.894 545.903 98.2321 547.66 95.6796C548.827 93.982 550.551 93.6299 552.393 93.8628C553.861 94.0486 555.337 94.3451 556.76 94.7838C562.588 96.5766 568.448 98.2786 574.074 100.743C577.05 102.047 577.455 103.619 575.672 106.387C573.697 109.451 571.607 112.426 569.302 115.224C568.297 116.445 567.188 117.547 565.485 117.824C564.553 118.081 563.54 117.979 562.573 117.636L562.574 117.638ZM515.732 79.9939C512.775 87.1984 509.278 94.1146 504.826 100.436C504.058 101.524 503.152 102.496 502.092 103.293C499.756 105.049 497.493 104.922 495.302 102.884C492.747 100.506 491.054 97.4575 489.479 94.3744C486.351 88.2551 483.521 81.9849 481.158 75.4998C481.01 75.0919 480.875 74.6753 480.787 74.2518C480.158 71.2104 481.04 69.8203 483.927 69.2609C486.167 68.7963 488.409 69.2031 490.647 69.41C497.145 70.0154 503.616 70.9037 510.048 72.1242C510.806 72.2675 511.564 72.4482 512.302 72.6879C516.311 73.9897 517.385 75.9623 515.73 79.9924L515.732 79.9939ZM498.334 111.813C499.823 111.774 501.248 111.71 502.652 112.052C508.389 113.444 514.163 114.675 519.789 116.556C523.362 117.752 524.178 119.415 522.763 123.036C520.329 129.269 517.343 135.214 514.181 141.059C513.979 141.433 513.735 141.783 513.5 142.136C511.43 145.236 509.736 145.413 507.266 142.516C502.076 136.425 497.502 129.829 493.15 123.076C491.155 119.978 491.376 118.741 493.629 115.926C494.382 114.984 495.136 114.038 495.946 113.15C496.605 112.429 497.414 111.925 498.335 111.816L498.334 111.813ZM494.088 128.216C498.402 133.758 502.475 139.488 506.43 145.312C508.973 149.059 510.592 153.172 511.349 157.664C512.205 162.753 513.595 167.756 513.862 172.94C513.955 174.754 513.557 176.439 512.322 177.719C509.385 180.763 506.014 183.22 502.408 185.32C500.623 186.359 498.734 186.088 496.904 185.341C492.617 183.592 488.476 181.501 484.473 179.111C482.792 178.106 482.025 176.438 481.522 174.584C479.644 167.676 478.074 160.695 476.698 153.671C476.578 153.059 476.459 152.449 476.34 151.838C475.63 147.484 474.302 143.235 474.146 138.781C474.051 136.102 474.918 133.951 476.759 132.185C479.45 129.604 482.327 127.266 485.343 125.123C487.84 123.347 489.666 123.547 491.906 125.725C492.691 126.491 493.411 127.342 494.09 128.215L494.088 128.216ZM484.725 183.473C488.804 184.771 492.646 186.67 495.906 189.621C500.237 193.542 501.212 198.082 499.139 203.975C497.683 208.116 495.379 211.779 493.165 215.477C490.825 219.385 488.752 223.479 485.997 227.104C484.649 228.878 483.11 230.339 480.784 230.701C479.794 230.961 478.727 230.884 477.678 230.649C470.283 229.001 463.003 226.899 455.892 224.138C452.268 222.732 450.635 219.912 450.314 215.998C449.972 211.85 449.53 207.715 449.491 203.549C449.459 199.942 450.809 197.278 453.759 195.408C459.662 191.667 466.124 189.139 472.363 186.129C474.772 184.966 477.268 184.054 479.816 183.282C481.448 182.788 483.138 182.966 484.727 183.473L484.725 183.473ZM439.091 231.879C435.804 232.133 432.484 231.976 429.182 232.091C425.753 232.211 422.942 230.878 420.587 228.281C414.562 221.635 409.077 214.519 404.055 207.034C401.454 203.157 402.163 200.732 406.184 198.761C412.347 195.741 418.617 192.961 425.149 190.868C427.073 190.251 429.058 190.491 430.937 191.057C434.776 192.211 438.442 193.892 442.034 195.744C444.853 197.197 446.04 199.728 446.166 201.405C447.173 209.06 447.492 215.317 447.649 221.573C447.728 224.749 446.286 227.453 444.61 229.913C443.319 231.81 441.037 231.73 439.089 231.88L439.091 231.879ZM446.21 249.788C446.754 252.649 446.88 255.588 447.355 258.465C447.801 261.174 447.959 263.898 448.084 266.619C448.198 269.107 446.516 270.773 443.41 271.49C439.645 272.356 435.777 272.154 431.953 272.414C431.071 272.474 430.184 272.456 429.298 272.442C424.158 272.361 422.936 271.602 421.101 266.665C419.265 261.725 417.897 256.624 416.568 251.532C415.587 248.319 416.333 245.519 418.166 242.945C418.727 242.157 419.305 241.357 419.724 240.483C421.823 236.094 425.208 234.218 429.907 234.371C432.85 234.468 435.798 234.066 438.758 234.229C441.823 234.398 443.142 235.597 444.251 238.612C445.585 242.24 445.499 246.076 446.209 249.792L446.21 249.788ZM449.458 258.828C448.327 251.26 447.181 243.695 446.538 236.07C446.274 232.935 447.389 230.225 449.107 227.788C449.722 226.916 450.615 226.431 451.729 226.566C452.142 226.617 452.566 226.588 452.969 226.68C461.344 228.618 469.648 230.862 477.642 234.212C481.447 235.806 482.904 239.431 483.385 243.336C484.289 250.676 485.161 258.027 485.605 265.414C485.904 270.399 483.396 273.094 478.59 272.668C471.902 272.074 465.268 270.968 458.681 269.575C452.375 268.241 450.899 266.553 449.671 259.928C449.603 259.559 449.528 259.194 449.456 258.826L449.458 258.828ZM479.337 178.121C479.111 179.49 478.081 180.155 477.055 180.768C472.204 183.673 467.074 185.996 461.965 188.352C457.78 190.283 453.721 192.57 448.494 193.669C446.96 194.169 444.801 193.901 442.7 193.026C439.487 191.687 436.309 190.247 433.096 188.914C429.908 187.59 428.87 184.91 428.684 181.65C428.591 180.039 428.494 178.424 428.447 176.812C428.38 174.535 429.109 172.545 430.531 170.874C432.444 168.626 434.416 166.431 436.335 164.189C438.734 161.389 441.779 160.679 445.202 161.416C447.703 161.955 450.189 162.609 452.647 163.342C459.175 165.284 465.689 167.277 472.196 169.298C473.446 169.686 474.677 170.207 475.845 170.821C478.031 171.971 479.746 175.635 479.335 178.122L479.337 178.121ZM450.963 129.776C450.828 130.897 450.492 131.952 450.07 132.969C446.928 140.558 443.723 148.117 439.975 155.391C437.516 160.167 433.906 163.99 430.155 167.634C428.263 169.471 426.847 169.277 425.298 167.013C423.908 164.982 422.655 162.828 421.527 160.628C417.941 153.624 414.389 146.599 411.224 139.375C409.79 136.101 409.863 132.976 411.931 130.065C413.09 128.436 414.239 126.799 415.443 125.207C416.54 123.755 418.013 122.901 419.989 122.49C423.6 122.297 427.449 122.508 431.292 122.673C434.903 122.829 438.508 123.282 442.119 123.428C445.238 123.555 447.62 125.275 449.985 127.112C450.823 127.763 451.093 128.702 450.963 129.776ZM413.446 122.987C410.174 129.245 406.15 134.566 399.168 136.627C396.803 137.324 394.58 138.514 392.212 139.281C388.973 140.33 387.285 139.732 385.48 136.613C383.238 132.739 381.859 128.461 380.203 124.319C378.914 121.096 377.769 117.811 376.62 114.53C376.274 113.543 376.026 112.49 375.917 111.45C375.583 108.288 377.189 106.436 380.831 105.346C384.919 104.123 389.11 103.382 393.264 102.467C396.214 101.849 399.156 101.186 402.156 100.829C405.662 100.412 407.505 101.403 409.122 104.7C411.201 108.942 412.66 113.441 414.037 117.952C414.544 119.615 414.286 121.385 413.447 122.989L413.446 122.987ZM395.386 141.052C397.674 140.108 399.947 139.126 402.348 138.448C405.199 137.644 407.186 138.807 408.839 141.082C411.316 144.487 413.108 148.315 414.998 152.075C418.224 158.488 421.592 164.836 424.292 171.511C425.851 175.365 426.109 179.486 426.039 183.596C426.003 185.737 424.705 187.084 423.012 188.036C419.181 190.192 415.128 191.853 411.115 193.592C407.157 195.309 403.132 196.862 399.125 198.456C393.75 200.597 391.674 199.428 390.437 193.471C389.146 187.257 388.032 181.004 386.461 175.016C385.227 168.688 383.999 162.525 382.836 156.346C382.539 154.763 382.386 153.142 382.296 151.532C382.187 149.566 382.866 148.011 384.364 146.694C387.599 143.851 391.568 142.624 395.38 141.052L395.386 141.052ZM399.685 205.26C406.012 212.798 411.987 220.638 417.71 228.681C420.451 232.535 420.413 234.596 417.923 238.51C417.142 239.739 416.331 240.948 415.487 242.13C414.234 243.888 412.489 244.405 410.461 244.067C409.702 243.939 408.935 243.784 408.202 243.538C399.689 240.663 391.332 237.331 383.007 233.884C379.193 232.304 376.945 229.578 376.414 225.621C375.441 221.688 376.379 218.463 378.41 215.55C381.554 211.04 385.314 207.17 389.684 203.972C393.077 201.488 396.904 201.946 399.687 205.259L399.685 205.26ZM281.397 307.538C281.899 310.425 281.107 311.397 278.367 311.728C276.583 311.945 274.79 311.824 273.066 311.35C266.041 309.415 259.07 307.27 252.135 304.973C246.463 303.095 243.223 299.071 242.032 293.186C240.155 283.91 238.024 274.678 236.895 265.266C236.828 264.712 236.817 264.152 236.816 263.593C236.811 259.35 238.152 258.063 242.122 258.732C243.933 259.038 245.728 259.56 247.487 260.132C253.349 262.036 259.195 264 264.984 266.163C270.938 268.386 274.48 272.589 275.983 279.104C277.202 284.386 278.189 289.709 278.984 295.069C279.794 299.224 280.669 303.367 281.393 307.537L281.397 307.538ZM271.851 265.174C269.935 265.099 268.064 264.696 266.246 264.124C257.289 261.307 248.278 258.651 239.731 254.529C237.513 253.461 235.282 252.371 233.499 250.521C232.729 249.721 232.086 248.825 231.59 247.81C230.527 245.642 230.688 244.525 232.556 243.198C234.058 242.132 235.647 241.176 237.267 240.313C245.758 235.801 254.368 231.54 263.041 227.415C264.602 226.672 266.259 226.227 267.962 225.969C273.769 225.084 274.052 225.196 276.391 230.931C278.568 236.271 280.697 241.631 282.362 247.176C283.405 250.648 283.088 253.776 281.019 256.679C279.475 258.846 278.134 261.173 276.405 263.201C275.182 264.634 273.683 265.245 271.847 265.172L271.851 265.174ZM85.0303 304.797C84.9313 301.804 85.8678 299.317 88.2218 297.563C93.1634 293.883 98.3793 290.674 103.855 287.94C106.804 286.468 109.624 286.732 112.358 288.958C115.339 291.385 118.226 293.913 121.037 296.55C124.221 299.538 125.018 303.391 125.037 307.562C125.066 314.021 125.005 320.475 124.632 326.916C124.315 332.379 122.481 334.612 117.397 335.529C111.107 336.666 104.742 337.197 98.3508 337.35C93.3959 337.469 91.0293 335.495 89.7037 330.472C89.1968 328.548 88.6667 326.626 88.2291 324.685C87.791 322.742 87.4525 320.775 86.8848 317.865C86.1348 314.182 85.1886 309.544 85.0303 304.797ZM183.952 273.388C190.37 266.283 196.779 259.124 204.655 253.738C208.923 250.82 214.074 249.945 218.842 248.197C220.508 247.587 222.202 247.046 223.899 246.536C225.208 246.141 226.693 245.668 227.746 246.911C228.904 248.275 229.298 249.991 228.647 251.8C228.04 253.491 227.16 255.028 226.205 256.501C220.887 264.706 215.61 272.945 209.903 280.855C207.849 283.704 205.718 286.569 200.785 287.268C197.576 287.518 193.201 287.345 188.83 286.842C187.528 286.692 186.467 285.915 185.784 284.73C184.608 282.687 183.715 280.504 182.984 278.25C182.388 276.41 182.772 274.694 183.952 273.388ZM175.337 271.887C169.085 269.592 162.971 266.92 157.141 263.565C154.513 262.051 153.306 259.376 152.27 256.621C151.963 255.372 152.447 254.418 153.14 253.521C155.925 249.91 159.4 247.04 162.613 243.892C164.585 241.961 166.657 240.138 168.73 238.327C171.783 235.657 175.18 235.071 178.786 237.148C184.919 240.68 190.837 244.602 196.404 249.059C199.455 251.502 199.737 253.56 197.269 256.462C192.737 261.796 187.796 266.709 182.25 270.915C180.119 272.532 177.759 272.776 175.337 271.887ZM222.457 244.35C217.314 246.624 212.044 248.581 206.483 249.538C203.098 250.122 200.152 248.591 197.404 246.827C191.848 243.263 186.412 239.493 180.928 235.803C180.575 235.567 180.231 235.313 179.902 235.045C176.076 231.913 175.459 230.036 176.659 225.178C177.073 223.503 177.532 221.839 177.918 220.156C178.666 216.901 180.566 215.035 183.776 214.663C184.422 214.588 185.055 214.421 185.694 214.296C190.397 213.361 195.182 213.097 199.951 212.745C202.461 212.56 204.87 213.237 207.11 214.644C210.451 216.745 213.56 219.198 216.714 221.578C219.19 223.446 220.338 226.345 221.525 229.148C222.709 231.943 223.828 234.769 224.937 237.597C226.254 240.951 225.624 242.949 222.459 244.349L222.457 244.35ZM176.085 216.941C174.732 223.976 173.678 231.116 168.08 236.189C163.866 240.008 159.926 244.151 155.594 247.834C151.043 251.701 149.287 251.376 146.351 245.991C144.277 242.188 142.373 238.298 140.904 234.188C139.971 231.578 140.431 229.306 142.033 227.254C143.903 224.862 146.154 222.881 148.475 220.999C153.348 217.049 158.257 213.15 163.16 209.242C163.626 208.872 164.135 208.554 164.646 208.251C167.716 206.425 168.99 206.603 171.566 209.207C174.741 212.417 175.713 213.827 176.042 215.875C176.054 216.075 176.166 216.529 176.087 216.938L176.085 216.941ZM152.405 264.603C152.391 265.669 152.218 266.704 151.892 267.702C150.26 272.731 148.423 277.679 146.444 282.563C145.38 285.189 143.719 287.298 141.412 288.818C137.934 291.113 134.48 293.447 130.755 295.309C128.275 296.549 125.905 296.61 123.548 294.85C119.741 292.006 116.19 288.838 112.781 285.497C110.755 283.511 109.998 281.036 110.563 278.178C111.02 275.877 111.486 273.577 111.864 271.258C112.433 267.772 114.477 265.728 117.522 264.575C122.287 262.77 127.203 261.464 132.123 260.209C135.155 259.437 138.125 258.373 141.373 257.97C142.357 257.778 143.455 257.542 144.561 257.352C148.623 256.653 152.46 260.206 152.403 264.602L152.405 264.603ZM127.384 331.69C127.072 322.463 126.701 313.212 127.906 304.028C128.253 301.382 129.576 299.284 131.679 297.811C134.707 295.688 137.835 293.727 141.166 292.147C143.811 290.891 145.752 291.254 147.471 293.707C153.259 301.96 158.294 310.696 162.362 319.993C163.992 323.721 163.301 326.124 160.346 328.726C157.008 331.666 153.266 334.005 149.611 336.47C147.834 337.668 146.016 338.804 144.192 339.924C141.966 341.289 139.618 341.341 137.189 340.406C135.168 339.628 133.262 338.585 131.336 337.581C128.995 336.362 127.623 334.475 127.387 331.695L127.384 331.69ZM150.671 293.689C148.478 289.382 148.071 285.103 149.842 280.615C151.123 277.368 152.142 274.002 153.619 270.842C155.115 267.644 156.48 266.898 159.735 268.081C165.479 270.167 171.05 272.739 176.491 275.617C178.308 276.578 179.596 278.104 180.556 279.985C182.862 284.496 184.161 289.12 183.457 294.313C182.494 301.423 181.644 308.551 180.541 315.638C179.89 319.814 177.983 322.496 173.645 322.526C169.631 324.126 166.89 322.266 164.805 318.737C159.933 310.485 155.03 302.254 150.669 293.689L150.671 293.689ZM183.186 315.81C183.917 308.729 184.571 301.63 186.208 294.713C187.064 291.098 188.321 290.064 191.906 289.967C194.209 289.903 196.518 289.984 198.823 289.973C203.195 289.954 207.094 291.411 210.58 294.228C215.123 297.899 219.773 301.429 224.118 305.364C227.835 308.73 228.171 311.016 225.343 315.145C221.609 320.594 217.463 325.705 213.184 330.688C211.23 332.962 208.912 333.82 205.786 333.542C197.86 332.835 191.624 328.369 185.344 323.894C184.222 323.093 183.49 321.536 183.186 319.937C183.179 318.783 183.034 317.276 183.184 315.811L183.186 315.81ZM212.609 292.7C209.635 289.918 209.209 287.636 210.725 283.851C210.907 283.396 211.084 282.935 211.32 282.511C215.309 275.379 219.692 268.528 224.847 262.276C228.953 257.295 231.567 257.785 233.585 264.125C235.659 270.639 236.941 277.382 238.08 284.134C238.55 288.716 239.734 293.184 240.139 297.786C240.42 300.991 239.56 303.172 236.833 304.846C233.411 306.944 230.379 307.195 227 304.531C222.124 300.689 217.164 296.965 212.607 292.701L212.609 292.7ZM226.683 235.188C225.177 231.989 223.739 228.759 222.899 225.296C222.281 223.085 222.65 220.982 223.35 218.902C225.181 213.45 228.036 208.54 230.596 203.48C232.662 199.395 234.757 195.316 237.228 191.485C239.981 187.219 242.266 187.086 245.125 191.418C250.536 199.619 255.45 208.156 259.51 217.169C261.741 222.124 260.821 225.025 256.292 227.752C249.358 231.929 242.117 235.498 234.682 238.606C230.491 240.356 228.703 239.485 226.683 235.19L226.683 235.188ZM243.611 175.143C244.081 173.369 245.472 172.657 246.997 172.261C249.857 171.518 252.665 170.553 255.63 170.268C257.312 169.939 258.981 169.519 260.679 169.306C263.04 169.007 265.061 169.872 266.409 171.992C270.35 178.189 274.677 184.285 276.21 191.66C277.87 199.642 278.221 207.804 278.355 215.947C278.392 218.192 277.037 219.57 275.64 220.904C272.425 223.971 266.266 223.402 263.878 219.607C256.767 208.307 250.254 196.632 244.113 184.734C242.478 181.568 242.75 178.373 243.609 175.143L243.611 175.143ZM277.977 227.295C277.076 222.989 279.76 219.927 283.697 219.593C288.229 219.211 292.755 218.747 297.295 218.461C302.364 218.142 307.43 217.596 312.521 217.803C317.056 217.987 318.395 219.457 318.727 224.136C318.792 225.066 318.862 225.995 318.876 226.925C318.94 230.958 318.961 234.99 318.725 239.015C318.553 241.957 317.599 244.536 315.88 246.845C314.325 248.933 312.769 251.013 311.041 252.946C309.583 254.579 307.78 255.324 305.628 255.065C300.599 254.462 295.679 253.24 290.841 251.663C288.47 250.89 286.699 249.201 285.553 246.861C282.326 240.278 280.058 233.31 277.977 227.294L277.977 227.295ZM325.567 207.001C323.56 210.118 321.348 213.115 317.74 214.421C315.543 215.216 313.212 215.277 310.92 215.467C303.442 216.087 295.965 216.787 288.444 216.808C287.388 216.811 286.317 216.625 285.269 216.418C283.033 215.978 281.654 214.498 281.196 212.21C280.119 206.82 279.755 201.362 279.859 195.895C279.915 192.952 281.274 191.441 283.894 190.509C287.629 189.18 291.552 189.078 295.422 188.734C302.19 188.134 308.958 187.474 315.768 187.391C316.005 187.388 316.241 187.399 316.478 187.41C321.947 187.668 323.325 188.873 324.5 194.452C324.757 195.671 324.979 196.897 325.217 198.12L325.291 198.105C325.386 198.594 325.499 199.08 325.573 199.573C325.959 202.064 327.073 204.663 325.566 207.003L325.567 207.001ZM312.081 266.577C311.762 264.872 311.614 263.126 311.494 261.394C311.32 258.902 311.869 256.624 313.293 254.581C314.786 252.44 316.395 250.41 318.076 248.437C319.532 246.731 321.315 246.28 323.356 247.118C328.419 249.194 333.311 251.653 337.823 254.89C340.307 256.672 341.362 259.43 342.04 262.3C342.812 265.565 343.356 268.887 344 272.185C345.067 277.17 346.244 282.149 346.223 287.285C346.219 288.091 346.198 288.9 346.125 289.699C345.705 294.21 343.491 296.59 339.168 296.719C333.53 296.889 327.928 296.179 322.405 294.852C320.064 294.29 318.368 292.763 317.421 290.394C316.658 288.49 315.957 286.567 315.562 284.542C314.398 278.555 313.2 272.575 312.081 266.579L312.081 266.577ZM337.351 250.67C333.387 248.931 329.536 246.918 325.814 244.659C323.729 243.393 322.251 241.517 321.774 238.385C321.258 233.828 321.599 228.743 321.573 223.658C321.568 222.543 321.684 221.428 321.69 220.313C321.719 215.347 324.815 212.386 328.028 209.547C329.219 208.494 330.798 208.487 332.269 208.79C342.433 210.881 352.509 213.399 362.071 217.758C368.639 220.752 369.523 224.976 365.067 230.761C360.992 236.052 355.98 240.355 351.223 244.924C349.315 246.756 347.273 248.402 345.118 249.909C342.669 251.624 340.068 251.864 337.349 250.671L337.351 250.67ZM327.197 192.232C326.172 188.168 325.573 184.071 325.98 179.866C326.277 176.781 326.915 175.852 329.858 175.837C337.441 175.794 345.004 176.309 352.495 177.807C355.195 178.347 357.518 179.757 359.47 181.803C365.829 188.467 371.526 195.736 376.983 203.201C380.09 207.45 379.808 208.693 376.621 212.798C374.282 215.81 371.506 216.799 367.871 216.042C361.56 214.727 355.406 212.765 349.219 210.94C344.465 209.538 339.698 208.187 335.05 206.367C331.27 204.887 329.062 202.206 328.335 198.096C327.989 196.135 327.578 194.184 327.196 192.23L327.197 192.232ZM347.04 275.971C346.159 270.389 345.027 265.783 344.933 261.023C344.857 257.215 346.035 253.884 348.386 251.176C355.039 243.518 362.559 236.809 370.073 230.118C373.404 227.152 374.231 227.575 375.925 231.918C377.217 235.232 377.387 238.719 377.789 242.159C378.466 247.954 378.98 253.769 379.509 259.578C379.901 263.904 380.329 268.23 380.111 272.58C379.918 276.439 378.317 279.516 375.337 281.634C369.45 285.817 363.268 289.497 356.726 292.465C352.9 294.202 350.733 292.714 349.521 288.033C348.412 283.749 347.286 279.478 347.04 275.971ZM382.97 270.495C381.647 261.458 380.632 252.384 380.296 243.262C380.096 237.84 381.986 236.403 386.949 237.975C393.508 240.052 399.885 242.693 406.226 245.43C410.686 247.356 414.038 250.374 415.489 255.424C416.791 259.955 418.517 264.361 419.378 269.026C419.815 271.388 419.265 273.42 417.458 274.815C413.3 278.025 409.004 281.008 404.182 283.096C402.193 283.959 400.22 283.59 398.263 283.114C395.309 282.395 392.431 281.365 389.544 280.374C386.157 279.21 384.044 276.996 383.499 273.245C383.364 272.323 383.147 271.413 382.968 270.496L382.97 270.495ZM388.545 196.457C388.99 200.176 387.305 203.194 384.03 204.587C382.618 205.187 381.519 204.559 380.486 203.563C376.686 199.898 373.513 195.643 370.171 191.549C367.57 188.361 364.993 185.149 362.628 181.751C359.975 177.936 359.741 174.154 361.873 170.09C365.158 163.821 368.77 157.774 372.576 151.849C373.646 150.184 375.059 149.497 376.961 149.846C378.923 150.207 379.37 151.863 379.836 153.498C381.806 160.386 382.802 167.492 384.93 176.294C386.063 181.74 387.655 189.033 388.543 196.455L388.545 196.457ZM368.538 153.88C365.846 159.364 362.7 164.569 359.415 169.671C357.223 173.073 354.1 174.789 350.114 174.641C343.844 174.411 337.571 174.074 331.346 173.167C326.501 172.462 325.691 171.441 324.576 165.667C323.421 161.898 324.273 158.063 327.205 154.63C330.293 151.011 333.167 147.194 336.386 143.693C338.983 140.868 342.033 139.665 345.82 140.493C352.703 141.995 359.406 144.192 365.995 146.761C369.461 148.112 370.215 150.464 368.537 153.88L368.538 153.88ZM337.9 130.017C338.462 135.312 336.744 139.733 333.376 143.546C330.823 146.435 328.365 149.414 325.864 152.356C323.287 155.387 320.148 156.497 316.287 155.399C311.228 153.959 306.162 152.539 301.277 150.501C297.414 148.888 296.104 146.772 296.588 142.51C297.39 135.431 298.538 128.413 300.236 121.513C301.3 117.191 303.807 114.232 307.693 112.526C314.315 109.618 321.082 107.105 328.004 105.078C332.644 103.718 334.678 105.488 335.964 112.431C336.527 117.534 337.238 123.772 337.9 130.017ZM304.352 154.272C307.478 155.49 310.688 156.485 313.901 157.423C318.568 158.785 322.076 161.127 321.843 166.353C323.047 171.233 323.18 175.62 322.759 180.036C322.529 182.442 321.65 183.562 319.395 184.163C315.023 185.327 310.511 185.467 306.039 185.858C300.153 186.371 294.252 186.762 288.351 187.095C286.353 187.208 284.324 187.088 282.324 186.882C279.709 186.615 277.576 185.272 276.03 183.005C273.344 179.071 271.085 174.869 268.997 170.568C267.614 167.721 267.786 165.058 269.751 162.597C271.334 160.616 272.867 158.591 274.41 156.572C276.22 154.204 278.576 153.034 281.442 152.415C289.239 150.733 296.825 151.337 304.355 154.269L304.352 154.272ZM272.042 155.005C270.268 157.777 268.199 160.29 266.059 162.737C263.886 165.219 260.857 165.987 257.878 166.753C256.047 167.225 254.169 167.499 251.785 167.964C249.62 168.189 247.035 169.375 244.275 169.055C239.997 168.561 236.725 165.892 233.587 163.061C232.839 162.386 232.717 161.28 232.693 160.282C232.665 159.169 232.604 158.014 232.834 156.95C234.73 148.206 236.738 139.494 239.663 131.066C240.967 127.311 243.525 125.6 247.346 125.516C251.069 125.433 254.786 125.27 258.515 125.432C261.912 125.578 264.612 126.858 266.146 130.301C268.766 136.189 271.392 142.072 273.166 148.308C273.866 150.765 273.365 152.939 272.043 155.003L272.042 155.005ZM239.667 171.044C241.05 172.083 241.287 173.491 241.137 175.175C240.716 179.866 238.893 183.988 236.805 188.01C232.251 196.777 228.04 205.749 222.858 214.137C222.667 214.448 222.47 214.754 222.268 215.057C219.852 218.707 218.351 219.037 214.743 216.681C213.578 215.918 212.444 215.101 211.282 214.328C207.608 211.882 205.031 208.688 204.505 203.973C203.805 197.302 203.083 190.632 202.409 183.959C201.974 179.634 201.4 175.315 201.483 170.96C201.589 165.341 206.516 160.501 211.855 161.134C217.573 161.813 223.302 162.724 228.815 164.553C232.806 165.875 236.258 168.48 239.667 171.042L239.667 171.044ZM205.227 155.906C205.489 157.927 204.904 159.474 203.621 160.952C200.688 164.33 197.095 166.271 192.776 166.934C190.38 167.303 188.011 167.846 185.081 168.418C181.39 169.099 177.178 170.025 172.868 170.456C168.624 170.881 166.612 169.485 165.841 165.048C164.655 158.225 164.296 151.335 164.355 144.449C164.404 138.573 166.241 136.412 172.552 134.666C177.792 133.214 183.104 132.034 188.389 130.751C189.829 130.401 191.3 130.311 192.78 130.205C195.83 129.986 197.925 131.272 199.174 134.216C200.414 137.136 201.286 140.187 202.151 143.23C203.34 147.411 204.664 151.563 205.228 155.91L205.227 155.906ZM171.74 173.27C174.711 172.497 177.766 172.053 179.601 171.695C184.634 171.199 188.333 169.938 192.208 169.932C196.197 169.925 197.913 171.43 198.854 175.538C199.787 179.616 200.098 183.78 200.511 187.92C201.011 192.925 201.559 197.932 201.677 202.965C201.707 204.214 201.564 205.444 201.248 206.642C200.767 208.455 199.664 209.678 197.907 210.091C192.307 211.414 186.599 211.94 180.857 212.129C178.591 212.203 176.847 210.922 175.15 209.4C170.348 205.088 167.503 199.528 165.388 193.466C164.039 189.601 162.253 185.904 161.237 181.905C160.744 179.961 161.326 178.655 162.596 177.283C165.119 174.566 168.513 174.106 171.739 173.268L171.74 173.27ZM164.722 198.858C165.484 201.779 164.567 204.237 162.655 206.153C155.981 212.838 148.626 218.654 140.948 224.014C138.26 225.891 135.544 225.832 132.949 223.479C129.282 220.155 125.591 216.835 122.526 212.894C119.694 209.251 118.391 204.755 116.855 200.436C116.394 199.139 116.597 197.632 117.445 196.526C122.062 190.497 127.4 185.256 133.633 181.108C136.165 179.424 139.233 179.837 142.119 179.854C145.369 179.873 148.621 180.079 151.874 180.202C155.534 180.342 158.178 182.036 159.714 185.663C161.55 190 163.416 194.32 164.726 198.859L164.722 198.858ZM124.504 218.716C132.484 224.922 138.265 232.889 142.063 242.463C142.863 244.479 143.8 246.437 144.586 248.458C145.653 251.202 144.904 253.121 142.394 254.417C138.992 256.173 135.258 256.894 131.643 257.963C127.228 259.269 122.734 260.298 118.511 261.383C112 262.656 106.381 259.559 103.736 253.422C103.156 252.079 103.344 250.747 103.697 249.419C104.636 245.875 106.307 242.686 107.976 239.501C111.251 233.242 114.014 226.678 117.859 220.758C118.156 220.301 118.439 219.829 118.772 219.401C120.686 216.948 122.052 216.806 124.506 218.716L124.504 218.716ZM116.831 217.846C112.43 227.182 108.047 236.534 102.796 245.384C102.27 246.27 101.636 247.084 101.016 247.904C99.8688 249.422 98.3341 250.001 96.4858 249.858C94.8151 249.729 93.2098 249.261 91.5971 248.836C87.8604 247.851 86.6557 246.246 86.3118 242.128C85.9684 238.033 86.0069 233.943 86.0669 229.852C86.1892 221.481 86.3335 213.111 86.4857 204.742C86.506 203.628 86.5868 202.513 86.7088 201.407C87.1181 197.647 87.5465 197.186 91.0559 196.542C94.7324 195.88 98.3698 196.668 102.01 197.13C104.66 197.465 107.301 197.908 109.936 198.37C111.656 198.67 113.081 199.593 114.006 201.173C115.511 203.743 116.584 206.524 117.524 209.358C118.502 212.309 118.087 215.184 116.832 217.85L116.831 217.846ZM89.915 251.528C92.5662 251.941 95.1572 252.64 97.7281 253.427C99.048 253.831 100.219 254.557 101.265 255.561C103.562 257.765 105.678 260.154 107.832 262.507C109.312 264.125 109.755 266.102 109.546 268.205C109.183 271.846 108.491 275.426 107.567 278.946C106.965 281.242 105.653 283.084 103.807 284.374C98.0447 288.405 92.0636 292.061 85.8283 295.259C85.0982 295.634 84.2898 295.849 83.5174 296.137C81.8923 296.555 80.4746 296.142 79.112 295.147C74.4354 291.73 70.1073 287.895 66.2615 283.473C63.9549 280.819 63.7741 279.621 65.5908 276.482C68.1232 272.11 71.1515 268.095 74.0415 263.985C76.5507 260.42 79.0418 256.852 82.2346 253.882C84.4668 251.805 86.9808 251.073 89.9134 251.53L89.915 251.528ZM76.0812 256.926C72.1477 262.743 68.3942 268.708 63.816 274.018C61.3674 276.857 58.3275 277.864 54.7526 277.497C50.1476 277.024 45.5948 276.113 41.0118 275.461C36.2331 274.782 33.7079 271.974 32.8557 267.184C32.6162 265.836 32.3351 264.495 32.0725 263.149C30.136 256.646 31.12 250.507 33.7519 244.531C35.77 239.948 37.2429 235.098 39.7204 230.736C41.4872 227.623 43.3782 226.878 46.7116 228.12C50.5703 229.56 53.8704 232.111 57.3453 234.291C62.6241 237.604 67.7605 241.172 72.7781 244.918C74.7183 246.368 76.631 247.887 77.4368 250.448C78.2195 252.94 77.3116 255.11 76.0831 256.926L76.0812 256.926ZM36.8677 287.757C36.5242 285.795 36.3827 283.802 36.5614 281.819C36.7298 279.945 37.6047 278.692 38.9994 278.563C39.6352 278.48 39.7525 278.448 39.8693 278.452C46.8739 278.784 53.8488 279.568 60.5152 282.041C63.6041 283.188 65.6546 286.049 67.5877 288.79C68.5488 290.153 68.0965 291.59 67.5074 292.858C66.6084 294.792 65.6245 296.704 64.4932 298.495C59.8869 305.785 55.247 313.054 50.1492 319.979C49.3902 321.011 48.5605 321.962 47.5536 322.719C46.1557 323.767 45.2571 323.58 44.35 321.981C43.4905 320.464 42.9537 318.8 42.5891 317.092C40.5036 307.349 38.5903 297.573 36.8681 287.759L36.8677 287.757ZM47.7341 343.684C47.5619 340.848 48.3996 340.059 51.0413 340.746C51.329 340.822 51.6209 340.899 51.8937 341.019C59.1061 344.157 66.2356 347.495 73.0713 351.49C75.7089 353.031 75.6487 353.749 73.9126 356.255C71.6496 359.522 68.1889 360.626 64.8932 362.032C62.2319 363.168 59.4984 364.134 56.7814 365.124C53.9747 366.148 52.3295 365.184 51.3469 362.141C50.3498 359.053 49.7803 355.872 49.171 352.699C48.607 349.708 47.9163 346.742 47.7322 343.684L47.7341 343.684ZM73.7689 348.896C67.1456 346.693 60.8232 343.708 54.9504 339.806C49.3214 336.068 48.0898 331.436 50.5068 324.982C52.8565 318.707 56.7488 313.414 60.3075 307.921C62.5832 304.407 64.9578 300.957 67.4344 297.597C70.5395 293.382 72.0986 293.361 76.2268 296.645C79.2531 299.051 81.0255 302.076 81.8144 305.928C82.7278 310.378 83.9507 314.764 84.5279 318.357C85.7995 324.935 87.0339 330.597 87.3521 336.395C87.4773 338.657 86.861 340.702 85.4568 342.402C84.1891 343.937 82.8472 345.403 81.5339 346.895C79.3925 349.325 76.7598 349.892 73.7712 348.897L73.7689 348.896ZM83.5162 349.979C85.2423 347.885 86.9314 345.763 88.9225 343.92C90.7538 342.225 92.9786 341.5 95.3967 340.819C101.376 340.204 107.487 339.55 113.604 338.955C116.073 338.716 118.555 338.595 121.03 338.429C126.315 338.077 130.902 340.279 135.277 343.105C137.296 344.41 138.107 346.373 137.704 348.876C137.194 352.035 136.014 354.918 134.646 357.719C132.048 363.043 129.379 368.328 126.312 373.369C125.716 374.349 125.007 375.267 124.26 376.129C122.343 378.339 119.859 379.166 117.059 378.819C110.571 378.013 104.125 376.887 97.811 375.004C94.7064 374.079 92.3145 372.096 90.5301 369.25C87.7728 364.851 85.027 360.45 82.8633 355.691C81.92 353.614 82.0973 351.694 83.5136 349.976L83.5162 349.979ZM146.872 351.256C144.993 347.152 145.592 343.667 148.795 340.81C154.796 335.458 161.327 330.876 168.438 327.232C170.107 326.377 172.006 326.425 173.737 325.936C177.988 324.345 181.885 325.165 185.6 327.821C187.572 329.231 189.722 330.358 191.714 331.738C194.706 333.811 195.241 335.464 194.17 339.055C192.581 344.379 189.899 349.221 188.07 354.419C184.495 364.572 177 370.855 168.934 376.626C166.271 378.531 164.031 378.21 162.007 375.586C156.171 368.018 150.895 360.037 146.874 351.254L146.872 351.256ZM188.911 358.167C191.172 351.732 193.864 345.5 196.882 339.429C198.342 336.492 199.897 335.645 203.024 335.98C203.318 336.011 203.613 336.064 203.908 336.075C208.666 336.245 212.12 338.52 214.34 343.03C215.265 344.914 216.474 346.652 217.599 348.424C219.083 350.757 220.127 353.245 220.433 356.045C221.438 364.066 221.591 372.127 221.819 380.19C221.919 383.713 218.979 386.225 215.416 384.058C207.457 379.218 199.536 374.317 191.994 368.776C188.136 365.941 187.306 362.723 188.909 358.167L188.911 358.167ZM215.561 339.236C214.306 336.99 214.449 334.863 215.611 332.707C216.746 330.603 218.174 328.724 219.62 326.864C222.883 322.664 226.24 318.544 229.459 314.309C232.138 310.785 235.693 308.586 239.449 306.61C241.347 305.612 243.337 305.521 245.33 306.014C252.635 307.815 259.869 309.908 266.915 312.678C270.095 313.927 270.813 315.967 269.373 319.184C267.863 322.556 265.7 325.483 263.617 328.463C260.355 333.132 257.218 337.89 253.647 342.321C250.616 346.083 246.998 348.504 243.82 348.699C237.075 349.649 231.936 350.434 226.705 350.445C223.998 350.451 221.894 349.309 220.313 346.983C218.61 344.478 217.043 341.889 215.561 339.236ZM256.803 342.9C262.164 334.203 268.062 325.921 274.239 317.855C275.809 315.805 277.957 315.193 280.358 315.159C282.287 315.131 283.385 316.332 284.22 317.991C286.285 322.106 287.652 326.507 289.156 330.842C290.72 335.354 292.418 339.832 293.623 345.685C294.409 352.208 294.533 359.89 294.188 367.574C294.034 370.983 292.361 373.289 289.453 374.777C286.019 376.533 282.571 378.247 278.985 379.643C276.439 380.634 274.102 380.269 272.089 378.175C271.411 377.469 270.698 376.783 270.111 375.999C265.353 369.628 260.909 363.028 256.78 356.195C254.059 351.69 254.123 347.248 256.805 342.898L256.803 342.9ZM283.3 302.909C281.86 297.997 281.122 292.946 280.031 287.966C279.085 282.395 277.529 276.917 277.463 271.214C277.437 268.793 277.956 266.544 279.249 264.545C280.797 262.151 282.321 259.736 283.945 257.403C285.562 255.078 287.767 254.071 290.579 254.556C295.038 255.325 299.455 256.297 303.779 257.722C306.522 258.628 308.069 260.77 308.988 263.497C309.663 265.5 310.23 267.53 310.574 269.626C311.613 275.944 313.349 282.138 313.926 288.543C314.266 292.33 313.245 295.451 310.19 297.529C304.271 301.554 297.968 304.878 291.388 307.549C287.001 309.33 284.711 307.718 283.301 302.907L283.3 302.909ZM292.077 310.868C298.948 306.58 306.122 302.878 313.476 299.556C314.49 299.098 315.634 298.94 316.717 298.642C318.648 298.287 320.589 298.158 322.554 298.306C327.406 298.674 332.262 299.027 337.045 300.101C340.545 300.888 341.517 302.379 340.966 306.087C340.821 307.064 340.608 308.036 340.339 308.98C338.16 316.627 335.591 324.122 332.772 331.525C330.951 336.31 327.651 339.132 322.858 339.932C316.327 341.021 309.755 341.888 303.132 342.224C298.562 342.454 296.13 340.839 294.294 336.412C292.06 331.019 290.111 325.512 288.688 319.829C287.611 315.527 288.447 313.135 292.075 310.868L292.077 310.868ZM335.212 334.076C337.1 326.592 339.474 319.293 342.455 312.228C343.028 310.868 343.793 309.617 344.688 308.474C346.716 305.875 349.091 305.6 351.676 307.656C354.244 309.695 356.153 312.383 357.878 315.155C363.823 324.71 369.229 334.594 374.332 344.657C375.242 346.449 375.583 348.421 376.006 350.367C377.299 357.648 376.954 358.425 370.697 361.665C366.695 363.737 362.702 365.83 358.51 367.484C355.082 368.836 352.571 368.407 350.187 365.383C345.077 358.901 340.354 352.105 336.458 344.752C334.698 341.427 334.274 337.793 335.212 334.078L335.212 334.076ZM372.271 334.998C367.367 327.867 363.428 320.111 359.315 312.476C357.963 309.967 356.71 307.408 355.777 304.691C354.612 301.296 355.246 298.425 357.912 296.209C362.494 292.397 367.848 289.902 372.931 286.946C375.756 285.303 378.579 283.64 381.807 282.942C383.033 282.705 384.275 282.508 385.514 282.779C390.007 283.762 394.407 285.108 398.653 286.983C400.189 287.661 401.371 288.865 402.044 290.464C403.714 294.424 404.796 298.581 405.589 302.796C406.194 306.006 404.947 308.756 403.277 311.309C399.481 317.115 394.927 322.276 390.635 327.658C388.34 330.538 386.035 333.418 383.461 336.04C378.769 340.824 376.184 340.689 372.269 334.998L372.271 334.998ZM382.454 341.909C388.735 333.702 395.078 325.55 401.898 317.826C403.096 316.469 404.367 315.196 405.819 314.133C408.086 312.473 410.445 312.203 413.001 313.588C416.221 315.331 418.895 317.861 421.688 320.209C425.14 323.109 428.485 326.15 431.92 329.074C436.128 332.655 437.926 337.519 438.943 342.832C439.317 344.78 438.415 346.019 437.022 347.04C434.215 349.099 431.089 350.531 427.985 352.011C419.212 356.186 410.395 360.25 401.442 364.016C396.644 366.034 392.182 365.974 387.729 363.006C386.672 362.301 385.578 361.642 384.45 361.075C381.574 359.629 379.713 357.49 379.801 353.887C378.211 349.309 379.736 345.462 382.451 341.914L382.454 341.909ZM433.465 326.425C426.152 321.282 419.489 315.262 412.939 309.117C409.437 305.832 408.123 301.283 406.975 296.735C406.426 294.567 406.051 292.354 405.638 290.152C405.353 288.633 405.716 287.152 406.804 286.247C412.376 281.612 418.252 277.496 424.085 275.711C429.283 275.023 433.297 274.773 437.324 274.94C440.762 275.082 441.902 276.15 442.442 279.683C443.224 284.81 442.85 289.968 442.921 295.113C442.962 298.153 442.839 301.194 442.911 304.234C443.09 311.549 441.17 318.314 438.449 324.871C437.273 327.703 435.936 328.159 433.469 326.425L433.465 326.425ZM445.355 302.706C444.643 293.786 444.913 284.86 445.263 275.947C445.401 272.465 449.127 270.848 451.736 271.107C459.294 271.852 466.798 273.089 474.268 274.582C474.791 274.686 475.302 274.876 475.812 275.044C479.26 276.174 480.381 277.508 480.679 281.312C480.955 284.838 480.955 288.372 480.83 291.907C480.698 295.622 478.93 297.99 475.82 299.472C470.787 301.871 465.51 303.601 460.298 305.511C457.747 306.446 455.196 307.4 453.227 307.758C447.39 309.222 445.794 308.209 445.354 302.704L445.355 302.706ZM483.293 278.514C483.372 275.346 486.943 272.384 490.511 272.192C491.337 272.147 492.172 272.169 492.993 272.078C496.32 271.706 499.093 272.786 501.61 275.219C506.014 279.474 510.431 283.705 514.492 288.324C516.683 290.815 517.653 293.121 518.441 297.835C519.329 304.055 518.939 311.258 518.944 318.457C518.947 321.995 519.041 325.548 518.554 329.051C517.918 333.64 516.235 335.021 511.824 334.496C507.22 333.948 502.673 332.996 498.12 332.052C493.532 331.103 490.903 328.208 489.669 323.673C487.823 316.89 486.057 310.084 484.563 303.211C482.785 295.034 483.084 286.764 483.289 278.514L483.293 278.514ZM515.823 285.433C512.128 282.052 508.554 278.534 505.213 274.764C504.727 274.216 504.27 273.624 503.874 273.003C502.545 270.92 502.649 269.706 504.26 267.874C504.378 267.739 504.493 267.592 504.631 267.483C510.484 262.846 516.402 258.266 523.118 255.076C527.203 253.136 531.755 253.314 536.198 253.605C537.873 253.715 539.37 254.615 540.655 255.822C546.414 261.236 551.629 267.18 556.377 273.572C556.886 274.258 557.323 275.026 557.673 275.814C558.803 278.354 558.265 280.197 556.05 281.709C554.149 283.007 551.97 283.592 549.822 284.229C547.671 284.867 545.487 285.403 543.298 285.896C541.106 286.388 538.891 286.769 535.65 287.401C533.187 287.748 529.765 288.693 526.204 288.961C522.251 289.258 518.821 288.178 515.821 285.432L515.823 285.433ZM544.09 254.328C543.701 253.78 543.371 253.165 543.117 252.538C542.861 251.911 542.733 251.228 542.66 250.961C542.323 249.328 542.229 248.079 542.504 246.861C543.883 240.775 545.708 234.842 547.885 229.04C548.609 227.112 549.867 225.581 551.464 224.335C553.869 222.457 556.405 220.801 559.006 219.237C561.706 217.614 564.227 217.984 566.586 220.011C568.664 221.798 570.732 223.616 572.668 225.572C578.137 231.097 583.659 236.572 588.715 242.526C589.271 243.179 589.797 243.873 590.241 244.609C591.801 247.191 591.775 248.718 589.917 251.03C586.209 255.648 582.107 259.88 577.935 264.027C574.575 267.369 571.379 270.909 567.657 273.835C565.269 275.713 563.371 275.792 561.093 273.634C554.873 267.742 549.107 261.389 544.088 254.326L544.09 254.328ZM566.31 280.056C570.172 275.581 574.278 271.374 578.966 267.834C579.384 267.519 579.918 267.369 580.215 267.229C582.411 266.993 584.167 267.697 585.798 268.841C590.839 272.375 595.263 276.701 599.722 280.973C605.947 286.941 612.138 292.947 618.317 298.965C619.675 300.286 620.924 301.725 621.914 303.391C622.803 304.886 622.627 306.188 621.551 307.458C619.126 310.326 617.419 310.86 613.84 309.455C605.172 306.051 596.953 301.555 588.591 297.411C582.759 294.521 577.089 291.298 571.589 287.745C569.805 286.594 568.047 285.396 566.628 283.748C565.64 282.601 565.263 281.27 566.314 280.053L566.31 280.056ZM623.155 236.464C623.373 238.338 622.34 239.588 620.718 240.333C618.421 241.39 615.919 241.559 613.503 242.103C609.839 243.131 606.03 243.264 602.295 243.859C596.928 244.713 592.599 242.13 588.813 238.359C583.18 232.748 577.569 227.115 572.212 221.2C567.725 216.247 566.076 210.685 567.405 204.078C568.829 196.997 570.153 189.891 572.476 183.078C574.594 176.87 576.913 176.16 582.088 179.922C585.154 182.153 587.78 184.91 590.292 187.761C599.498 198.212 608.653 208.708 617.332 219.654C621.252 224.598 622.45 230.426 623.152 236.462L623.155 236.464ZM604.178 138.599C604.602 143.136 603.628 147.053 600.234 149.898C592.989 155.973 585.379 161.515 577.198 166.165C576.201 166.731 575.12 167.007 574.003 167.18C570.999 167.644 568.656 166.013 568.213 162.867C567.44 157.376 567.62 151.845 567.565 146.332C567.496 139.516 567.27 132.69 567.844 125.892C568.162 122.144 569.391 118.811 571.551 115.851C573.798 112.774 575.955 109.63 578.426 106.735C580.338 104.497 582.758 103.696 585.546 103.76C587.556 103.807 589.572 103.801 591.576 103.957C595.943 104.298 597.208 105.588 598.593 110.044C600.04 114.703 600.604 119.534 601.726 124.25C602.469 129.044 603.725 133.74 604.178 138.597L604.178 138.599ZM550.939 49.4528C552.015 49.5105 553.052 49.8238 554.044 50.2678C564.098 54.7546 573.968 59.6551 583.559 65.1826C588.373 67.9583 591.323 72.1054 592.303 77.7741C592.749 80.3496 593.295 82.9093 593.796 85.4759C594.58 89.2506 595.568 93.0052 595.704 96.8748C595.799 99.5541 594.904 100.445 592.39 100.532C585.166 100.788 578.092 99.8997 571.176 97.3923C566.613 95.7381 561.999 94.2496 557.384 92.7789C552.392 91.1888 549.397 87.9243 548.513 82.408C547.489 76.0236 545.757 69.742 545.561 63.2414C545.431 58.9318 546.799 54.9518 548.179 51.0067C548.621 49.7477 549.729 49.386 550.939 49.449L550.939 49.4528ZM476.882 53.9647C476.653 50.5499 477.806 48.7568 480.944 47.4067C483.123 46.4679 485.4 45.7895 487.712 45.3188C494.722 43.8899 501.752 42.5578 508.774 41.1878C515.737 39.8292 522.688 38.3826 529.674 37.1495C533.096 36.5466 536.57 36.0814 540.075 36.2516C542.942 36.3908 543.722 37.2224 544.52 40.1306C546.438 47.1354 544.074 53.3286 541.61 59.4983C541.175 60.5827 540.224 61.3724 539.257 61.9409C533.926 65.0765 528.45 67.916 522.568 69.7956C519.647 70.7295 516.596 70.5416 513.58 70.211C503.906 69.1508 494.228 68.1011 484.641 66.2251C483.653 66.0322 482.668 65.7462 481.714 65.3989C479.533 64.6046 478.116 63.1593 477.673 60.6266C477.284 58.412 477.026 56.1917 476.878 53.9654L476.882 53.9647ZM483.285 85.9567C486.381 92.8577 489.693 99.6594 492.421 106.735C492.664 107.37 492.852 108.028 493.064 108.675C493.497 110.529 493.068 112.108 491.976 113.563C490.044 116.132 488.008 118.583 485.522 120.593C482.082 123.374 478.656 126.177 475.256 129.009C472.672 131.158 469.846 131.828 466.629 130.679C461.117 128.708 455.406 127.325 450.498 123.682C448.595 122.269 447.838 120.624 448.001 118.309C448.271 114.453 449.19 110.736 449.978 106.995C451.184 101.258 452.167 95.4577 453.92 89.8677C454.836 86.9439 456.206 84.3054 458.449 82.2838C462.147 78.9512 465.987 75.7973 470.182 73.1706C473.5 71.0927 475.296 71.5332 477.592 74.8987C479.933 78.3303 481.585 82.1659 483.286 85.9563L483.285 85.9567ZM407.749 61.5771C409.121 61.03 410.497 60.4428 411.925 60.1149C420.112 58.2323 428.295 56.319 435.856 55.074C444.752 53.2242 452.946 51.659 461.209 50.4896C463.485 50.1676 465.799 50.0014 468.101 49.9832C471.136 49.9597 472.686 51.6053 472.947 54.7835C473.099 56.6409 473.256 58.4994 473.456 60.3532C473.851 64.0169 472.848 67.0796 470.16 69.4637C466.12 73.0442 461.883 76.3502 457.348 79.2164C454.852 80.7936 452.071 81.2082 449.151 80.8766C445.888 80.5059 442.726 79.6076 439.571 78.6962C430.559 76.0959 421.538 73.5328 412.67 70.3849C409.891 69.3981 407.637 67.8663 406.624 64.7581C406.143 63.2778 406.288 62.1593 407.749 61.5771ZM412.814 73.4148C414.477 73.4858 416.118 73.7835 417.732 74.2163C425.859 76.395 433.938 78.7621 441.92 81.5063C443.677 82.1099 445.358 82.8801 446.979 83.8527C449.759 85.522 450.905 88.0946 450.583 91.2213C449.747 99.3104 448.028 107.204 445.683 114.923C444.553 118.642 442.005 120.331 438.159 120.277C433.306 120.208 428.466 119.964 423.626 119.572C419.462 119.236 416.497 117.295 414.95 112.979C413.15 107.962 411.048 103.057 409.652 97.6938C408.972 91.0063 408.329 84.1462 408.65 77.2593C408.78 74.4732 410.154 73.3001 412.815 73.4125L412.814 73.4148ZM340.916 77.0624C341.127 75.3467 342.741 74.7209 344.103 74.1601C346.568 73.1459 349.123 72.3621 351.73 71.8455C365.131 69.1934 378.537 66.5641 391.96 64.0201C394.325 63.5723 396.743 63.2836 399.182 63.3116C400.988 63.331 402.179 64.1809 402.991 65.878C404.385 68.7939 404.971 71.8673 405.092 75.0729C405.276 79.9721 405.683 84.8751 405.663 89.7687C405.641 95.3891 403.965 97.1584 398.728 98.611C394.617 99.7516 390.435 100.518 385.422 101.591C384.07 101.855 381.858 102.257 379.661 102.721C374.684 103.771 369.915 103.121 365.28 100.774C358.665 97.4271 352.179 93.8243 345.71 90.169C340.751 87.3664 340.222 82.6858 340.916 77.0624ZM342.368 91.8718C343.674 92.2921 344.979 92.7653 346.217 93.372C351.625 96.0201 356.822 99.1307 362.195 101.841C368.768 105.157 372.732 110.637 375.309 117.523C377.68 123.859 380.13 130.164 382.528 136.489C382.768 137.123 382.908 137.802 383.064 138.468C384.071 142.778 382.029 145.475 377.737 145.58C373.909 145.674 370.19 144.851 366.488 143.914C361.167 142.567 355.954 140.79 350.694 139.197C344.52 137.324 340.541 133.73 340.543 127.97C339.19 118.913 338.296 111.202 337.72 103.456C337.453 99.8832 338.422 96.5852 339.529 93.3212C339.999 91.9366 341.038 91.4465 342.369 91.8756L342.368 91.8718ZM272.212 90.593C272.064 89.2128 272.818 88.3751 273.877 87.8143C275.457 86.9785 277.154 86.4251 278.885 86.0461C287.034 84.2652 295.147 82.3164 303.377 80.9252C311.473 79.1626 319.645 77.8083 327.824 76.5097C329.746 76.2036 331.705 76.1007 333.663 76.3031C335.427 76.4845 336.514 77.4372 336.76 79.3432C337.529 85.307 337.151 91.1187 335.042 96.7153C334.329 98.6076 333.006 99.8477 331.309 100.7C326.526 103.101 321.441 104.705 316.46 106.576C313.142 107.824 309.737 108.835 306.355 109.906C302.273 111.198 298.382 110.749 294.601 108.854C288.511 105.802 282.628 102.323 276.761 98.8141C273.635 96.9445 272.573 94.0152 272.21 90.5952L272.212 90.593ZM277.38 102.176C283.009 104.789 288.398 107.921 293.631 111.34C296.725 113.361 298.074 116.388 297.74 120.101C297.054 127.708 295.73 135.204 293.909 142.569C292.614 147.808 291.648 148.423 286.44 149.126C284.742 149.363 283.043 149.561 281.331 149.704C278.792 149.918 276.951 148.973 275.651 146.678C273.471 142.835 272.042 138.649 270.402 134.561C269.342 131.917 268.257 129.283 267.663 126.451C267.141 123.956 267.104 121.505 267.557 119.056C268.424 114.37 269.537 109.749 270.923 105.215C272.107 101.338 273.765 100.499 277.38 102.176ZM222.968 97.3335C226.608 96.0174 230.426 95.5067 234.177 94.6941C237.239 94.0318 240.326 93.4806 243.402 92.8805L243.417 92.9582C248.988 91.8712 254.553 90.752 260.136 89.714C261.989 89.3701 263.88 89.2176 265.779 89.3095C267.341 89.3845 268.265 90.2255 268.694 91.8381C269.568 95.1308 269.945 98.3729 269.147 101.758C268.043 106.438 267.037 111.144 265.773 115.779C264.189 121.588 262.874 122.781 257.115 123.076C253.637 123.255 250.139 123.133 246.65 123.125C242.182 123.115 238.517 121.016 235.239 118.004C230.516 113.663 225.921 109.174 221.581 104.407C221.499 104.316 221.418 104.224 221.337 104.132C218.321 100.688 218.785 98.8423 222.968 97.3316L222.968 97.3335ZM214.202 100.955C218.734 104.165 222.36 108.476 226.408 112.275C228.721 114.446 230.904 116.771 233.08 119.096C236.303 122.538 237.737 126.591 236.8 131.357C235.227 139.358 233.353 147.28 230.699 154.943C229.025 159.777 227.527 160.585 222.608 159.872C219.967 159.49 217.364 158.782 214.729 158.348C210.379 157.634 207.908 154.792 206.623 150.612C204.711 144.385 202.849 138.143 201.398 131.782C200.498 128.158 200.438 124.539 201.136 120.901C202.183 115.446 203.116 109.961 204.492 104.591C205.645 100.086 210.455 98.2972 214.204 100.954L214.202 100.955ZM144.586 112.994C148.181 111.199 152.131 110.591 155.973 109.69C160.75 108.571 165.599 107.767 170.419 106.827C177.561 105.459 184.668 103.887 191.899 103.004C193.836 102.767 195.784 102.596 197.737 102.892C199.934 103.225 201.058 104.406 200.861 106.668C200.393 112.049 199.451 117.353 197.587 122.384C196.191 126.151 192.828 127.341 189.506 128.272C183.702 129.898 177.808 131.172 171.95 132.589C165.895 134.054 160.631 132.871 155.827 128.59C152.183 125.341 148.36 122.315 144.877 118.864C144.485 118.476 144.093 118.087 143.739 117.664C142.021 115.598 142.267 114.153 144.586 112.996L144.586 112.994ZM123.425 120.85C123.53 117.854 124.364 117.225 127.173 116.303C129.114 115.667 131.097 115.49 133.09 115.259C135.095 115.027 136.888 115.805 138.436 116.994C144.807 121.887 150.925 127.108 156.698 132.774C160.434 136.441 161.509 141.224 161.939 146.166C162.556 153.273 162.98 160.398 163.331 167.525C163.538 171.747 161.794 174.439 158.5 176.378C156.906 177.317 155.155 177.092 153.473 177.115C149.928 177.165 146.376 177.044 142.829 176.909C136.145 176.653 134.232 175.362 132.057 168.702C128.99 159.316 126.561 149.733 124.518 141.766C122.841 133.735 123.201 127.281 123.425 120.848L123.425 120.85ZM130.41 174.814C130.446 177.517 129.589 179.79 127.875 181.71C124.663 185.308 121.166 188.59 117.62 191.816C114.868 194.319 111.718 195.506 107.992 194.924C105.235 194.494 102.452 194.252 99.7016 193.781C95.9411 193.137 94.5585 191.677 94.4915 187.67C94.3613 179.846 94.7012 172.037 95.6865 164.295C96.1893 160.349 98.26 157.315 101.133 154.877C105.695 151.006 110.373 147.293 115.278 143.902C115.327 143.868 115.378 143.837 115.428 143.803C119.382 141.182 121.335 141.742 123.095 146.359C124.371 149.713 125.375 153.189 126.346 156.654C127.604 161.139 128.71 165.669 129.883 170.181C130.068 171.733 130.387 173.239 130.41 174.814ZM73.8153 127.038C75.5738 126.006 77.5017 125.38 79.4643 124.972C84.6196 123.897 89.7963 122.932 94.9645 121.924C101.277 120.622 107.562 119.136 114.002 118.56C114.356 118.528 114.705 118.446 115.059 118.43C119.077 118.26 120.426 119.387 120.651 123.581C120.811 126.551 120.746 129.551 120.518 132.511C120.324 135.046 119.225 137.238 117.393 138.965C112.052 144.002 106.257 148.409 100.192 152.433C97.0924 154.49 93.9922 154.403 90.9381 151.944C88.6948 150.139 86.6953 148.073 84.7341 145.963C81.5598 142.546 78.4379 139.076 75.3115 135.613C74.2392 134.425 73.3002 133.125 72.5587 131.679C71.4843 129.585 71.843 128.192 73.8111 127.037L73.8153 127.038ZM57.0126 140.47C56.5937 138.102 56.2511 135.682 56.5463 133.249C56.7897 131.245 57.8079 130.144 59.6758 129.511C63.2205 128.314 66.2208 129.209 68.8313 131.859C75.8341 138.976 82.7648 146.166 89.0391 154.017C92.0842 157.829 93.2128 162.164 93.1041 167.032C92.9548 173.856 92.736 180.675 92.1328 187.458C91.614 193.273 91.5309 193.441 85.3307 193.74C80.6131 193.967 75.9382 192.432 71.3576 191.056C69.2781 190.433 68.0114 188.752 67.0768 186.77C65.6338 183.712 64.9181 180.406 64.1848 177.151C62.8169 171.075 61.7483 164.934 60.5552 158.819C59.3621 152.704 58.099 146.602 57.0126 140.47ZM70.4705 194.703C73.1184 195.089 75.7465 195.596 78.3374 196.324C82.0172 197.359 82.8436 198.294 83.8359 203.571C84.4331 207.246 84.1729 212.273 84.1701 217.292C84.1678 223.621 84.0251 229.945 83.3848 236.235C83.2332 237.723 82.9404 239.171 82.4064 240.55C81.3746 243.213 79.825 244.098 77.0767 243.58C74.9929 243.185 73.145 242.149 71.3253 241.065C62.6979 235.928 54.2323 230.524 46.3268 224.185C43.9896 222.311 42.9105 219.911 43.0899 216.885C43.0972 216.761 43.1219 216.636 43.1119 216.514C42.5927 210.431 45.0122 206.275 50.1469 203.495C54.6779 201.042 58.8719 197.93 63.5452 195.723C65.7388 194.687 68.0613 194.352 70.4705 194.703ZM53.7359 142.719C54.5058 143.997 55.018 145.405 55.3928 146.853C57.0988 153.423 58.3961 160.082 59.9587 168.353C60.5583 172.272 61.9994 177.695 62.5665 183.289C63.0886 188.441 61.9796 192.53 57.4982 195.297C54.1088 197.391 50.7533 199.537 47.2938 201.503C43.7195 203.535 40.1186 203.578 36.4008 201.714C32.8988 199.959 29.3594 198.284 26.0298 196.175C21.755 193.469 21.042 191.194 22.8363 186.34C24.2271 182.577 26.2314 179.162 28.2108 175.74C33.7261 166.204 39.3588 156.746 45.331 147.519C46.6512 145.479 48.0238 143.465 49.911 141.946C51.5065 140.663 52.643 140.901 53.7333 142.716L53.7359 142.719ZM10.5631 149.804C9.85187 141.962 11.5323 139.05 18.8261 137.261C26.2251 135.448 33.675 133.754 41.3082 133.131C47.2906 132.642 48.9074 134.849 46.7875 140.692C45.0169 145.567 42.3225 149.924 39.7585 154.336C34.6227 163.17 29.5969 172.085 23.6733 180.373C22.8621 181.51 21.953 182.557 20.8395 183.382C19.5941 184.306 18.5191 184.1 17.6677 182.726C16.6094 181.016 16.0757 179.085 15.6671 177.142C14.8081 173.061 14.0508 168.959 13.252 164.864C12.3573 159.846 11.0269 154.899 10.5646 149.802L10.5631 149.804ZM20.7262 206.565C20.3365 204.527 19.9851 202.394 20.2328 200.272C20.4856 198.115 21.3824 197.468 23.3888 198.119C25.6172 198.841 27.6842 199.985 29.7265 201.153C32.7633 202.888 35.9621 204.306 38.8025 206.424C40.0848 207.38 40.9623 208.577 41.1841 210.267C41.2675 215.103 41.2493 219.932 39.6915 224.559C37.6712 230.559 35.1233 236.322 32.7306 242.155C32.475 242.777 32.1884 243.392 31.8506 243.966C31.34 244.831 31.0146 246.203 29.8935 246.093C28.6643 245.973 28.4874 244.553 28.2081 243.494C25.0153 231.326 23.0802 218.902 20.7243 206.565L20.7262 206.565ZM56.6334 391.088C56.011 388.421 55.1319 385.818 54.6677 383.107C54.2145 380.029 53.7246 376.955 53.3195 373.872C52.8796 370.52 53.8674 368.487 56.7961 367.162C59.8694 365.773 63.0172 364.555 66.1675 363.36C67.0032 363.044 68.0389 362.534 68.8613 363.368C69.669 364.186 69.238 365.248 69.0298 366.194C68.2563 369.708 66.8442 372.978 65.5858 376.301C63.6536 381.405 61.8511 386.57 59.4768 391.47C59.1255 392.196 58.8265 393.311 57.8503 393.179C56.8722 393.047 56.8279 391.914 56.6353 391.088L56.6334 391.088ZM59.291 401.056C59.1358 398.65 59.4264 396.315 60.1836 394.107C64.0369 382.896 67.9671 371.718 72.9632 361.011C73.6725 359.493 74.748 358.262 75.8257 357.052C76.8844 355.866 78.1244 355.85 79.2491 357.055C80.0815 357.95 80.9144 358.877 81.57 359.912C84.9709 365.286 88.5358 370.594 90.6177 376.705C91.5741 379.513 92.0591 382.492 92.4909 384.293C93.9004 393.278 95.4203 401.099 96.0966 409.044C96.4967 413.742 94.9058 416.599 90.6412 417.578C83.2661 419.273 75.8209 420.659 68.2153 420.86C64.3295 420.963 62.6506 419.584 61.8216 415.566C60.8285 410.758 59.6088 405.986 59.2887 401.054L59.291 401.056ZM114.996 434.409C111.482 436.238 107.614 436.945 103.835 437.867C99.7565 438.864 95.5976 439.52 91.4736 440.325C86.1131 441.233 80.8564 442.764 75.397 443.115C74.3359 443.182 73.2699 443.274 72.2086 443.229C69.2265 443.103 67.9021 441.84 66.99 438.826C66.0657 435.77 65.4742 432.678 65.1961 429.501C64.9743 426.945 65.7145 425.545 67.9894 424.593C69.088 424.135 70.2082 423.777 71.3832 423.579C79.3672 422.228 87.3237 420.705 95.4486 420.358C97.9278 420.252 100.311 420.751 102.579 421.747C107.044 423.709 111.373 425.978 115.364 428.906C118.304 431.066 118.192 432.744 114.996 434.409ZM119.832 428.087C114.227 425.706 108.875 422.785 103.858 419.234C101.304 417.428 100.114 414.557 99.3861 411.531C98.8769 409.415 98.5343 407.256 98.1168 405.116C96.9037 398.194 95.5598 391.286 95.1112 384.256C95.0797 383.762 95.0803 383.262 95.1078 382.769C95.2765 379.678 96.4044 378.394 99.3595 378.653C105.821 379.219 112.195 380.5 118.404 382.559C122.389 383.881 123.867 387.54 125.138 391.259C127.451 398.031 129.157 404.983 130.955 411.905C131.909 415.574 131.452 419.04 128.98 422.021C127.635 423.643 126.484 425.442 125.015 426.962C123.525 428.504 121.837 428.94 119.835 428.089L119.832 428.087ZM191.376 420.078C188.604 421.14 185.728 421.852 182.846 422.468C177.293 423.656 171.704 424.671 166.129 425.759C158.001 427.329 149.913 429.145 141.681 430.121C138.167 430.538 134.642 431.062 131.072 430.698C127.926 430.379 127.326 428.995 129.074 426.326C132.247 421.482 136.137 417.498 141.112 414.662C146.841 411.395 152.477 407.954 158.165 404.611C163.102 401.711 168.074 401.208 173.385 404.138C178.719 407.082 184.26 409.606 189.496 412.768C191.148 413.766 192.426 415.085 192.85 417.175C193.154 418.674 192.684 419.578 191.377 420.077L191.376 420.078ZM186.856 408.429C181.77 405.802 176.677 403.199 171.723 400.293C168.978 398.684 167.129 396.502 167.071 393.237C166.473 391.067 166.463 389.003 166.285 386.964C166.081 384.629 166.702 382.541 168.365 380.905C172.26 377.065 176.388 373.515 180.848 370.417C183.209 368.778 185.85 368.589 188.47 369.898C196.419 373.871 203.77 378.916 210.918 384.281C213.897 386.517 214.068 389.385 211.718 392.311C207.671 397.351 203.207 401.978 198.693 406.554C195.193 410.102 191.33 410.736 186.857 408.425L186.856 408.429ZM257.976 403.803C257.931 405.457 257.42 406.49 256.034 407.169C252.625 408.84 248.893 409.288 245.262 410.072C239.305 411.354 233.305 412.436 227.323 413.603C219.26 415.554 211.06 416.768 202.9 418.201C202.032 418.353 201.132 418.33 200.25 418.409C198.965 418.526 197.716 418.504 196.962 417.126C196.168 415.673 196.005 414.153 196.798 412.683C197.229 411.885 197.756 411.119 198.349 410.447C203.259 404.894 208.26 399.444 213.555 394.278C219.575 388.405 226.448 386.983 234.223 389.785C241.103 392.264 247.924 394.93 254.503 398.251C256.748 399.383 258.051 401.01 257.976 403.803ZM254.964 395.41C252.958 394.825 250.96 394.174 249.016 393.391C243.51 391.167 238.04 388.836 232.567 386.519C227.16 384.231 224.419 380.277 224.183 374.276C224.023 370.246 223.696 366.217 223.611 362.186C223.472 355.698 224.595 354.357 231.772 353.049C235.141 352.591 239.596 352.024 244.091 351.85C247.467 351.721 250.429 352.845 252.676 355.636C258.859 363.32 264.349 371.52 269.236 380.152C270.566 382.5 270.494 384.857 268.735 387.054C266.802 389.466 264.652 391.633 262.411 393.713C260.258 395.711 257.727 396.217 254.964 395.412L254.964 395.41ZM319.188 395.109C316.26 396.255 313.209 397.006 310.145 397.637C303.253 399.057 296.334 400.355 287.746 402.031C282.147 402.964 274.977 404.847 267.604 405.604C267.251 405.64 266.904 405.729 266.55 405.761C262.099 406.167 260.197 403.372 261.91 398.964C262.435 397.612 263.357 396.579 264.318 395.586C266.824 392.994 269.369 390.443 271.88 387.855C276.229 383.372 281.952 381.416 287.318 378.802C288.17 378.388 289.064 378.07 289.937 377.701C293.212 376.32 296.457 376.252 299.73 377.973C306.196 381.371 312.397 385.255 318.477 389.364C318.978 389.704 319.435 390.116 319.896 390.514C322.248 392.548 322.043 393.991 319.184 395.11L319.188 395.109ZM325.456 389.815C321.914 388.597 318.718 386.623 315.505 384.696C311.718 382.426 307.966 380.099 304.274 377.651C299.709 374.626 297.168 370.588 297.234 364.835C297.277 361.052 297.017 357.262 297.184 353.477C297.4 348.616 298.271 347.356 302.627 345.849C303.462 345.56 304.34 345.398 305.019 345.224C311.539 344.393 317.85 343.382 324.24 343.072C328.18 342.882 331.615 344.201 334.197 347.554C338.865 353.613 343.227 359.907 346.968 366.623C349.588 371.321 349.276 373.578 345.897 377.547C342.727 381.27 339.312 384.731 335.595 387.864C332.562 390.422 329.223 391.107 325.456 389.813L325.456 389.815ZM395.157 377.688C395.484 379.391 394.018 380.313 392.604 380.764C389.903 381.627 387.201 382.544 384.436 383.137C378.306 384.449 372.137 385.572 365.983 386.772C358.14 388.24 350.372 390.149 342.42 391.009C341.424 391.117 340.414 391.214 339.417 391.145C338.073 391.053 337.739 390.309 338.475 389.168C338.867 388.56 339.341 387.997 339.834 387.476C344.794 382.25 349.26 376.416 355.354 372.541C361.435 368.677 367.985 365.718 374.609 362.984C377.102 361.954 379.694 362.131 382.197 363.467C385.07 365 387.984 366.439 390.713 368.266C394.036 370.492 394.486 374.196 395.155 377.684L395.157 377.688ZM458.614 364.215C458.824 365.923 458.37 367.112 456.912 367.88C453.989 369.425 450.793 370.115 447.627 370.798C441.498 372.124 435.323 373.236 426.163 375.023C421.536 375.755 414.03 377.797 406.297 378.551C405.649 378.614 405.002 378.689 404.352 378.7C399.608 378.787 397.464 376.425 397.654 371.372C397.71 369.886 398.658 369.059 399.633 368.261C401.877 366.426 404.482 365.262 407.053 364.045C416.427 359.602 425.831 355.235 435.381 351.198C440.166 349.174 444.743 348.901 449.33 351.847C449.584 352.01 449.855 352.163 450.138 352.252C455.839 354.028 457.92 358.555 458.615 364.211L458.614 364.215ZM452.636 350.362C450.575 349.229 448.468 348.192 446.381 347.111C444.636 346.206 443.426 344.746 442.744 342.882C441.806 340.32 440.956 337.721 440.15 335.111C439.532 333.111 439.486 331.055 440.011 329.043C440.899 325.644 442.096 322.357 443.231 319.048C444.887 314.22 448.788 312.273 452.947 310.692C459.909 308.045 466.828 305.262 474.006 303.26C478.71 301.948 481.23 303.177 482.769 308.105C484.251 312.857 485.279 317.723 486.685 322.601C486.867 324.299 487.143 326.088 487.236 327.883C487.403 331.142 485.911 333.584 483.58 335.493C476.909 340.956 469.715 345.603 462.434 350.117C459.241 352.097 455.997 352.211 452.636 350.362ZM531.912 351.762C531.953 352.643 531.276 353.181 530.551 353.541C529.274 354.174 527.974 354.718 526.586 355.07C516.485 357.621 506.212 359.336 493.469 361.923C488.146 363.105 480.194 364.326 472.255 365.615C470.172 365.954 468.038 366.209 465.894 365.898C464.129 365.64 462.887 364.767 462.505 362.83C462.493 362.769 462.479 362.707 462.458 362.65C460.084 355.805 461.137 354.49 466.289 350.71C472.875 345.878 479.498 341.083 486.567 337.012C489.924 335.078 493.511 334.376 497.339 334.924C503.872 335.861 510.382 336.986 516.802 338.62C521.695 339.865 525.807 342.866 529.884 345.825C531.817 347.227 531.811 349.594 531.912 351.762ZM529.763 341.803C528.488 340.986 527.192 340.203 525.9 339.416C523.22 337.789 521.939 335.25 521.803 332.148C521.405 323.081 521.216 314.01 521.646 304.959C522.097 295.416 524.266 292.836 533.237 290.844C536.067 290.215 538.927 289.722 541.772 289.167C546.174 288.317 550.529 287.058 555.091 287.312C559.246 287.542 560.88 289.281 560.934 293.608C560.955 295.235 560.73 296.835 560.375 298.398C558.708 305.748 556.646 312.975 554.54 320.188C552.868 325.92 549.825 330.583 545.303 334.261C542.381 336.638 539.583 339.181 536.568 341.432C534.413 343.041 532.152 343.338 529.763 341.803ZM591.427 341.364C591.402 342.194 590.62 342.403 590.044 342.6C588.537 343.117 587.01 343.625 585.451 343.941C578.612 345.323 571.759 346.632 564.911 347.968C564.911 347.97 564.912 347.974 564.912 347.976C558.645 349.199 552.382 350.454 546.105 351.626C544.017 352.015 541.899 352.273 539.78 352.441C538.457 352.545 536.843 352.821 536.099 351.26C535.226 349.431 534.982 347.436 536.027 345.546C536.201 345.23 536.449 344.95 536.702 344.7C541.068 340.403 545.523 336.204 550.603 332.841C552.791 331.393 555.36 331.095 557.96 331.453C564.279 332.322 570.391 334.256 576.559 335.887C580.249 336.863 583.892 338.051 587.551 339.161C588.409 339.421 589.258 339.718 590.089 340.061C590.68 340.306 591.452 340.507 591.425 341.363L591.427 341.364ZM605.651 339.193C601.117 340.552 596.95 339.419 592.785 338.329C583.552 335.915 574.292 333.607 565.212 330.55C564.252 330.226 563.301 329.835 562.387 329.385C558.213 327.327 556.835 324.965 557.653 320.271C559.067 312.158 561.297 304.271 564.16 296.621C565.73 292.428 568.314 291.261 572.528 292.33C576.61 293.363 580.351 295.357 584.13 297.209C592.449 301.292 600.817 305.28 608.829 310.039C610.082 310.782 611.244 311.65 612.337 312.639C614.498 314.596 615.427 316.951 615.002 319.948C614.401 324.184 613.391 328.311 612.503 332.475C611.637 336.538 609.76 339.291 605.65 339.191L605.651 339.193ZM640.985 325.818C641.663 329.991 640.464 332.267 636.353 333.43C630.388 335.115 624.3 336.411 618.086 336.852C615.783 337.016 614.925 336.05 615.111 333.583C615.25 331.738 615.581 329.9 615.958 328.091C616.728 324.407 617.578 320.742 618.416 317.074C619.022 314.414 620.351 312.246 622.238 310.357C625.508 307.084 628.827 303.874 632.218 300.743C634.541 298.598 635.54 298.938 636.407 302.193C636.872 303.936 637.357 305.677 637.746 307.437C638.228 309.624 638.617 311.832 639.024 313.918C640.011 317.91 640.346 321.889 640.987 325.819L640.985 325.818Z" fill="url(#paint1_radial_62_671)"/>
</g>
<defs>
<filter id="filter0_d_62_671" x="0.147217" y="0.147217" width="776.555" height="502.246" filterUnits="userSpaceOnUse" color-interpolation-filters="sRGB">
<feFlood flood-opacity="0" result="BackgroundImageFix"/>
<feColorMatrix in="SourceAlpha" type="matrix" values="0 0 0 0 0 0 0 0 0 0 0 0 0 0 0 0 0 0 127 0" result="hardAlpha"/>
<feOffset dy="12"/>
<feGaussianBlur stdDeviation="16"/>
<feComposite in2="hardAlpha" operator="out"/>
<feColorMatrix type="matrix" values="0 0 0 0 1 0 0 0 0 0.341176 0 0 0 0 0.266667 0 0 0 0.3 0"/>
<feBlend mode="normal" in2="BackgroundImageFix" result="effect1_dropShadow_62_671"/>
<feBlend mode="normal" in="SourceGraphic" in2="effect1_dropShadow_62_671" result="shape"/>
</filter>
<linearGradient id="paint0_linear_62_671" x1="363.613" y1="144.536" x2="363.613" y2="468.536" gradientUnits="userSpaceOnUse">
<stop stop-color="#FF5744"/>
<stop offset="1" stop-color="#C8200D"/>
</linearGradient>
<radialGradient id="paint1_radial_62_671" cx="0" cy="0" r="1" gradientUnits="userSpaceOnUse" gradientTransform="translate(326.897 250.619) rotate(78.96) scale(153.25 284.052)">
<stop stop-color="#0A0731" stop-opacity="0.1"/>
<stop offset="1" stop-color="#0A0731" stop-opacity="0"/>
</radialGradient>
</defs>
</svg>
