<svg width="58" height="28" viewBox="0 0 58 28" fill="none" xmlns="http://www.w3.org/2000/svg">
<path d="M57.4813 8.5618C58.5112 13.8427 55.0651 18.9587 49.7842 19.9887L12.2918 27.301C7.01085 28.3309 1.89485 24.8848 0.864891 19.6039C-0.165068 14.3229 3.28103 9.20696 8.56197 8.177L46.0544 0.864726C51.3353 -0.165233 56.4513 3.28086 57.4813 8.5618Z" fill="#0A0731" fill-opacity="0.05"/>
<path d="M57.4813 8.5618C58.5112 13.8427 55.0651 18.9587 49.7842 19.9887L12.2918 27.301C7.01085 28.3309 1.89485 24.8848 0.864891 19.6039C-0.165068 14.3229 3.28103 9.20696 8.56197 8.177L46.0544 0.864726C51.3353 -0.165233 56.4513 3.28086 57.4813 8.5618Z" fill="url(#paint0_linear_5_1549)"/>
<defs>
<linearGradient id="paint0_linear_5_1549" x1="31.038" y1="23.6448" x2="27.3082" y2="4.52086" gradientUnits="userSpaceOnUse">
<stop stop-color="#0C8CAE"/>
<stop offset="1" stop-color="#46DDF3"/>
</linearGradient>
</defs>
</svg>
